/* XPM */
static char *_b5d9f6a0e5a4bf2f067cdb2fd0cc5b4dmZTGWMjm9s0HH5a[] = {
/* columns rows colors chars-per-pixel */
"80 80 193 2 ",
"   c None",
".  c #1E0F6A",
"X  c #040A74",
"o  c #031C74",
"O  c #1F1879",
"+  c #2B1666",
"@  c #251368",
"#  c #331A64",
"$  c #3C1E62",
"%  c #241D7A",
"&  c #012373",
"*  c #002B73",
"=  c #0F257B",
"-  c #14227E",
";  c #003D74",
":  c #013374",
">  c #2E327C",
",  c #45235F",
"<  c #4A255E",
"1  c #4F285C",
"2  c #552B5B",
"3  c #5B2E59",
"4  c #5E2F57",
"5  c #5F3057",
"6  c #5B365A",
"7  c #7D3F4F",
"8  c #643257",
"9  c #6C3754",
"0  c #6F3853",
"q  c #743A52",
"w  c #7A3D50",
"e  c #432260",
"r  c #014474",
"t  c #014A74",
"y  c #0C497A",
"u  c #12487A",
"i  c #015574",
"p  c #015C75",
"a  c #0C5978",
"s  c #17587B",
"d  c #2D4E78",
"f  c #006374",
"g  c #006D75",
"h  c #076178",
"j  c #136678",
"k  c #007275",
"l  c #007C75",
"z  c #0B767A",
"x  c #137678",
"c  c #7F404F",
"v  c #7C4357",
"b  c #4D4061",
"n  c #5C4E71",
"m  c #7B5779",
"M  c #B65C3F",
"N  c #BB5E3E",
"B  c #BF603D",
"V  c #C4623C",
"C  c #CA663A",
"Z  c #CE6839",
"A  c #D56B37",
"S  c #DB6E35",
"D  c #D16938",
"F  c #D86D38",
"G  c #DC7139",
"H  c #EF782F",
"J  c #F47A2E",
"K  c #FC7E2C",
"L  c #E47233",
"P  c #EB7631",
"I  c #EF7830",
"U  c #E4773B",
"Y  c #F57E32",
"T  c #82424E",
"R  c #8A454C",
"E  c #8E494F",
"W  c #9B4E47",
"Q  c #924949",
"!  c #984C48",
"~  c #9F5046",
"^  c #9B524D",
"/  c #904C51",
"(  c #8C505D",
")  c #975659",
"_  c #A45245",
"`  c #AA5643",
"'  c #AF5842",
"]  c #B35A41",
"[  c #A15852",
"{  c #BD6242",
"}  c #AF6151",
"|  c #BF6F58",
" . c #945962",
".. c #814E64",
"X. c #976571",
"o. c #B3746D",
"O. c #D16F42",
"+. c #D77647",
"@. c #C97655",
"#. c #C16A4B",
"$. c #008375",
"%. c #018B75",
"&. c #098A7A",
"*. c #009375",
"=. c #009B76",
"-. c #0C967C",
";. c #00A476",
":. c #00AB76",
">. c #00B476",
",. c #00BB76",
"<. c #07BD7A",
"1. c #00C376",
"2. c #00CB76",
"3. c #06CF7A",
"4. c #00D477",
"5. c #00DC77",
"6. c #05DC79",
"7. c #08D97B",
"8. c #00E377",
"9. c #04E479",
"0. c #0BE67D",
"q. c #10E37F",
"w. c #FF802B",
"e. c #FE8332",
"r. c #FF8B3D",
"t. c #F9853A",
"y. c #FA8C43",
"u. c #FF9249",
"i. c #FF9752",
"p. c #FC9857",
"a. c #E5844F",
"s. c #CE8E76",
"d. c #FCA369",
"f. c #FAAB78",
"g. c #FFB17B",
"h. c #1C3282",
"j. c #1C3E82",
"k. c #192980",
"l. c #223C86",
"z. c #1F4284",
"x. c #244787",
"c. c #2C568B",
"v. c #3B5980",
"b. c #1D7684",
"n. c #28678A",
"m. c #396C93",
"M. c #564C85",
"N. c #575984",
"B. c #4A5883",
"V. c #735C8A",
"C. c #695489",
"Z. c #526585",
"A. c #7F658E",
"S. c #676587",
"D. c #8A6581",
"F. c #1A8B83",
"G. c #299C8C",
"H. c #358691",
"J. c #379C93",
"K. c #16B281",
"L. c #25BA8A",
"P. c #3CAB96",
"I. c #37B393",
"U. c #428598",
"Y. c #45989A",
"T. c #4AB69E",
"R. c #18C783",
"E. c #12DE81",
"W. c #1AD685",
"Q. c #24DC8A",
"!. c #2FCC90",
"~. c #34CE92",
"^. c #3DD197",
"/. c #14E582",
"(. c #21E689",
"). c #54CFA3",
"_. c #A28292",
"`. c #AF8B95",
"'. c #B49199",
"]. c #C59E9D",
"[. c #C19593",
"{. c #C49088",
"}. c #D2A191",
"|. c #FCB689",
" X c #FFBD91",
".X c #EFB89B",
"XX c #CFA6A0",
"oX c #DFB3A3",
"OX c #E5B7A4",
"+X c #FFC29A",
"@X c #FFC9A5",
"#X c #FFCCAA",
"$X c #F8C4A6",
/* pixels */
"                                                                                                                                                                ",
"                                                                                                                                                                ",
"                                                                                                                                                                ",
"                                                                                                                                                                ",
"                                                                                                                                                                ",
"                                                                                                                                                                ",
"                                                                                                                                                                ",
"                                                                                                                                                                ",
"                                                                                                                                                                ",
"                                                                                                                                                                ",
"                                                                                                                                                                ",
"                                                                                                                                                                ",
"                                                                                                                                                                ",
"                                                                                                                                                                ",
"                                                                                                                                                                ",
"                                                                                                                                                                ",
"                                                                                            h.                                                                  ",
"                                                                              l.          Z.T.z.                                                                ",
"                                                                            c.L.F.&     x.)./.K.                                                                ",
"                                                      l.x.                  Y.0.6.l     Y.(.9.2.r                                                               ",
"                                                      F.I.c.                T.7.5.,.r   I.0.5.8.p       - k.                                                    ",
"                                                    i <./.I.l.              I.8.2.9.$.X ~.9.,.8.l     c.P.J.o                                                   ",
"                                        h.m.m.l.    p 5.5./.H.              I.8.%.8.1.z.K.9.>.8.=.X h.!.E.6.t                                                   ",
"                                        x.!.^.Y.    g 5.3.3.!.-             G.8.:.4.5.y E.8.*.8.=.= G.0.5.5.k                                                   ",
"                                        s 7./.Q.J.k.g 8.2.>.7.n.            b.9.>.>.8.a 6.5.=.5.=.b./.8.,.5.l                                                   ",
"                                        i 4.8.8.Q.n.r 5.2.>.9.-.            r 5.2.=.5.g 4.5.*.5.=.z 8.2.:.5.g                                                   ",
"                                        * 2.8.1.9.L.n.1.5.*.8.,.              1.8.f 5.i 8.5.l 1.$.=.8.=.>.5.i                                                   ",
"                                          %.5.,.4.6.-.*.8.l 5.1.r             *.8.*.;.g >.1.$.,.l ;.8.k 5.2.t                                                   ",
"                                          p 4.4.*.8.3.k 2.=.3.4.t             h 2.*.p d s x u $.g :.>.=.5.;.*                                                   ",
"                                z.H.J.n.h.& ;.5.;.1.8.k =.%.>.4.t               h d V.'.[.'._.B.> =.g ;.1.$.                                                    ",
"                                j W./.W.L.n.k 1.1.*.8.,.k $.z -.r               M.].$X#Xg.i.u.d.o.d : ;.:.;                                                     ",
"                                t 7.4.5.9.W.h =.2.%.;.:.d d N.Z.M.>           C.OX#X#X Xu.w.K K +.@.n k l o                                                     ",
"                                * >.2.,.4.8.:.g ;.=.a Z._.].$XOXOX].A.%     % XX@X+X|.r.w.w.w.w.e.Z O.b ;                                                       ",
"                                  k 2.1.=.2.5.%.l z S.}.g. X@X@X@X@X.X`.O   A. Xd.u.e.w.w.w.w.w.w.S Z B 2                                                       ",
"                                  * ;.4.1.$.1.1.a n s.r.w.i.p.g.d.p.u.f.D.% `.d.w.w.K K w.w.w.w.w.J V Z W                                                       ",
"                                    p >.5.>.l =.j o.y.w.w.w.w.e.e.e.w.e.|.V.{.e.w.K K J w.w.w.w.w.w.D B F 4                                                     ",
"                                      f >.2.=.r n +.t.w.w.w.w.w.w.w.w.w.r.s.X.t.K J Z M M M S L w.w.L B Z R                                                     ",
"                                        p =.;.j  .+.w.w.w.w.w.K H S L K e.i.D.Z K V W M Q 7 q 4 c V S B B Z                                                     ",
"                                          r $.d O.Z K w.w.w.J S M _ B K w.e.s.^ J K w.K K K H L _ 9 3 c ' V <                                                   ",
"                                            & 6 D Z K w.K J N Q _ S e.w.w.w.y.X.L w.w.w.w.w.w.K w.H V 8 2 ~ ,                                                   ",
"                                              T A C J K J M 7 M H w.w.w.w.w.e.o.^ w.w.w.w.w.w.w.w.w.K B Q 9 +                                                   ",
"                                              T Z V H J W 9 S K w.w.w.w.w.w.w.a. .w.w.w.w.w.w.w.w.K K Z V V e                                                   ",
"                                              T A B S ! 7 A K w.w.w.w.w.w.w.w.w.m P w.w.K w.w.w.w.w.K V B Z e                                                   ",
"                                              9 S N W w V K w.w.w.w.w.w.w.w.w.w.o.{ J w.K K K w.w.w.K V B N 1                                                   ",
"                                              4 C _ 8 M J w.w.w.w.w.K K J K w.w.i./ S C W M N N P K J V B Z .                                                   ",
"                                              # C T q A w.w.w.w.K K L B B H w.w.t. .A C N M 7 R 2 T N B B ] @                                                   ",
"                                                8 8 _ Z J w.w.w.K C W M S w.w.w.e.o.C K K K K K L ~ q 5 Q ~                                                     ",
"                                                @ E B B L w.w.K M 7 M H K w.w.w.K @._ K K w.K w.K K D w 2 <                                                     ",
"                                                  _ V B C I J ` w M K w.w.w.w.w.w.+.) J w.w.w.w.w.w.F B _ $                                                     ",
"                                                  3 ` V V D V 4 C K w.w.w.w.w.w.w.t.v K w.w.w.w.w.K A B ] +                                                     ",
"                                                    w V V ~ T C K w.w.w.w.w.w.w.w.w. .A w.w.w.w.w.K V V _                                                       ",
"                                                      ~ ] 8 T L w.w.w.w.w.w.w.w.w.w.| M w.w.K K w.J V V 9                                                       ",
"                                                      # T 8 ` D K w.w.w.w.K H J w.w.+./ A V S H K L B V $                                                       ",
"                                                        + c N V S w.w.w.K Z V S w.w.+.( F Z ' ! R ` M M                                                         ",
"                                                          2 B V B H w.H V B L w.w.w.e.( I w.w.J C T q 3                                                         ",
"                                                            q N B Z H N ' L w.w.w.w.e.) A w.w.w.K B R .                                                         ",
"                                                              q B B ' Q S w.w.w.w.w.w.} V w.w.w.J V !                                                           ",
"                                                                c _ q ` J w.w.w.w.w.w.#._ w.w.w.L N 8                                                           ",
"                                                                  1 T B L K w.w.w.w.w.O.^ w.w.w.F M #                                                           ",
"                                                                    2 ] V P w.w.w.w.w.Y v w.w.w.Z 7                                                             ",
"                                                                      8 _ C H K w.w.w.e./ J w.J B $                                                             ",
"                                                                        < ` A J w.w.w.w.v H w.I _                                                               ",
"                                                                          , R Z K w.w.w.^ F K A 8                                                               ",
"                                                                            $ 7 A J w.K { { K ] +                                                               ",
"                                                                                w N K w.{ ' J w                                                                 ",
"                                                                                  8 B P { ` V e                                                                 ",
"                                                                                    1 ! T ` T                                                                   ",
"                                                                                        @ 8                                                                     ",
"                                                                                                                                                                ",
"                                                                                                                                                                ",
"                                                                                                                                                                ",
"                                                                                                                                                                ",
"                                                                                                                                                                ",
"                                                                                                                                                                ",
"                                                                                                                                                                ",
"                                                                                                                                                                ",
"                                                                                                                                                                ",
"                                                                                                                                                                ",
"                                                                                                                                                                ",
"                                                                                                                                                                "
};
