/* XPM */
static char *_e677d2950284224d093887c0c06ab43mUyscOFXSXJt6dhT[] = {
/* columns rows colors chars-per-pixel */
"80 80 180 2 ",
"   c None",
".  c #2F1700",
"X  c #2A170C",
"o  c #2B190C",
"O  c #331A01",
"+  c #3A1F04",
"@  c #311F0B",
"#  c #3E2205",
"$  c #35230C",
"%  c #3B240A",
"&  c #3C2C0B",
"*  c #3F300A",
"=  c #432406",
"-  c #482707",
";  c #432609",
":  c #492708",
">  c #472B0D",
",  c #4C2B0B",
"<  c #522E0C",
"1  c #44330B",
"2  c #4B3409",
"3  c #443809",
"4  c #4B3A0D",
"5  c #4B3407",
"6  c #573D07",
"7  c #55320D",
"8  c #59340F",
"9  c #513B09",
"0  c #5D3A0E",
"q  c #422910",
"w  c #4E3412",
"e  c #543513",
"r  c #5D3510",
"t  c #573917",
"y  c #5D3A12",
"u  c #5B3B19",
"i  c #613611",
"p  c #633B13",
"a  c #693D14",
"s  c #613F1A",
"d  c #4D4007",
"f  c #5D4507",
"g  c #5B4409",
"h  c #584A0D",
"j  c #6B4F06",
"k  c #645208",
"l  c #6D530B",
"z  c #655407",
"x  c #755B05",
"c  c #7A5B06",
"v  c #74560A",
"b  c #765909",
"n  c #654013",
"m  c #6D4316",
"M  c #64431D",
"N  c #69441C",
"B  c #6D4A1F",
"V  c #724317",
"C  c #754619",
"Z  c #79471A",
"A  c #724818",
"S  c #7B4B1B",
"D  c #7F521D",
"F  c #7E6306",
"G  c #674620",
"H  c #684720",
"J  c #6C4A22",
"K  c #714E26",
"L  c #735027",
"P  c #765128",
"I  c #7A562B",
"U  c #7D592D",
"Y  c #824D1D",
"T  c #83531E",
"R  c #88511F",
"E  c #87581F",
"W  c #826604",
"Q  c #856905",
"!  c #8B6D03",
"~  c #8E7103",
"^  c #937502",
"/  c #957902",
"(  c #9B7C02",
")  c #814F20",
"_  c #815423",
"`  c #8A5521",
"'  c #855926",
"]  c #8B5A23",
"[  c #815C2F",
"{  c #8A5D29",
"}  c #955723",
"|  c #935E24",
" . c #9A5C25",
".. c #915D29",
"X. c #845E31",
"o. c #A15F28",
"O. c #956225",
"+. c #9A6327",
"@. c #93622B",
"#. c #9B642A",
"$. c #9C6A2D",
"%. c #866032",
"&. c #8B6536",
"*. c #8E6738",
"=. c #8F6838",
"-. c #926937",
";. c #9D6D32",
":. c #926A3A",
">. c #996F3A",
",. c #9B713E",
"<. c #A46429",
"1. c #A8672B",
"2. c #A46B2C",
"3. c #AB6D2D",
"4. c #AE732F",
"5. c #B1752F",
"6. c #B2782F",
"7. c #A46E32",
"8. c #A96E34",
"9. c #A37235",
"0. c #AC7233",
"q. c #A2753C",
"w. c #AD763A",
"e. c #A7793E",
"r. c #AB7A3C",
"t. c #B17632",
"y. c #B57B33",
"u. c #B87F36",
"i. c #B2773A",
"p. c #B57D3C",
"a. c #B97F3B",
"s. c #9E7541",
"d. c #A47A44",
"f. c #AA7E46",
"g. c #A97F48",
"h. c #B27C42",
"j. c #9F8001",
"k. c #A48401",
"l. c #A88701",
"z. c #AB8A01",
"x. c #B98037",
"c. c #B6813C",
"v. c #BC833D",
"b. c #C0873F",
"n. c #AE8149",
"m. c #B58142",
"M. c #BD8542",
"N. c #BE8944",
"B. c #B2864D",
"V. c #BB8648",
"C. c #B6894D",
"Z. c #BB8A4D",
"A. c #B78A51",
"S. c #BB8D52",
"D. c #BF9154",
"F. c #C08642",
"G. c #C28B45",
"H. c #C58E49",
"J. c #C98F49",
"K. c #C7924C",
"L. c #CA934E",
"P. c #C49354",
"I. c #CB9652",
"U. c #CC9A56",
"Y. c #C79759",
"T. c #C99559",
"R. c #C79859",
"E. c #CC9B5A",
"W. c #D19754",
"Q. c #D29A56",
"!. c #D39D5B",
"~. c #D89F5A",
"^. c #D3A15E",
"/. c #DAA25E",
"(. c #D5A461",
"). c #DCA563",
"_. c #DEA866",
"`. c #E1A765",
"'. c #E1A967",
"]. c #E5AB6A",
/* pixels */
"                                                                                                                                                                ",
"                                                                                                                                                                ",
"                                          O O + #                                                         # + + O                                               ",
"                                        O = < Z C a                                                     a C V : # O                                             ",
"                                        + < S 3.8.{ r                                                 i @.8.1.Z < +                                             ",
"                                        : Z 3.b.W.H...,                                             e @.K.I.v.3.m :                                             ",
"                                        : Z 3.b.!.Q.d.M                                             J h.~.W.v.3.a :                                             ",
"                                        : Z 3.b.~.).T.:.L                                         P ,.E.`.!.v.3.V :                                             ",
"                                        : Z 3.b.~.].].P.-.M                                     s >.T.].].!.v.3.V :                                             ",
"                                        : Z 3.b.~.].].).S.-.7                                 u >.P.).].].Q.v.3.a :                                             ",
"                                        : V <.v.~.].].].!.B._ a                             n { Z./.].].].W.a.#.a :                                             ",
"                                          a _ w.I.`.].].`.!.i._ y                         p ' a.~.`.].].`.I.0.) a                                               ",
"                                            r ..V./.].].].'.Q.8.S ,                     < D w.Q.`.].].]./.h...7                                                 ",
"                                            , p 7.I.'.].].'.~.F.#.Z 8                 r Z $.F.~.].].].].I.#.i                                                   ",
"                                              < ..G.).'.].`.`.I.a.+.C i             i S #.v.I.`.].].`./.F.] <                                                   ",
"                                              , ` p.T.).`.].].).I.p.| C 7         8 Z #.a.W.`.'.].'.).I.i._ :                                                   ",
"                                              : Z <.N.~._.].].'./.H.5.| Z 8 7 8 0 Z  .y.K./.'.].]._.!.h.+.C :                                                   ",
"                                                i P 7.P.).].].]./.W.v.4.+.R R R R +.4.b.W.`.].].]./.H.7.S r                                                     ",
"                                                  i ) h.U.).].].'./.J.x.5.1.1.1.3.5.v.L./.'.].'.`.W.h.K r                                                       ",
"                                                  - r #.M.!._.].].`.W.b.6.5.3.5.5.y.b.Q.'.].].`.Q.h.} <                                                         ",
"                                                    7 T 7.G.!._.'./.H.x.x.6.6.6.6.y.v.L./.].`.!.F.7.S <                                                         ",
"                                                    : a } i.J.~./.L.v.x.6.6.6.6.6.6.x.b.L./.!.G.i.` a :                                                         ",
"                                                      < S 8.v.L.L.x.x.x.x.y.x.x.x.x.6.x.b.U.K.v.1.Z <                                                           ",
"                                                      7 Y 5.p.v.v.x.x.b.J.J.J.J.J.J.v.v.y.v.v.t.8.Z 7                                                           ",
"                                                      8 E 6.y.x.x.v.b.^././././././.W.J.x.x.x.6.t.D 7                                                           ",
"                                                      8 E 6.y.x.b.J./.`.'.].].].].].).!.J.v.x.x.y.T 8                                                           ",
"                                                      8 E x.x.G.I.^.'.].].].].].].].].'.Q.I.G.v.y.D 8                                                           ",
"                                                      y E x.N.U./.'.'.].].].].].].].].].)./.I.v.y.T e                                                           ",
"                                                      8 ] x.G.Q.].].].].].].].].].].].].]._.Q.G.x.T 9                                                           ",
"                                                      8 E y.G./.].].].].].].].].].].].].].'.!.v.6.D 8                                                           ",
"                                                      8 T t.G./.].].].].].].].].].].].].].]./.G.4.D 7                                                           ",
"                                                      , A $.H.Q.'.].].].].].].].].].].].'./.U.N.#.C ,                                                           ",
"                                                        s ' M.G.W./.'.].].].].].].].].'./.I.G.h._ i                                                             ",
"                                                        7 A 0.u.b.L./.'.].].].].].].]./.L.v.y.7.N <                                                             ",
"                                                          r _ 2.x.v.L./.].].].].].]./.L.v.u.2.T r                                                               ",
"                                                          < a O.6.x.J./.].].].].].].~.G.y.4.] a :                                                               ",
"                                                            8 S | 2.v./.].].].].].].~.v.#.| S 8                                                                 ",
"                                                            - < i S p./.].].].].].].Q.w.Z r < -                                                                 ",
"                                                              # < C 6.N.L.L.Q.L.L.L.G.2.m <                                                                     ",
"                                                              % n ' v.b.J.J.J.J.G.K.G.p._ r #                                                                   ",
"                                                            > n { m.P.U.E.E.E.E.E.E.U.I.c.U g >                                                                 ",
"                                                          P s.n.Z.E.^.^.(.(.^.^.^.^.^.^.U.C.n.>.J                                                               ",
"                                                      e %.d.P.R.E.^.(.(.(.(.(.(.(.(.^.^.(.E.U.D.d.U                                                             ",
"                                                      U d.P.E.(.(.(.(.(.(.(.(.(.(.(.(.(.(.^.^.E.P.s.I                                                           ",
"                                                    H n.R.I.G.U.(.(.(.(.(.(.(.(.(.(.(.(.(.(.E.J.I.P.f.M                                                         ",
"                                                  e J S.E.K.x.K.U.(.(.(.(.(.(.(.(.(.(.(.^.E.N.v.P.E.n.M                                                         ",
"                                                  J :.P.K.v.6.v.I.(.(.(.(.(.(.(.(.(.(.(.(.I.v.6.v.I.D.*.H                                                       ",
"                                                y X.R.P.v.7.<.a.I.(.(.(.(.(.(.(.(.(.(.(.(.I.x.$.7.v.P.P.U t                                                     ",
"                                                u [ I.v.#.Y A 9.P.(.(.(.(.(.(.(.(.(.(.(.(.K.7.A T 2.v.I.I t                                                     ",
"                                              t &.n.L.i.| Z n 9.I.(.(.(.(.(.(.(.(.(.(.(.(.K.$.n Z +.c.I.g.%.e                                                   ",
"                                              u d.I.G.0.Y p p 9.I.(.(.R.A.d.d.d.n.A.R.(.(.K.-.p p T 0.G.I.s.u                                                   ",
"                                              u q.N.4.` 0 # 0 ;.P.(.(.n.I ; ; ; 1 U C.(.(.K.;.y + r | 0.G.,.u                                                   ",
"                                              u d.N.4.+.a - 0 9.L.^.n.*.&.n.B.B.n.&.-.n.(.P.$.g = V +.5.H.>.u                                                   ",
"                                              u d.N.4.<.Z > N d.K.n.&.,.B._._.'.(.n.>.:.A.D.,.n   Y 1.4.H.>.u                                                   ",
"                                            t L f.G.4.1.Z   J B.S.*.U n._.].].].]._.d.U =.D.n.H   Y 1.5.H.d.K                                                   ",
"                                  o o o o q J P.I.G.4.<.Z , J A.D.*.U n._.].].].]._.d.U *.S.n.G   Y 1.5.G.U.A.N                                                 ",
"                                @ & 1 1 1 w K T.U.G.5.+.p ; J n.A.*.U n._._._._._._.n.U :.D.n.M + m +.t.H.E.S.N w                                               ",
"                              $ & * 1 1 4 w G V.M.a.3.] r % J A.D.*.U n.(._.(._._.(.s.U :.D.n.M + i | 4.h.F.h.s ,                                               ",
"                            $ $ 4 & X o X % r  .<.o.o.Y 7 % J n.D.s.U s.E._._._._.E.,.%.,.R.n.M + r R o.<.o.} < -                                               ",
"                          o & * $         ; r }  . . .Y < % H C.^.D.s.*.d.^.(.(.E.,.:.,.R.(.n.M + r Y  .o. .} 8                                                 ",
"                        o & & %             < p a a a i : ; J n.(.^.S.n.d.N.M.N.N.c.n.S.(.(.g.H % : i a a p p :                                                 ",
"                        $ 3 * o               O . . . .     J A.(.(.E.K.c.2.] O.2.c.D.E.(.(.g.J     . O . O O                                                   ",
"                        $ 1 * o                             J n.(.(.I.x.$.A , 2 S 2.M.I.(.(.g.H                                                                 ",
"                      $ 4 3 & X                           w J C.(.(.K.9.D - + + , D r.U.(.(.g.J                                                                 ",
"                    o & h d 1 $ ;                       % > J C.(.(.U.;.n $ O O # m ;.U.(.(.n.H                                                                 ",
"                    @ & z k h e 9 9 2 2 w 1 2 2 2 2 4 4 5 7 J B.(.^.I.;.n $     # A 9.I.(.(.n.G                                                                 ",
"                    @ 9 / ( ( ( k.k.( ! ! ~ ^ ~ ! ~ / k.! b J C.(.^.I.;.m O     # A 9.U.(.(.n.J                                                                 ",
"                    $ 6 / k.k.k.k.z.l./ / j.l.j.( ( k.l.~ b J B.(.^.P.;.m #     # B 9.I.(.^.n.H                                                                 ",
"                      4 b / ( ^ ~ ( ( / / ( k.j.( / / j.Q l J B.(.(.I.;.m +     # A 9.I.^.(.n.M                                                                 ",
"                        % W / ^ ^ ( ( / / / ( ( ( / ( / W l J B.(.(.I.$.m +     # A 9.I.(.(.n.B                                                                 ",
"                        $ Q j.( ( j.( / / / j.( ( ( ( j.Q l J C.(.E.K.$.m O     * A ;.L.^.^.n.J                                                                 ",
"                        $ Q j.k.j.j.j.j.j.j.j.j.j.j.j.j.~ b J C.^.U.v.#.A O     # A $.b.E.^.n.J                                                                 ",
"                        % b ^ l.k.k.k.k.j.k.k.k.k.k.k.k.~ b J B.E.K.y.O.A +     # A #.x.K.E.n.J                                                                 ",
"                          1 b z.l.l.k.z.l.k.k.l.l.l.l.l.~ x J B.E.K.x.O.m O     # A +.x.K.E.n.J                                                                 ",
"                          % j ( l.l.z.z.z.z.l.z.z.z.z.z.^ c B n.L.G.y.| m O     = A O.u.Z.U.q.H                                                                 ",
"                            g F z.z.z.z.z.z.z.z.z.z.z.z.^ c N 9.G.i.5.] n +     # m | 0.x.N.;.N                                                                 ",
"                            & 9 k.z.z.z.z.z.l.l.z.z.l.k.^ c n O.4.1.<.R p +     # a ` <.3.4.O.0                                                                 ",
"                              4 W F F Q W F Q Q Q Q W F x j 0 D ` Y Y C i         0 Z Y Y ` Z 8                                                                 ",
"                                f g g f f f n h g g g g g 6 5 p p i i 8           < 8 i r p y                                                                   ",
"                                X X X o X o o X X X X X         . . O                 . . O                                                                     "
};
