/* XPM */
static char *_faced8270054f66b44cdde7370960d0wAYjsrqta9rIy7vV[] = {
/* columns rows colors chars-per-pixel */
"80 80 226 2 ",
"   c None",
".  c #10141F",
"X  c #2D1C0B",
"o  c #2D1705",
"O  c #341B02",
"+  c #381C02",
"@  c #241913",
"#  c #3F2205",
"$  c #35240A",
"%  c #3B240A",
"&  c #3C2B0A",
"*  c #392A05",
"=  c #3D3005",
"-  c #3D2C11",
";  c #191A21",
":  c #222227",
">  c #352F2B",
",  c #541F13",
"<  c #442407",
"1  c #472608",
"2  c #492709",
"3  c #442B0A",
"4  c #4C2A0A",
"5  c #432E06",
"6  c #522E0C",
"7  c #443306",
"8  c #43320C",
"9  c #4A350B",
"0  c #4C3B0C",
"q  c #4B3806",
"w  c #55320D",
"e  c #59330E",
"r  c #543E0C",
"t  c #543A09",
"y  c #473413",
"u  c #543615",
"i  c #5D3610",
"p  c #5C3913",
"a  c #583C16",
"s  c #512D12",
"d  c #633B13",
"f  c #693D14",
"g  c #623A14",
"h  c #6A3815",
"j  c #554204",
"k  c #5B4605",
"l  c #5E4805",
"z  c #574008",
"x  c #5A4609",
"c  c #594419",
"v  c #634D04",
"b  c #674B0A",
"n  c #6D5405",
"m  c #6C5404",
"M  c #735A06",
"N  c #765C05",
"B  c #6B4316",
"V  c #64421C",
"C  c #6C431B",
"Z  c #6A451A",
"A  c #714317",
"S  c #73451B",
"D  c #7A471B",
"F  c #754B1A",
"G  c #7C4C1C",
"H  c #704817",
"J  c #7D521E",
"K  c #7E6305",
"L  c #4F4237",
"P  c #5A4838",
"I  c #6A4A22",
"U  c #7D4E21",
"Y  c #704E25",
"T  c #7D5423",
"R  c #7A562B",
"E  c #7D5B2D",
"W  c #775327",
"Q  c #7B5B33",
"!  c #6B5222",
"~  c #7E612E",
"^  c #353A44",
"/  c #474E57",
"(  c #695441",
")  c #7A7C7D",
"_  c #7A726C",
"`  c #526072",
"'  c #89352A",
"]  c #A53C3A",
"[  c #804C1C",
"{  c #84511E",
"}  c #846903",
"|  c #8A6E04",
" . c #816604",
".. c #8D7104",
"X. c #937603",
"o. c #967902",
"O. c #9B7D02",
"+. c #845422",
"@. c #8A5522",
"#. c #845926",
"$. c #8C5A24",
"%. c #845B2C",
"&. c #8C5D2A",
"*. c #945C25",
"=. c #9A5B25",
"-. c #925A27",
";. c #875E33",
":. c #955C33",
">. c #B35535",
",. c #8C612C",
"<. c #956126",
"1. c #94642C",
"2. c #9A642B",
"3. c #9B692A",
"4. c #9C6627",
"5. c #8B6333",
"6. c #886537",
"7. c #9D6C34",
"8. c #936C3B",
"9. c #966735",
"0. c #9C723E",
"q. c #9F7136",
"w. c #A46429",
"e. c #A96B2C",
"r. c #A46B2B",
"t. c #AD722E",
"y. c #A6712B",
"u. c #A56C35",
"i. c #AB6D32",
"p. c #A57134",
"a. c #AC7433",
"s. c #A1733B",
"d. c #AC763A",
"f. c #AB7939",
"g. c #B17433",
"h. c #B47B33",
"j. c #B3763A",
"k. c #B37B3A",
"l. c #BC7C3D",
"z. c #B37130",
"x. c #C37237",
"c. c #9C7641",
"v. c #9A7A58",
"b. c #906B47",
"n. c #A67A44",
"m. c #AA7C42",
"M. c #A77744",
"N. c #B37D43",
"B. c #BA7E42",
"V. c #8C7D6E",
"C. c #C1734A",
"Z. c #9E8002",
"A. c #A38301",
"S. c #A88700",
"D. c #AC8B00",
"F. c #B18E00",
"G. c #B39000",
"H. c #B7803B",
"J. c #BA813A",
"K. c #AD834C",
"L. c #B48244",
"P. c #BC8443",
"I. c #BE8945",
"U. c #B3844C",
"Y. c #BB8A4B",
"T. c #BB8749",
"R. c #BB8C52",
"E. c #B6825A",
"W. c #B38754",
"Q. c #AC8457",
"!. c #BC8A67",
"~. c #B6946F",
"^. c #C18B44",
"/. c #C18749",
"(. c #C48B4A",
"). c #C48747",
"_. c #C6914C",
"`. c #CB914E",
"'. c #C48E53",
"]. c #C39253",
"[. c #CC9553",
"{. c #CD9855",
"}. c #CD9C5B",
"|. c #C4955B",
" X c #D09454",
".X c #D29956",
"XX c #D39C5B",
"oX c #D99E5B",
"OX c #D99255",
"+X c #D58758",
"@X c #D3A05E",
"#X c #DAA15E",
"$X c #C49566",
"%X c #C99968",
"&X c #CB9B72",
"*X c #D5A261",
"=X c #DCA563",
"-X c #DEA866",
";X c #DDA769",
":X c #C8A27D",
">X c #DCAC7B",
",X c #D5A777",
"<X c #E1A665",
"1X c #E3A967",
"2X c #E5AB69",
"3X c #E4AD71",
"4X c #E7B275",
"5X c #929599",
"6X c #959FAA",
"7X c #C79C81",
"8X c #CFA888",
"9X c #CCA38A",
"0X c #D3AA88",
"qX c #DAB08B",
"wX c #D2AE97",
"eX c #D6B29C",
"rX c #D5B492",
"tX c #E6BC8D",
"yX c #C2BEB8",
"uX c #EBC08F",
"iX c #DBCEBF",
"pX c #EED5B8",
"aX c #ADBFD3",
"sX c #B3C3D5",
"dX c #D2D9E1",
"fX c #F1EAE2",
/* pixels */
"                                                                                      O o o             O o                                                     ",
"                                                                                    i d d i 6       O < w g e                                                   ",
"                                                                                  g G @.@.[ d 2   < 1 e J #.[ s                                                 ",
"                                                                                i T u.d.e.=.f 2 < d D $.r.H.9.a                                                 ",
"                                                                                i $.B.B.z.=.f e g -.d.P.).{.M.a                                                 ",
"                                                                                g -.(./.j.=.f g G N.[.#X#X=XU.g                                                 ",
"                                                                                f 1.`.).j.=.f A 1.(.=X2X2X2XU.I                                                 ",
"                                                                              e { a.`.C.j.=.f A 1.`.=X2X2X2XU.C                                                 ",
"                                                                            4 f 2.P.{.).i.@.S &.f..X;X;X;X2XN.I                                                 ",
"                                                                            w F f.`.#X(.2.S ;.m.%X=X,X>X,X,XN.I                                                 ",
"                                                                            -.u. X*X=X(.:.C :.R.-X>XqX8X%XXXm.g                                                 ",
"                                                                            i.P..X*X{.l.-.f 6.|.>XqXqX:XR.m.5.a                                                 ",
"                                                                            u.B..X{.B.i.@.S 9.$XqXeX8X$XN.+.g                                                   ",
"                                                                          < e $.k.l.g.w.=.=.N.%XqXeX9X!.N.U s                                                   ",
"                                                                      O o 1 d *.y.a.e.w.w.i.'.,XeXeX9X!.M.h 6                                                   ",
"                                                                    1 1 1 e [ r.e.r.w.w.e.j.$X9XeXeX7X!.9.C 4                                                   ",
"                                                                  e D @.@.*.=.w.w.w.w.e.t.H.$X8XeXeX&Xb.g 6                                                     ",
"                                                                i [ =.e.j.P.(.).l.i.w.e.z.h.$X8XeX9X$X9.i 2                                                     ",
"                                                              g D w.g.). X#X-X=X[.l.e.t.h.H.$X8XwX7XN.:.e 2                                                     ",
"                                                            6 G w.j. X<X2X2X2X2X-X{.I.h.h.H.$X8XwX9XC.:.s 2                                                     ",
"                                                            w [ z.P..X2X2X2X2X2X-XXX(.^._.{.,X8X7Xv.:.C 2                                                       ",
"                                                            i +.j.N.M.v.E.*X2X2X1X*X[.{.#X2X>X,XC.b.S 6                                                         ",
"                                                            p 1.L.b.> ; P W.2X2X1X2X-X-X1X2X1X XM.i 2                                                           ",
"                                                            V ;.6.> . . : ( Q.1X2X1X2X1X2X2X2X XM.h 2                                                           ",
"                                                          g 5.8.Q @ ; ^ ` _ ~.;X2X2X2X2X2X2X2XOXu.g 4                                                           ",
"                                                        i G P.L.;.% L ) aXyXwX;X2X2X2X2X2X4X1X.Xu.g 4                                                           ",
"                                                      e +.M.oXR.b.$ L ) aXiXrX1X2X2X2X2X2X2X2XOXu.f 4                                                           ",
"                                                    4 U s. X<X|.b.> / 5XdXiXtX2X2X2X2X2X2X2X2XOXu.g 4                                                           ",
"                                                  2 i 2.'.<X2X%XV.^ ` 6XfXpXuX1X2X2X2X2X2X2X=XT.:.e                                                             ",
"                                                  4 g u. X2X2X1X%XV.~.6XiXtX3X2X2X2X2X2X2X#X`.3.f                                                               ",
"                                                  4 i u. X<X<X<X=X%X%X:XtX4X2X2X2X2X2X1XoX`.k.+.e                                                               ",
"                                                  2 e :.C.+XOXOXXX-X2X2X2X2X2X2X2X2X1X#X`.l.=.A w                                                               ",
"                                                    , ' ] >.x.x.).=X1X2X2X2X2X2X2X2X<X`.k.=.f 6                                                                 ",
"                                                      h ' >.z.l.`.-X2X2X2X2X2X2X1X#X`.g.*.B 6                                                                   ",
"                                                      6 A =.r.P.{.<X1X1X<X<X1X<XXX(.j.*.B 6                                                                     ",
"                                                          d 9.N.]..XoXoXoXoXoX.X/.p.{ A 6 +                                                                     ",
"                                                            p C $.u.k.l.l.k.u.2.$.F d A d 6                                                                     ",
"                                                              < e G *.4.w.*.+.F F F G { D g                                                                     ",
"                                                                  w C [ G D F I R 4.e.w.{ i                                                                     ",
"                                                                    g h I %.c.R.L.r.<.4.[ d                                                                     ",
"                                                                    +.&.8.K.R.}.H.5.J #.G d 2                                                                   ",
"                                                                    j./.*X*X|.K.6.Q W T F B w                                                                   ",
"                                                                    j.Y.*X@XY.,.5.8.U.,.F H g w                                                                 ",
"                                                                    j./.*X].m.R 6.L.I.E F H d w                                                                 ",
"                                                                    j./.*XW.9.T 0.Y.I.J H F B w                                                                 ",
"                                                                    j./.*Xn.6.E R.{.I.J H J B w                                                                 ",
"                                                                    j./.*Xn.;.%.U.].H.J H F b u                                                                 ",
"                                                                    j.Y.}.c.6.5.Y.I.p.J F J B t                                                                 ",
"                                                                    j.L.W.8.6.n.Y.H.<.F { { B u                                                                 ",
"                                                                    u.u.8.0.m.].I.y.F F <.r.H t                                                                 ",
"                                                                    +.&.8.m.Y._.H.,.F J 3.y.H w                                                                 ",
"                                                                # 6 Z %.n.Y._.h.4.#.~ 3.y.y.H w       + + +                                                     ",
"                                                            u Y R E 5.n.].I.k.<.#.,.n.H.H.y.H w < I R E %.R Y                                                   ",
"                                                      $ & - a %.0.s.m.T.(.k.1.G #.0.].].I.y.F r a 8.M.U.W.N.c.E                                                 ",
"                                                  $ = & y y a 1.^.^.I.J.k.1.G Z 9.Y.*X}._.h.H Z %.R.*X2X3X<X%Xn.Y                                               ",
"                                              - y - $ & - 0 g &.h.g.a.e.*.A t r 5.U.*X*X[.H.! F 9.].=X1X2X2X=X{.R u                                             ",
"                                            = & y - X $     w F @.{ { [ B w 5 7 R K.*X*X}.Y.,.J ,.L.{.=X2X-X;X}.R a                                             ",
"                                          = = = = - X         i i e e e s 3 * 7 ! c.}.*X@X].H.#.F 3.Y.#X-X-X=X@XR u                                             ",
"                                        X = 7 = & $             # + 4 e F d 9 5 c ~ K.@X*X@XI.,.H J H.@X-X=X*X}.R u                                             ",
"                                        $ q j 7 $ X                 w B -.+.B u y ! c.}.-X@X_.,.Z { f._.{.}.|.n.Y                                               ",
"                                        8 v n c 9 & &               e A w.w.+.V 8 a ~ R.*X*X/.&.B H <.p.f.L.s.E I                                               ",
"                                      9 n ..o.| K n x & X           6 S 4.w.1.H 8 8 c b.R.@XC.+.w 9 t d d V V u                                                 ",
"                                    0 x } X.O.X.X...| M v r       o s A w.w.*.C 9 & y Q W.@XP.$.e < 3 4 4 u                                                     ",
"                                    q x | o.o.X.O.A.A.X.K M v q 3 + 2 g @.=.@.a 8 & 8 Q K.XXT.$.e +                                                             ",
"                                    3 z | o.o.X.o.Z.A.A.o.X.| N b & % s C S f % - = y R K.@X_.,.t                                                               ",
"                                    0 v ..O.O.X.o.O.O.O.O.O.O.X.} M n b b d 4 $ 3 8 9 ~ K.@X{.8.Z                                                               ",
"                                    j v X.A.A.O.o.O.O.o.O.A.S.Z.o.X...| | M b t j j z Q K.#X@Xm.T w                                                             ",
"                                    j m o.A.A.O.Z.O.O.O.O.O.O.O.O.o.O.S.D.O.X. .n x 0 Q W.*X*X_.q.Z                                                             ",
"                                    j v O.S.D.O.A.A.Z.Z.O.O.O.o.X.O.O.O.O.O.O.A...M z Q W.=X*X@XL.Y u                                                           ",
"                                    7 j } O.D.S.S.A.A.Z.O.Z.O.o.o.O.O.X.o.O.O.O...n t W n.{.XX@XR.&.Z                                                           ",
"                                    $ 7 v X.D.D.S.S.A.A.A.Z.Z.O.O.O.O.O.X.o.O.X.K x 8 Z 1.H._.@X}.d.G 6                                                         ",
"                                      3 t ..F.D.D.D.D.S.S.A.A.A.A.A.O.O.O.O.| n x =   9 F 1.I.}.}.N.U 6                                                         ",
"                                        j | D.D.D.D.F.D.D.S.S.S.A.A.A.A.S.o.} l         p F q.I.{._.7.T w                                                       ",
"                                        k K X.O.S.F.G.D.D.D.D.S.S.S.S.S.S.| m 7           9 J f._.[.P.3.i                                                       ",
"                                          9 r M | A.D.D.D.D.D.D.D.S.D.Z. .l 5 X           2 F 3.H.H.k.3.i 9                                                     ",
"                                              k v n  .o.S.D.F.F.D.D.O.K l 7 $             1 F 3.h.H.z.<.e 2                                                     ",
"                                                & 7 l M K | O.S.S.O. .v 7 $               1 F 4.h.t.z.@.w 2                                                     ",
"                                                      $ $ 9 v K ..N z                     1 F 4.h.y.e.{ e 2                                                     ",
"                                                          $ 7 9 x k                         w p d e e w 2                                                       ",
"                                                            X $ *                             + + + + +                                                         "
};
