/* XPM */
static char *_91d89706ed94e97982fcd8f9cc43ae8QRcRbkZzF91NlfZF[] = {
/* columns rows colors chars-per-pixel */
"80 80 226 2 ",
"   c None",
".  c #10141F",
"X  c #2D1C0B",
"o  c #2D1705",
"O  c #341B02",
"+  c #381C02",
"@  c #241913",
"#  c #3F2205",
"$  c #35240A",
"%  c #3B240A",
"&  c #3C2B0A",
"*  c #392A05",
"=  c #3D3005",
"-  c #3D2C11",
";  c #191A21",
":  c #222227",
">  c #352F2B",
",  c #541F13",
"<  c #442407",
"1  c #472608",
"2  c #492709",
"3  c #442B0A",
"4  c #4C2A0A",
"5  c #432E06",
"6  c #522E0C",
"7  c #443306",
"8  c #43320C",
"9  c #4A350B",
"0  c #4C3B0C",
"q  c #4B3806",
"w  c #55320D",
"e  c #59330E",
"r  c #543E0C",
"t  c #543A09",
"y  c #473413",
"u  c #543615",
"i  c #5D3610",
"p  c #5C3913",
"a  c #583C16",
"s  c #512D12",
"d  c #633B13",
"f  c #693D14",
"g  c #623A14",
"h  c #6A3815",
"j  c #554204",
"k  c #5B4605",
"l  c #5E4805",
"z  c #574008",
"x  c #5A4609",
"c  c #594419",
"v  c #634D04",
"b  c #674B0A",
"n  c #6D5405",
"m  c #6C5404",
"M  c #735A06",
"N  c #765C05",
"B  c #6B4316",
"V  c #64421C",
"C  c #6C431B",
"Z  c #6A451A",
"A  c #714317",
"S  c #73451B",
"D  c #7A471B",
"F  c #754B1A",
"G  c #7C4C1C",
"H  c #704817",
"J  c #7D521E",
"K  c #7E6305",
"L  c #4F4237",
"P  c #5A4838",
"I  c #6A4A22",
"U  c #7D4E21",
"Y  c #704E25",
"T  c #7D5423",
"R  c #7A562B",
"E  c #7D5B2D",
"W  c #775327",
"Q  c #7B5B33",
"!  c #6B5222",
"~  c #7E612E",
"^  c #353A44",
"/  c #474E57",
"(  c #695441",
")  c #7A7C7D",
"_  c #7A726C",
"`  c #526072",
"'  c #89352A",
"]  c #A53C3A",
"[  c #804C1C",
"{  c #84511E",
"}  c #846903",
"|  c #8A6E04",
" . c #816604",
".. c #8D7104",
"X. c #937603",
"o. c #967902",
"O. c #9B7D02",
"+. c #845422",
"@. c #8A5522",
"#. c #845926",
"$. c #8C5A24",
"%. c #845B2C",
"&. c #8C5D2A",
"*. c #945C25",
"=. c #9A5B25",
"-. c #925A27",
";. c #875E33",
":. c #955C33",
">. c #B35535",
",. c #8C612C",
"<. c #956126",
"1. c #94642C",
"2. c #9A642B",
"3. c #9B692A",
"4. c #9C6627",
"5. c #8B6333",
"6. c #886537",
"7. c #9D6C34",
"8. c #936C3B",
"9. c #966735",
"0. c #9C723E",
"q. c #9F7136",
"w. c #A46429",
"e. c #A96B2C",
"r. c #A46B2B",
"t. c #AD722E",
"y. c #A6712B",
"u. c #A56C35",
"i. c #AB6D32",
"p. c #A57134",
"a. c #AC7433",
"s. c #A1733B",
"d. c #AC763A",
"f. c #AB7939",
"g. c #B17433",
"h. c #B47B33",
"j. c #B3763A",
"k. c #B37B3A",
"l. c #BC7C3D",
"z. c #B37130",
"x. c #C37237",
"c. c #9C7641",
"v. c #9A7A58",
"b. c #906B47",
"n. c #A67A44",
"m. c #AA7C42",
"M. c #A77744",
"N. c #B37D43",
"B. c #BA7E42",
"V. c #8C7D6E",
"C. c #C1734A",
"Z. c #9E8002",
"A. c #A38301",
"S. c #A88700",
"D. c #AC8B00",
"F. c #B18E00",
"G. c #B39000",
"H. c #B7803B",
"J. c #BA813A",
"K. c #AD834C",
"L. c #B48244",
"P. c #BC8443",
"I. c #BE8945",
"U. c #B3844C",
"Y. c #BB8A4B",
"T. c #BB8749",
"R. c #BB8C52",
"E. c #B6825A",
"W. c #B38754",
"Q. c #AC8457",
"!. c #BC8A67",
"~. c #B6946F",
"^. c #C18B44",
"/. c #C18749",
"(. c #C48B4A",
"). c #C48747",
"_. c #C6914C",
"`. c #CB914E",
"'. c #C48E53",
"]. c #C39253",
"[. c #CC9553",
"{. c #CD9855",
"}. c #CD9C5B",
"|. c #C4955B",
" X c #D09454",
".X c #D29956",
"XX c #D39C5B",
"oX c #D99E5B",
"OX c #D99255",
"+X c #D58758",
"@X c #D3A05E",
"#X c #DAA15E",
"$X c #C49566",
"%X c #C99968",
"&X c #CB9B72",
"*X c #D5A261",
"=X c #DCA563",
"-X c #DEA866",
";X c #DDA769",
":X c #C8A27D",
">X c #DCAC7B",
",X c #D5A777",
"<X c #E1A665",
"1X c #E3A967",
"2X c #E5AB69",
"3X c #E4AD71",
"4X c #E7B275",
"5X c #929599",
"6X c #959FAA",
"7X c #C79C81",
"8X c #CFA888",
"9X c #CCA38A",
"0X c #D3AA88",
"qX c #DAB08B",
"wX c #D2AE97",
"eX c #D6B29C",
"rX c #D5B492",
"tX c #E6BC8D",
"yX c #C2BEB8",
"uX c #EBC08F",
"iX c #DBCEBF",
"pX c #EED5B8",
"aX c #ADBFD3",
"sX c #B3C3D5",
"dX c #D2D9E1",
"fX c #F1EAE2",
/* pixels */
"                                            o O             o o O                                                                                               ",
"                                          i p t # o       6 d d f e                                                                                             ",
"                                        w G $.G e 1 1   2 g [ @.$.T d                                                                                           ",
"                                        a 9.k.r.{ D g < 1 h =.i.g.u.U w                                                                                         ",
"                                        g M.[.(.I.d.&.g e f =.z.B.B.$.i                                                                                         ",
"                                        V U.-X=X#X[.N.{ f f =.j.).(.&.d                                                                                         ",
"                                        V U.2X2X2X#X`.&.A f =.j.).`.1.f                                                                                         ",
"                                        I U.2X2X2X=X`.1.A f =.g.).`.p.{ e                                                                                       ",
"                                        I U.2X2X3X;X XM.%.S @.i.). XC.3.d 6                                                                                     ",
"                                        I N.1X,X>X,X=X}.N.;.S 2.(.#X`.f.F u                                                                                     ",
"                                        a n.XX$X8X0X>X;XR.5.C -.(.*X#X`.u.-.                                                                                    ",
"                                        a ;.m.'.9X0XqX>X|.9.f -.B.{.#X@XP.i.                                                                                    ",
"                                          g +.B.$X9XeXqX$X9.S @.i.P.[.{.P.u.                                                                                    ",
"                                          s S N.!.9XeXqX&XN.=.=.w.a.l.k.#.i <                                                                                   ",
"                                          6 I M.$X9XeXeX,XR.e.w.w.e.z.e.*.d < o O                                                                               ",
"                                          4 f b.C.9XeXeX8X$Xk.e.w.w.e.e.r.G i 2 1 1                                                                             ",
"                                            6 f b.&XeXeX9X$Xl.t.w.w.w.w.w.=.=.@.@.D e                                                                           ",
"                                            1 i ;.!.9XeX0X$XH.t.e.w.i.N.).(.B.j.e.=.[ i                                                                         ",
"                                            1 6 :.!.7XwX8X$XB.a.z.i.B.[.=X<X#X[.C.g.w.D g                                                                       ",
"                                            1 e :.N.7XwX8X$Xl.h.h.)..X<X2X2X1X2X1X.Xl.w.G 6                                                                     ",
"                                              2 f :.!.7X8X,X.X`.^.^.@X1X2X2X2X2X1X.X).e.[ w                                                                     ",
"                                                4 S :.E.&X>X2XoX.X`.#X1X2X2X*XW.n.v.L.j.+.w                                                                     ",
"                                                  4 g u. X2X2X1X-X-X1X2X2X2XQ.P ; > b.L.,.p                                                                     ",
"                                                  6 g i. X2X2X2X2X1X2X2X2XQ.( : . ; > Q ;.I                                                                     ",
"                                                  4 g u. X2X2X2X2X1X2X2X2X~._ ` ^ : @ Q b.,.p                                                                   ",
"                                                  4 g u. X2X2X2X2X2X2X2X2XrXyXaX) L # 5.L.L.U p                                                                 ",
"                                                  2 g i. X2X2X2X2X2X2X2X2XrXyXaX) L $ 6.'.XXj.+.e                                                               ",
"                                                  2 g u. X2X2X2X2X2X2X2X2XrXiXdX5X/ > b.|.1X Xs.U 6                                                             ",
"                                                    g -.T.<X2X2X2X2X2X2X2XuXpXfX6X` / V.%X2X;X`.3.i 1                                                           ",
"                                                      B 2.`.#X2X2X2X2X2X2X4XuXpX5X~.V.~.1X2X2X[.p.p 4                                                           ",
"                                                      e +.k.`.#X2X2X2X2X2X2X4XuX:X~.%X=X<X<X<X+Xu.i 4                                                           ",
"                                                      6 A *.k.`.<X2X2X2X2X2X2X1X2X2X;XoXOXOX+XC.:.e 2                                                           ",
"                                                        e f *.h.`.<X1X2X2X2X2X2X2X2X=X/.x.x.>.] ' ,                                                             ",
"                                                          6 f *.h.`.#X1X2X2X2X2X2X2X<X`.x.z.w.' h                                                               ",
"                                                            6 A =.h._.XX<X<X<X1X<X<X<X XP.u.@.A e                                                               ",
"                                                            + 6 A { y.)..XoXoXoXoXoXoX'.N.1.f                                                                   ",
"                                                            6 d A d F &.2.u.k.J.J.k.u.#.S a                                                                     ",
"                                                            g D @.D F F D @.*.w.4.*.G i 1                                                                       ",
"                                                            g { w.e.2.#.I S F G G A w                                                                           ",
"                                                            i [ 4.<.7.m.R.c.%.C f g                                                                             ",
"                                                          4 d G $.J 5.n.|.R.K.0.,.+.                                                                            ",
"                                                          w B F T W E 8.K.|.@X@XY.k.                                                                            ",
"                                                        6 d A F ,.Y.0.%.5.Y.@X*X/.j.                                                                            ",
"                                                        w d F F E Y.m.5.W f.|.*XY.j.                                                                            ",
"                                                        e B J H J I.U.0.T 8.U.*X/.j.                                                                            ",
"                                                        t b F F J I.[.R.~ 5.n.*X/.j.                                                                            ",
"                                                        w B F H J H.[.R.,.,.c.*X/.j.                                                                            ",
"                                                        t B J F F p.I.Y.6.6.c.}.T.j.                                                                            ",
"                                                        w H ,.J F $.f.I.n.5.8.U.N.j.                                                                            ",
"                                                        w H 4.$.F G p.I.Y.K.8.8.7.u.                                                                            ",
"                                                        w H y.3.{ F 1.H._.Y.K.8.&.+.                                                                            ",
"                                            + + +       t H y.a.3.E #.3.H._.Y.n.%.C 6 %                                                                         ",
"                                          Y E E E R I + 6 F y.H.H.K.,.{ =.k.Y.].M.9.R R Y u                                                                     ",
"                                        E c.U.U.U.n.8.a i F y.I.].R.0.,.G 2.k.(.U.m.0.s.%.a - % -                                                               ",
"                                      Y n.}.2X2X2X*XW.E V F f._.@X@XY.9.B G <.k.J.I.^.^.1.c y 8 & * *                                                           ",
"                                    u R |.=X2X2X2X=X[.9.U F H.[.@X@XK.5.r p B <.e.g.t.h.$.a u 8 & $ - y -                                                       ",
"                                    a R *X-X1X1X-X}.H.,.T &.T.}.*X*XK.! 7 7 9 B G { { { D e     $ $ - - & *                                                     ",
"                                    u R %X*X-X-X#XY.1.F #.f.[.*X*X@XK.! = = 3 s e e e g e         X - = = = =                                                   ",
"                                    u R }.*X=X-X@XH.{ H ,.^.XX=X}.K.~ c 5 9 g F i 4 + <             $ * = = = X                                                 ",
"                                      Y K._.}.{._.f.{ B &.(.*X;X}.c.! - 0 Z +.*.B 6                 X $ 0 j 0 $                                                 ",
"                                      V E s.L.f.y.<.F d #.(.#X*XR.6.a 8 V $.2.w.A e               - = 9 x n b 8                                                 ",
"                                        u V V d c e 9 e @./.@XR.b.c 8 3 C <.w.w.S 6           @ - x n K ..X...n 9                                               ",
"                                            u 4 4 1 < e #.P.@XK.~ y & y C *.w.w.S s o       z b M ..X.X.X.o.X. .x 9                                             ",
"                                                    + e $.T.}.K.Q 8 & 8 p @.=.@.g 3 + & q v M  ...S.Z.O.X.o.o...l q                                             ",
"                                                      i ,.^.@XK.Q - & - & d D S 2 % 3 x N | X.o.O.S.Z.o...o.o.| j 5                                             ",
"                                                      V 7.[.*XK.~ 0 = = $ s x H b n M | o.O.O.O.O.O.O.o.o.O.Z...l t                                             ",
"                                                    w T K.@X*XK.~ 0 z x r l M } | | ..o.Z.S.Z.O.o.O.O.O.o.A.A.X.v j                                             ",
"                                                    V q.Y.=X=XW.~ y x N } X.A.D.S.A.o.o.O.O.O.O.O.O.O.O.O.A.S.X.m j                                             ",
"                                                  u F U.}.#X=XK.E r M ..A.A.O.O.O.O.o.o.o.O.O.O.O.O.A.A.A.S.S.o.v j                                             ",
"                                                  V 5.].@X@X}.f.W t n ..A.O.O.X.o.o.O.o.o.O.Z.Z.A.A.A.A.S.S.O.} j 7                                             ",
"                                                6 G f.{.}._.H.1.Z 7 k K ..o.o.X.O.O.O.O.O.O.A.A.A.S.S.D.D.D.X.m 7 %                                             ",
"                                                6 U H.}.}.Y.3.F 4   8 p n | O.O.O.A.A.O.A.A.A.A.S.D.D.D.F.F.| q &                                               ",
"                                              6 U 7._.{.Y.7.F r         k  .o.S.A.A.A.A.S.S.S.D.D.F.F.F.D.D...z                                                 ",
"                                              p 3.P.[._.f.J 6           7 m | S.S.S.S.S.D.D.D.D.D.F.D.S.O.X.K k                                                 ",
"                                            4 p 3.H.H.J.3.F 1           X 7 l } O.D.D.D.D.D.D.D.D.D.A.| n z 9                                                   ",
"                                            1 e <.a.h.h.3.F 1             % 7 l K o.D.D.G.D.D.A.o. .m b k                                                       ",
"                                            2 e { t.t.h.3.F 5               % 9 v  .Z.S.S.O.|  .M l 7 &                                                         ",
"                                            1 w *.w.t.g.4.F 1                     z N .. .v 7 $ $                                                               ",
"                                              2 e e i d i t                         x j 0 3 *                                                                   ",
"                                                + + + + +                             * X X                                                                     "
};
