/* XPM */
static char *_08c14e61ec74edbd2c2d98c656fc45cEzGRntUSlUCeYqCH[] = {
/* columns rows colors chars-per-pixel */
"80 80 203 2 ",
"   c None",
".  c #4E3F0B",
"X  c #5D3F11",
"o  c #573E0D",
"O  c #6D3E16",
"+  c #174D03",
"@  c #194D04",
"#  c #1B5105",
"$  c #1D5309",
"%  c #254A06",
"&  c #2B4907",
"*  c #294B09",
"=  c #2D4706",
"-  c #37480A",
";  c #215406",
":  c #245B06",
">  c #2C5F08",
",  c #25590A",
"<  c #255B11",
"1  c #295E14",
"2  c #325608",
"3  c #2A6207",
"4  c #2C6409",
"5  c #2F6809",
"6  c #326C0A",
"7  c #3B6C0B",
"8  c #36710A",
"9  c #3A750B",
"0  c #3E7A0D",
"q  c #326D1D",
"w  c #326C11",
"e  c #2C6E34",
"r  c #2E7236",
"t  c #2F7438",
"y  c #347337",
"u  c #3E7236",
"i  c #357937",
"p  c #317639",
"a  c #357A39",
"s  c #397E39",
"d  c #3D742D",
"f  c #49470E",
"g  c #55410F",
"h  c #5A400D",
"j  c #5C4413",
"k  c #4B5515",
"l  c #79411A",
"z  c #764619",
"x  c #695312",
"c  c #7A5D14",
"v  c #45650D",
"b  c #506F0F",
"n  c #427D0D",
"m  c #4C7D0F",
"M  c #43700D",
"N  c #576719",
"B  c #4E7D10",
"V  c #557610",
"C  c #5C7511",
"Z  c #537B11",
"A  c #597814",
"S  c #527B0F",
"D  c #6C6B14",
"F  c #6D6716",
"G  c #756515",
"H  c #7A6215",
"J  c #7C6B1E",
"K  c #6A781B",
"L  c #7A5B28",
"P  c #436E34",
"I  c #4E6B33",
"U  c #536A32",
"Y  c #5B6831",
"T  c #536630",
"R  c #437035",
"E  c #577635",
"W  c #586B2A",
"Q  c #68652E",
"!  c #78662C",
"~  c #616630",
"^  c #6C7132",
"/  c #853616",
"(  c #913418",
")  c #BA3B1C",
"_  c #BB3D21",
"`  c #C3361E",
"'  c #D42C21",
"]  c #DC2822",
"[  c #C53923",
"{  c #D83627",
"}  c #DF3D31",
"|  c #D53B30",
" . c #E32C28",
".. c #E1342C",
"X. c #84441D",
"o. c #8B491F",
"O. c #88491A",
"+. c #9A4B1B",
"@. c #89581A",
"#. c #97531B",
"$. c #AC431D",
"%. c #81671E",
"&. c #924F22",
"*. c #825C29",
"=. c #8A5A28",
"-. c #895525",
";. c #965324",
":. c #995526",
">. c #915827",
",. c #905928",
"<. c #8C4A20",
"1. c #A15725",
"2. c #BA4F2E",
"3. c #886425",
"4. c #B9672E",
"5. c #B96B31",
"6. c #AC7C32",
"7. c #A17E30",
"8. c #B27431",
"9. c #BC733B",
"0. c #B47532",
"q. c #CF4A2B",
"w. c #D3462C",
"e. c #C35B2D",
"r. c #C8542C",
"t. c #C85D38",
"y. c #CD4E37",
"u. c #C36234",
"i. c #3D813A",
"p. c #45820E",
"a. c #49800F",
"s. c #468311",
"d. c #4A8511",
"f. c #4E8916",
"g. c #48871A",
"h. c #4A891C",
"j. c #518C17",
"k. c #538E19",
"l. c #5B8C1A",
"z. c #56901A",
"x. c #5B931D",
"c. c #61931F",
"v. c #64881E",
"b. c #4B8C23",
"n. c #4A8A2C",
"m. c #4D902C",
"M. c #5E9621",
"N. c #4B8C33",
"B. c #41843A",
"V. c #46893B",
"C. c #4A8D3C",
"Z. c #498531",
"A. c #4E913B",
"S. c #4F9036",
"D. c #53953D",
"F. c #56993C",
"G. c #589A3E",
"H. c #788B25",
"J. c #659C24",
"K. c #689D26",
"L. c #679322",
"P. c #7B9D2E",
"I. c #6CA22A",
"U. c #73A62E",
"Y. c #75A52F",
"T. c #76A931",
"R. c #7AAD34",
"E. c #7EB036",
"W. c #5A9B41",
"Q. c #549541",
"!. c #9B9636",
"~. c #959D37",
"^. c #999A37",
"/. c #989D39",
"(. c #9A8032",
"). c #A68634",
"_. c #A28C36",
"`. c #A98536",
"'. c #B1823D",
"]. c #A2943C",
"[. c #8FA739",
"{. c #8DAC3B",
"}. c #87AA37",
"|. c #93A439",
" X c #91A93C",
".X c #80B237",
"XX c #85B63B",
"oX c #89B23B",
"OX c #87B83C",
"+X c #8BBB3D",
"@X c #90BF3E",
"#X c #94C33E",
"$X c #98C63F",
"%X c #B18640",
"&X c #89B740",
"*X c #8AB941",
"=X c #87B740",
"-X c #90BF41",
";X c #95C342",
":X c #99C740",
">X c #9DCA41",
",X c #A1CE42",
"<X c #A5D143",
/* pixels */
"                                                                                                                                                                ",
"                                                                                                                                                                ",
"                                                                                                                                                                ",
"                                                                                                                                                                ",
"                                                                                                                                                                ",
"                                                                                                                                                                ",
"                                                                                                                                                                ",
"                                                                                                                                                                ",
"                                                                                                                                                                ",
"                                                                                                                                                                ",
"                                                                                                                                                                ",
"                                                                                                                                                                ",
"                                                                                                                                                                ",
"                                                                                                                                                                ",
"                                                                                                                                                                ",
"                                                                                                                                                                ",
"                                                                                                                                                                ",
"                                                                        *X&X*X*X  *X*X*X                                                                        ",
"                                                        *X=XOX*X  *X*X&X_.!.|.*XOX*X+X+XOX*X*X  *X*X=X*X                                                        ",
"                                                      +X+XXXXXXX*XOXOX|.t.r.!.oXXX+X@XOXXXXXXXXXXXXXXXXX-X*X                                                    ",
"                                                  #X>X>X+XXXXXXXoXXXXX|.u.4.!.{.XXXXXXXXXXXXXXXXXXXXXX+X:X>X;X                                                  ",
"                                              *X+X$X<X>X+XXXXXXXXXXXXXoX!.!.{.XXXXXXXXXXXXXXXXXXXXXXXX+X>X,X>X#X*X                                              ",
"                                        *XXXOXXX+X$X$X#XXXXXXXXXXXXXXXXXXXXXXXXXXXXXXXXXXXXXXXXXXXXXXXXX*X>X>X+XXXXXXX+X                                        ",
"                                        *XXXXXXX+X+X+X+XXXXXXXXXXXXXXXXXXXXXXXXX+XXXXXXXXXXXXXXXXXXXXXXX+X+X+X+XXXXXXXOX                                        ",
"                                      *XOXOXoXXXXXXXXXXXXXXXXXXXoXoXoXoXXXXXXXXXXXXXXXXXXXXXXXXXXXXXXXXXXXXXXXXXXXXXXXXX*X                                      ",
"                                  ;X;X+XOXoX|.{.XXXXXXXXXXXXXXXX X^.!.|.XXXXXXXXXXXXXXXXXXXXXXXXXXXXXXXXXXXXXXXXXXXXXXXX*X*X;X                                  ",
"                                >X>X>X*X X`.u.6.{.XXXXXXXXXXXXoX%Xt.w.5.}.XXXXXXOXXXXXXXXXXXXXXXXXXXXXXXXXXXXXXXXXXXXXXX#X>X<X>X;X                              ",
"                              >X<X<X<X#X|.0.w.4.{.XXXXXXXXXXXXoX9.}  .r.[.XXXX+XXXXXXXXXXXXXOX{.{.XXXXXXXXXXXXXXXXXXXXXX+X>X<X<X>X;X                            ",
"                            >X,X<X<X$X+XoX^.).!.XXXXXXXXXXXXOX+X_.5.4.`.oXXXXXXXOXXXXXXXOX+X].u.e.8.[.XXXXXXXXXXXXXXXXXX+X;X<X<X<X>X                            ",
"                          *X,X<X<X,X+XXXXXoX{.oXXXXXXXXXXXXXXX+X{.~.^.{.XXXXXXXXXXXXXXXXXX@X'.y.{ r.~.oXXXXXXXXXXXXXXXXXOX+X,X<X<X>X;X                          ",
"                          *X;X$X$X#XXXXXXXXXXXXXXXXXXXXXXXXXXXXXXXXXXXXXXXXXXX+XXXXXXXXXXX{.).e.q.4.[.XXXXXXXXXXXXXXXXXXXXXX#X#X>X;X+X                          ",
"                        +XOX+X#X+X+XXXXXXXXXXXXXXXXXXXXXXXXXXXXXXXXXXXXXXXXXXXXXXXXXXXXXXXXX[._.).^.oXXXXXXXOX+XXXXXXXXXXXXXXX+X#X+XOX=X                        ",
"                        XXXX@X$X#XXXXXXXXXXXXXXXXXXXXXXXXXXXXXXXXXXXXXXXXXXXXXXXXXXXXX+X+X+XXXXXXXOX+X+XXXOX@X$X+XOX.XXXXXXXXXXXXXXXXXOX                        ",
"                        XX+X$X>X+XXXXXXXXXXXXXXXXXXXXXXXXXXXXXXXXXXXXXXXXXXXXXXXXXXXXX+X#X+XXXXXXXOXOXXXXXOX#X$X#XOXOXOXXXXXXXXXXXXXXXXX*X                      ",
"                    *X=XXX+X;X@XXXXXXXXXXXXXXXXXXXXXXXXXXXXXXXXXXXXXXXXXXXXXXX+XXXXXXXOX+XXXXXXXXXXXXXXXXXXX+X$X#XOXXX X|.{.XXXXXXXXXXXXXX=X                    ",
"                    =XXXXXXX+XXXXXXXXXXXXXXXOXXXXXXXXXXXXXXXXXXXXXXXXXXXXXXXXXXXoXXXXXXXXXXXXXXXXXXXXXXXXXXXOXOXOX.X{.'.e.).XXXXXXXXXXXXXX=X                    ",
"                    R.XXXXXXXXXXXXXXXXXXOX#X#X+XXXXXXXXXXXXXXXXXXXXXXX#X#X+XXXXXOXXXXXXXXXXXXXXXXXXXXXXXXXXXXXXXXXXX{.6.e._.XXXXXXXXXXOXXXR.                    ",
"                  M.T..X.XoXoXXXXXXXXXXX@X$X$X@XXXOXXXXXXXXXXXXXXXXXXX#X+XXXXXXXXXXXXXXXXXXXXXXXXXXXXXXXXXXXXXXXXXOXOX[.|.{.XXXXOXXXXXE.E.R.M.                  ",
"                  f.M.J.).5.6.~.XXXXXXXX+X$X#XOXXXXXXXXXXXXXXXXXXXXXXXXXXXXXXXXXOXXXXXXXXXXXXXXXXXXXXXXXXXXXXXXXXXXXXXXXXXXXXX.XXXXXE.R.K.M.f.                  ",
"                  f.f.v.u...{ 6.XXXXXXXXOX+XOXOXXXXXXXXXoXoXoXXXXXXXXXXXXXXXXXXXXXXXXXXXXXXXXXXXXXXXXXXXXXXXOXXXXXXXXXXXXXXXXXXXXXXXXXR.M.f.f.                  ",
"                    x.Y.q...{ ).XXXXXXXXXXXXXXXXXXXXXXoX`.u.8.!.XXXXXXXXXXXXXX#XE.OXOXE.OXXXXXXXE.E.XXXXXXXXXXXXXXXXXXXXXXXXXXXXXXXXXXXXT.M.                    ",
"                  h.I.E.`.0.`.~.XXXXXXXXXXXXXXXXXXXXXXoXu...q.).XXXX.XE.XXE.E.XXOXE.E.OX.XXXXXXXOX#XE.XXXXXXXXXXXXXXXXXXXXXXXXXXXXXXXXXXE.I.k.                  ",
"                  z.U.XX$X#XOXXXXXXXXXXXXXXXXXXXXXXXXX.X6.e.0.~.XX.XU.I.T.U.E.XXE.E.T.T.I.U..XOXOXOXE.XXE.E.XXXXXXXXXXXXXXXXXXXXXXXX[.}.}.U.k.                  ",
"                  j.I.E.$X+XXXXXXXXXXXXXXXXXXXE.E.XXT.U.[.~.|.oX.XT.x.k.x.M.E.XX=XE.I.x.l.l.Y..XOXE.#XE.T.R.XXE.R.XXXXXXXXXXXXXXXX{.`.5.~.I.f.                  ",
"                  j.z.I.E.E.U.R.XXXXXXXX.XOXE.K.x.J.z.j.K.T.R.U.M.k.p.p.d.x.E.XXXXE.K.K 1.#.K c.T.T.T.I.j.z.J.x.c.E.XXXXXXXXXXXXR.Y.7.4.H.x.f.                  ",
"                    d.z.K.J.x.K.XXXXXXXXR.E.U.z.p.p.p.p.j.x.x.z.d.p.p.p.d.x.E.XXXXE.L.K q.[ D d.z.M.x.f.p.p.d.p.z.I.E.E..XXXXXXXK.x.H.H.l.d.f.                  ",
"                  j.d.p.p.p.p.j.T.E.E.U.x.x.z.d.p.p.p.p.p.p.p.p.p.p.p.p.d.f.I.T.T.I.f.d.G G S n p.p.p.p.p.p.p.p.d.j.c.x.I.E..XR.k.p.p.d.p.d.g.                  ",
"                  d.p.p.p.p.p.p.M.I.K.x.d.d.p.p.p.p.p.p.p.p.p.p.p.p.p.p.p.d.f.z.M.h.d.p.m m n p.p.p.p.p.p.p.p.p.p.p.d.p.z.J.I.c.d.p.p.p.p.p.g.                  ",
"                  g.s.p.p.a.p.s.a.p.p.a.p.a.p.p.d.d.p.p.p.p.p.p.d.p.d.p.p.d.p.d.s.s.d.p.s.d.p.s.p.s.p.s.p.p.d.d.p.d.p.s.d.s.p.d.p.p.p.d.d.p.n                   ",
"                  9 s.s.s.p.p.p.a.a.a.p.d.d.p.p.p.p.p.p.p.p.p.p.p.p.p.p.p.p.p.p.p.p.p.d.p.p.p.s.p.p.p.p.p.p.p.p.p.p.p.p.p.p.p.p.p.p.a.p.p.p.0                   ",
"                  4 6 9 p.p.p.a.! @.c C p.p.p.p.p.p.p.p.p.p.p.p.p.p.p.p.p.p.p.p.p.p.d.Z C S n p.p.p.p.p.p.p.p.p.p.p.p.p.p.p.p.d.J @.@.C 9 6 5                   ",
"                    , 6 p.p.p.Z y.{ ` @.p.p.p.p.p.p.p.p.p.p.p.p.p.p.p.p.p.p.p.p.p.p.d.D #.H B s.p.p.p.p.p.p.p.p.p.p.p.p.p.p.a.Z 2.{ ) H 8 3                     ",
"                    $ 5 n p.p.m _ ' ) H p.p.p.s.p.p.p.p.p.p.p.p.p.p.p.p.p.p.p.p.p.p.m D #.G s.s.p.p.d.B C C S p.p.p.p.p.p.p.p.m $.' $.G 4 ,                     ",
"                    $ : 0 n 0 6 c @.c b p.p.s.s.p.p.p.p.p.p.p.p.p.p.p.p.g.g.p.p.d.p.p.B C B h.h.p.p.Z K 1.+.D m s.s.p.p.p.p.n n x O.c b < $                     ",
"                      $ : 3 : # 7 M n s.p.s.b.b.p.p.p.p.p.p.p.p.p.p.p.p.g.s.p.p.p.p.p.p.p.s.b.h.p.p.d.3. .] #.A b.g.p.p.p.n 9 8 % , 4 > :                       ",
"                        ; ; # + : 5 0 0 p.s.m.m.p.p.p.p.p.p.p.p.p.p.K J @.D m p.p.p.p.p.p.s.g.g.p.p.B G [ ` H S h.g.p.p.n n 6 : + @ $ $                         ",
"                            , $ + $ 8 5 0 s.h.h.p.p.p.p.p.p.p.p.p.m 1.w. .$.C p.p.p.p.p.p.p.p.p.p.p.p.a.S S m p.s.p.p.p.5 8 # # @ $                             ",
"                              $ + # : : 8 p.s.p.p.p.p.p.p.p.p.p.p.m @.` ' +.S p.p.p.p.p.p.p.p.p.p.p.p.p.n p.p.p.p.p.p.9 # 3 # + $ 1                             ",
"                                $ # + + 3 8 p.p.p.p.0 0 p.p.p.p.p.p.b x G C a.p.p.p.p.p.0 9 p.p.s.g.s.p.n n p.p.p.p.9 3 + + # #                                 ",
"                                  $ + + + 3 8 p.p.0 6 6 n p.p.a.p.n 6 7 m a.p.p.p.p.p.p.8 5 0 p.p.g.g.n 6 6 0 n 0 9 3 # + + $                                   ",
"                                    $ + + + + # # # + # 7 N V M 9 5 # : 0 n p.p.p.p.p.0 3 # 3 7 0 0 9 5 # + @ # # # + + @ $                                     ",
"                                      $ + + + + + + + + j +.x v : # + + 6 9 0 0 0 0 9 6 ; - - 2 3 5 : # + + + + + + + + #                                       ",
"                                          $ $ $ + + + + h / h & + + + + # $ : : : : : # - l ( o + + + + + + + + $ $ $ $                                         ",
"                                                $ # + + = - = + + + + + # + @ @ + + + + - O / f + + + + + + $ $                                                 ",
"                                                      < $ # + + @ @ @ @ + + + + + + + @ @ % % @ @ @ # $ 1                                                       ",
"                                                        q 1 $ # $ * = % = @ + $ $ $ @ * * & * @ @ @ 1 q Z.                                                      ",
"                              W.W.                    G.S.n.d       j j o f k N I k f o X X j     q Z.N.F.W.                    G.G.                            ",
"                              W.G.W.W.W.            G.D.A.S.D.      l l O z <.3.! L z l l z         A.C.A.D.              W.W.G.G.G.                            ",
"                              W.F.F.F.G.W.F.D.      A.i.a i.V.D.    ^ L ;.;.:.:.:.:.;.;.-.Q     W.Q.i.a s B.Q.      D.W.F.F.F.F.G.G.                            ",
"                              W.F.D.C.A.W.A.V.C.  W.V.s t p i.A.Q.Q.E ! ;.:.;.;.:.:.>.:.! E V.D.A.C.s t a i.A.W.Q.V.V.A.A.A.C.A.G.                              ",
"                                D.V.i s B.i.a s A.C.i.a t p s i.Q.a R ~ ;.;.;.;.>.;.;.:.Q P s i.i.i.a t t a V.A.B.i a i.i.s s V.                                ",
"                                F.V.i i s a r r s i.a a t t t p a a p T ,.:.:.;.;.#.:.:.Q P i i a t t t t t s i.i r r a a a s A.                                ",
"                        Q.a a i.C.V.s t t t r r t r e e r t t t t t t P =.;.;.:.:.:.;.>.Y y t t t t t t r e e t r r t t t a i.V.i.s s i.                        ",
"                        a p p p s i.a t t t t r t r e e t t t t t t t P *.;.;.:.:.;.&.,.U y t t t t t t r e e r t t t t t t i.i.a a p a i.                      ",
"                        p t t t t p p t t t t t t r e r t r r r t t r P *.&.;.;.:.;.;.,.I y t t r r r t r e r t r r t t t t a t t t t t                         ",
"                        p t t r t t t t t t r r t t r r t r r r t t y P *.&.;.;.:.;.&.<.T r t r r r r t r r r t r r r t t t t t t t t p                         ",
"                          a p r r t t t t t e e t t t t t t r t p p u Y X.X.&.:.:.;.X.X.L P p p r r r t t t t t r r t t t t t t e r p                           ",
"                            p t r t t t t t t t t t t t t t t t p y T L X.X.;.:.:.;.o./ =.Q u r t t t t t t t t t r t t t t t t r t                             ",
"                              a t t t t t t t t t t t t t t t t y I *.>.<.<.:.:.:.;.<.<.:.=.~ u t t t t t t t t t t t t t t t t p                               ",
"                                p t t t t t t t t t t t t t t t u Q ,.:.&.&.:.:.:.;.&.&.:.:.! I t t t t t t t t t t t t t t t t                                 "
};
