/* XPM */
static char *_aaeb93795234c47fa1b1b6ac53d9283SKYmB4GHnc1pzTsM[] = {
/* columns rows colors chars-per-pixel */
"80 80 193 2 ",
"   c None",
".  c #3F7D12",
"X  c #427F15",
"o  c #4A7F1B",
"O  c #3E8407",
"+  c #3E8807",
"@  c #3C840A",
"#  c #3F8F08",
"$  c #44810B",
"%  c #488608",
"&  c #4E940C",
"*  c #53960D",
"=  c #5C940F",
"-  c #458313",
";  c #4A8B13",
":  c #4B841C",
">  c #4D8B1E",
",  c #548F15",
"<  c #4C9A14",
"1  c #4C9B1A",
"2  c #4B9015",
"3  c #529314",
"4  c #5D961E",
"5  c #5D981B",
"6  c #539819",
"7  c #648C12",
"8  c #6B9817",
"9  c #75981B",
"0  c #69A017",
"q  c #6CA818",
"w  c #77AF1E",
"e  c #4A8122",
"r  c #588B29",
"t  c #4E9A20",
"y  c #5C9622",
"u  c #569C24",
"i  c #5D9B24",
"p  c #56932A",
"a  c #5F9B29",
"s  c #5F9F31",
"d  c #619424",
"f  c #619C26",
"g  c #62932D",
"h  c #649E2A",
"j  c #659531",
"k  c #6B9435",
"l  c #689937",
"z  c #6B9E3A",
"x  c #5FA324",
"c  c #66A326",
"v  c #65A42B",
"b  c #69A32C",
"n  c #6FA324",
"m  c #7FA62C",
"M  c #7DB022",
"N  c #67A735",
"B  c #6FA43E",
"V  c #6CAA36",
"C  c #74AC3A",
"Z  c #7AAF3D",
"A  c #72A63A",
"S  c #77B13B",
"D  c #7AB03D",
"F  c #6E9B44",
"G  c #7EAC4A",
"H  c #79A845",
"J  c #7EB342",
"K  c #72B343",
"L  c #809419",
"P  c #86AD2A",
"I  c #99A724",
"U  c #87AE3B",
"Y  c #99AD38",
"T  c #88B639",
"R  c #9AB039",
"E  c #A8B12E",
"W  c #A7BC37",
"Q  c #B1B838",
"!  c #CBBE36",
"~  c #C7BA3C",
"^  c #C1B230",
"/  c #BCCB3E",
"(  c #C4C038",
")  c #DDC23C",
"_  c #E3CA3D",
"`  c #EACA3F",
"'  c #E9C23B",
"]  c #EFD63F",
"[  c #F9E03F",
"{  c #84AB4F",
"}  c #82B946",
"|  c #84BE4A",
" . c #89BF4D",
".. c #98B844",
"X. c #85AC55",
"o. c #84AE59",
"O. c #8ABC54",
"+. c #8DBE5C",
"@. c #88B457",
"#. c #A8BE46",
"$. c #A5BC54",
"%. c #84AF60",
"&. c #8DBE61",
"*. c #92BC64",
"=. c #91BA68",
"-. c #87C247",
";. c #85C24C",
":. c #89C14B",
">. c #87C151",
",. c #8CC253",
"<. c #8EC45B",
"1. c #92C65A",
"2. c #A7C547",
"3. c #BECA4E",
"4. c #B7D05A",
"5. c #BFD555",
"6. c #9ACA6C",
"7. c #C3C245",
"8. c #D8C84B",
"9. c #D0D649",
"0. c #D0DA4F",
"q. c #CDC858",
"w. c #C3C85A",
"e. c #DFCB53",
"r. c #D6CC55",
"t. c #C2D45B",
"y. c #DBDD56",
"u. c #E6CA44",
"i. c #EACA44",
"p. c #E6CB4B",
"a. c #EBCB4C",
"s. c #E5C449",
"d. c #ECD44C",
"f. c #E7D14B",
"g. c #F3DB45",
"h. c #F5DE4B",
"j. c #F8DE4F",
"k. c #F0D54D",
"l. c #E6CB51",
"z. c #EBCD54",
"x. c #E5CD5D",
"c. c #ECCE5C",
"v. c #ECD153",
"b. c #EBD15B",
"n. c #EED856",
"m. c #F1D05F",
"M. c #F0D958",
"N. c #F7DB57",
"B. c #D5E45E",
"V. c #FAE446",
"C. c #F6E54C",
"Z. c #FAE44C",
"A. c #FAE84E",
"S. c #F7E455",
"D. c #FAE453",
"F. c #F7E855",
"G. c #FAE955",
"H. c #F7E45B",
"J. c #FAE55C",
"K. c #F7EA5C",
"L. c #FAE85D",
"P. c #D8D466",
"I. c #E3CC64",
"U. c #EBCE62",
"Y. c #EECF6B",
"T. c #E9D263",
"R. c #EAD46A",
"E. c #EBE867",
"W. c #F6E566",
"Q. c #FBE562",
"!. c #F4EA66",
"~. c #FAE963",
"^. c #FBE66B",
"/. c #F6E96B",
"(. c #FBE96B",
"). c #F6E368",
"_. c #EFE97E",
"`. c #E4E677",
"'. c #F6E776",
"]. c #FAE772",
"[. c #F7E970",
"{. c #FBEB74",
"}. c #FCE67C",
"|. c #F5ED7A",
" X c #FBEB7C",
".X c #FBEC82",
"XX c #F9EE8C",
"oX c #F4EC87",
"OX c #FAEE96",
"+X c #FBF2A1",
"@X c #FDF7B5",
"#X c #FCF3BB",
"$X c #FCF9C5",
/* pixels */
"                                                                                                                                                                ",
"                                                                                                                                                                ",
"                                                                                                                                                                ",
"                                                                                                                                                                ",
"                                                                                                                                                                ",
"                                                                                                                                                                ",
"                                                                                                                                                                ",
"                                                                                                                                                                ",
"                                                                                                                                                                ",
"                                                                                                                                                                ",
"                                                                                                                                                                ",
"                                                                                                                                                                ",
"                                                                                                                                                                ",
"                                                                                                                                                                ",
"                                                                                                                                                                ",
"                                                                                                                                                                ",
"                                                                                                                                                                ",
"                                                                                                                                                                ",
"                                                                                XX]. X                                                                          ",
"                                                                            oX{.C.(.F.'.c.                                                                      ",
"                                                                    N >   |.{.Z.^.L.(.Z.l.                                                                      ",
"                                                                    u : XX(.Z.(.A.~.L.D.v.p.                                                                    ",
"                                                                    & 2.!.D.F.G.J. XC.Z.R.x.                                                                    ",
"                                                                  t 3 E.Q.j.{.Z.~.D.Q.(.a.e.                                                                    ",
"                                                      =.          * 4./.F.].V.L.~.D.S.D.m.Y.                                                                    ",
"                                                      O.        6 q [.@XOXA.Z.{.J.F.J.J.i.i.8.  p                                                               ",
"                                                       .<.      6 B.#X$X+XV./.F.L.K.^.Z.v.U.    p                                                               ",
"                                                      O.,.    1 M E.@X$X~.h.J.A.}.D.^.J.U.p.  u >                                                               ",
"                                                      :.+.    < / ^.OX XD.(.]. XF.D. Xh.v.U.$.x :                                                               ",
"                                                      :.6.  < w |.V.(.^.j.^.D.J. XH.Q.g.x.r.8 1 :                                                               ",
"                                                    *.;.1.%.6 R H.Z.D.V.Z.(.}.{.(.J..Xf.T.p.8 # :                                                               ",
"                                                    <.;.,.N * E.L.J.{.S..XL.Q.G.(.Z.G.v.T.! * + :                                                               ",
"                                                    <.,.| ; P |.D.{.J.J.S.J. XW.Q.~.'.z.u.~ & +                                                                 ",
"                                                    1.,.;.3 3.L.D.(.D.{.J.}.D.L.J.J.g.c.T.I % $                                                                 ",
"                                                    1.,.,.m  XL.~.(.Q.{.D.D.A. XD.(.d.p.i.I O X                                                                 ",
"                                                    1.1.>.#./.S./.J.L.L.Q.].D.J.A.{._ b.p.8 @ @                                                                 ",
"                                                  *.,.1.:.B.J.A.Q.V. XZ.Q.j.G.].Z.g.u.T.! % @           F B F                                                   ",
"                                                  +.:.,.,.`.J.{.J.Q.J.g.^.Z.Q.J.(.v.u.u.Q % -       z b c l                                                     ",
"                                                  <.-.:.1.y.Z.L.V.D.Z.Q.~.g.J.D.W.i.c.p.L $ r   H N x g                                                         ",
"                                                  <.;.-.O.y.S.(.J..XJ.A.Z.Z. XV.d.i.a.) 7 O   A h v y                                                           ",
"                                                  O.-.:.:.0.J.h.D.A.Q.L.}.F.D.N.b.u.c.~ $ - B v v g                                                             ",
"                                                  >.;.;.-.9.(.F.~.Q.(.Z.G.].J.f.i.b.i.I @ 6 v v y g                                                             ",
"                                                  >.| ;.-.t.N.N.S.D.F.(.(./.] U.u.u._ 9 ; v v c j                                                               ",
"                                                  ;.;.;.:.5.Q.G.^. XS.D.V.n.z.i.p.Y.^ , v v v y                                                                 ",
"                                                  >.;.>.;.4.D.).Z.D.D.~.M.z.a.a.p.u.E c b v u j                                                                 ",
"                                                *.-.;.;.;.2.S.L.~.(.).d.a.i.U.s.U.Q b v v 5 g                                                                   ",
"                                                *.-.>.:.;. .T.d.v.i.i.a.U.u.p._ R v v v i 4                                                                     ",
"                                                @.;.;.-.-.T 8.u.c.a.I.s.s.l.q.P c v v f y k                                                                     ",
"                                                o.;.;.;.>.} w.c.' u.u.` r...n v v v i 4 l                                                                       ",
"                                                X.| ;.;.| D Q s.a.I.~ R v x v v v f y g                                                                         ",
"                                                X.J >.:.J S T P.7.R @.K b v b v i 4 y k                                                                         ",
"                                                G D } } Z Z Z U v V S v v v v i p 4 k                                                                           ",
"                                                o.D D Z D S V b v v v v v v f 4 y k                                                                             ",
"                                                  D Z Z S C b v v v v v v i y i g                                                                               ",
"                                                  Z Z Z D b v v v v v v a y 5 j                                                                                 ",
"                                                  J Z Z Z f v v N v v i y 4 j                                                                                   ",
"                                                  X.Z Z b y h h v i 4 y y g                                                                                     ",
"                                                    G Z d y y y y y y y j                                                                                       ",
"                                                      A y y 4 d 4 y 5 g                                                                                         ",
"                                                      > , 4 y y y g                                                                                             ",
"                                                      X @ @ ; ; g                                                                                               ",
"                                                          . - e                                                                                                 ",
"                                                                                                                                                                ",
"                                                                                                                                                                ",
"                                                                                                                                                                ",
"                                                                                                                                                                ",
"                                                                                                                                                                ",
"                                                                                                                                                                ",
"                                                                                                                                                                ",
"                                                                                                                                                                ",
"                                                                                                                                                                ",
"                                                                                                                                                                ",
"                                                                                                                                                                ",
"                                                                                                                                                                ",
"                                                                                                                                                                ",
"                                                                                                                                                                ",
"                                                                                                                                                                ",
"                                                                                                                                                                ",
"                                                                                                                                                                ",
"                                                                                                                                                                "
};
