/* XPM */
static char *_39207b2faa54fd2cd3bdd42f31efeacR0As469edvrfg3h0[] = {
/* columns rows colors chars-per-pixel */
"80 80 247 2 ",
"   c None",
".  c #6E0C2E",
"X  c #740F2D",
"o  c #790F2F",
"O  c #75122D",
"+  c #7A152D",
"@  c #7D192C",
"#  c #7A0E32",
"$  c #750D31",
"%  c #751532",
"&  c #7C1231",
"*  c #751A36",
"=  c #7A1A32",
"-  c #751D38",
";  c #7F1638",
":  c #6F1331",
">  c #78243B",
",  c #7E313F",
"<  c #7A2B44",
"1  c #7B354A",
"2  c #7B3D51",
"3  c #7D4355",
"4  c #7E4A5A",
"5  c #7F505F",
"6  c #7D5866",
"7  c #7E6D76",
"8  c #821C2B",
"9  c #8C1C2E",
"0  c #85172E",
"q  c #931D2E",
"w  c #9A1D2F",
"e  c #821232",
"r  c #841A34",
"t  c #8C1B33",
"y  c #861835",
"u  c #931E32",
"i  c #9C1E32",
"p  c #A21F32",
"a  c #A71E39",
"s  c #86222E",
"d  c #88252F",
"f  c #842533",
"g  c #8B2B31",
"h  c #892635",
"j  c #952132",
"k  c #9B2234",
"l  c #9C2A35",
"z  c #972A39",
"x  c #8A353B",
"c  c #963439",
"v  c #A42235",
"b  c #AB2235",
"n  c #AC253B",
"m  c #A62738",
"M  c #B22336",
"N  c #B1253B",
"B  c #B32A3C",
"V  c #BB2B3B",
"C  c #BC253A",
"Z  c #A6363C",
"A  c #B7323E",
"S  c #C72A17",
"D  c #CD341C",
"F  c #DA3D13",
"G  c #D4310E",
"H  c #D13C22",
"J  c #C62A3D",
"K  c #C93931",
"L  c #A9403F",
"P  c #92403E",
"I  c #DE4315",
"U  c #DF430D",
"Y  c #E14C19",
"T  c #E75817",
"R  c #E6530D",
"E  c #EB661B",
"W  c #D6472B",
"Q  c #DD5533",
"!  c #DA4F30",
"~  c #E35A2E",
"^  c #E96626",
"/  c #EE7625",
"(  c #F27E29",
")  c #EA6835",
"_  c #F16C37",
"`  c #F1723A",
"'  c #862642",
"]  c #892643",
"[  c #872B47",
"{  c #873846",
"}  c #8E374A",
"|  c #B32B42",
" . c #BB2C45",
".. c #B73746",
"X. c #B33549",
"o. c #CA2D43",
"O. c #D32D43",
"+. c #C93646",
"@. c #D5344B",
"#. c #D53849",
"$. c #C73956",
"%. c #D73B55",
"&. c #D63D61",
"*. c #8B444D",
"=. c #92444E",
"-. c #984B44",
";. c #854B55",
":. c #954651",
">. c #994853",
",. c #85545C",
"<. c #9C5549",
"1. c #AD4641",
"2. c #BB4849",
"3. c #B05353",
"4. c #AB6D4C",
"5. c #845A64",
"6. c #864D61",
"7. c #B55763",
"8. c #87666B",
"9. c #836C73",
"0. c #887679",
"q. c #937177",
"w. c #B06A73",
"e. c #9D6654",
"r. c #C54757",
"t. c #D8465A",
"y. c #D14F50",
"u. c #DB684B",
"i. c #E9744A",
"p. c #CC4964",
"a. c #DA4A65",
"s. c #DA536A",
"d. c #DE5A75",
"f. c #CF546C",
"g. c #E05771",
"h. c #DB667B",
"j. c #CD756C",
"k. c #E0677E",
"l. c #F4832B",
"z. c #F7882E",
"x. c #F58D32",
"c. c #F78734",
"v. c #B68754",
"b. c #F28956",
"n. c #EE9B7B",
"m. c #F29C74",
"M. c #EC8C6F",
"N. c #D2A163",
"B. c #867D81",
"V. c #917B83",
"C. c #DA7486",
"Z. c #E27686",
"A. c #898888",
"S. c #8C928E",
"D. c #8A9793",
"F. c #939A95",
"G. c #91908D",
"H. c #AE9397",
"J. c #97A79B",
"K. c #8EA69D",
"L. c #94ACA1",
"P. c #98B7A8",
"I. c #8DB3AD",
"U. c #A2BAA6",
"Y. c #B0B2B1",
"T. c #D09193",
"R. c #EC9E87",
"E. c #E28898",
"W. c #EBA497",
"Q. c #EEA68D",
"!. c #D79BA5",
"~. c #D7A7A8",
"^. c #D7B9B8",
"/. c #D6B1B3",
"(. c #E4B7BA",
"). c #E7ABAF",
"_. c #D89B9C",
"`. c #9CC8B5",
"'. c #97C8B7",
"]. c #A4CCB5",
"[. c #A4D3BA",
"{. c #AAD7BA",
"}. c #B2DDBC",
"|. c #A5C4AD",
" X c #B3E1BE",
".X c #D8C3B6",
"XX c #EAC4BF",
"oX c #E5BDC6",
"OX c #94D6C4",
"+X c #9BDBC5",
"@X c #8AD9D0",
"#X c #A7DAC3",
"$X c #B5D5CC",
"%X c #A4E5C6",
"&X c #AAE5C5",
"*X c #AAEBC7",
"=X c #AEECC9",
"-X c #A6E8C6",
";X c #B4EAC5",
":X c #B9ECC5",
">X c #B2EEC9",
",X c #B4E5C4",
"<X c #B6F2CA",
"1X c #BDF6CB",
"2X c #BBF4CA",
"3X c #BEF8CB",
"4X c #BDF1C7",
"5X c #BFF6D0",
"6X c #96FEF4",
"7X c #8DF6EA",
"8X c #A7FEF1",
"9X c #B7FFF0",
"0X c #ACF4E9",
"qX c #86E3D8",
"wX c #D6D0CC",
"eX c #E7C8C9",
"rX c #E4CDD3",
"tX c #E6D7D7",
"yX c #E9D4CE",
"uX c #D4EDCD",
"iX c #CEF4CF",
"pX c #C6FECD",
"aX c #C4FBCC",
"sX c #C9FDCD",
"dX c #C1F6C9",
"fX c #D3EBD0",
"gX c #D8E4D2",
"hX c #C9FAD2",
"jX c #CDECD3",
"kX c #E8E5DC",
"lX c #E2ECD1",
"zX c #CAFDED",
"xX c #D2FFED",
"cX c #D8F9EB",
"vX c #D2FCF0",
"bX c #E9EAE4",
"nX c #F7EBEC",
"mX c #F8EAE8",
"MX c #EDFAED",
"NX c #EBF5E9",
"BX c #F0FBEE",
"VX c #E5FFF3",
"CX c #EEFFF3",
"ZX c #FDF7F5",
"AX c #F0FFF1",
"SX c #FDF8F6",
"DX c #E7DFE0",
/* pixels */
"                  1X1X1X1X1X1XdX3X3X3X3X3X3X1X2X2X2X2X2X2X<X2X<X2X2X<X2X<X<X<X<X<X<X<X<X<X<X<X<X<X<X<X<X<X<X<X<X<X<X<X<X<X<X<X<X<X<X>X*X&X&X-X-X&X%X&X=X        ",
"                dX1X5X5X1X1X1X5X5X5X3X3X3X3X3XdX3X3X3X3X3XdX3X3X3X3X3X2X3X3X3X3X2X3X2X2X3X<X<X<X<X<X<X<X<X<X<X>X>X<X>X<X>X>X<X>X>X>X*X*X=X-X-X-X=X&X=X$X        ",
"                  <X>X>X=X=X>X>X>X>X>X>X>X>X<X<X<X<X<X<X<X1X1XdX3X3X3XaXaXaXaXaXsXpXpXpXaXpXpXpXpXpXsXpXpXpXpXpXpXpXpXsXsXpXpXpXaXaX3X*X&X=X-X&X%X#X$XjX        ",
"                  &X&X%X%X%X%X#X#X%X+X+X+XOXOXOXOXOXOXOXOXOXOXOXOXOXOXOXOXOXOXOXOXOXOXOX+X+X+X+X+X%X%X%X%X%X-X-X%X%X%X-X%X-X-X%X-X-X-X%X+X+X+X#X$XjXwX          ",
"                  <X>X2X5XaXaXaXpXaXaXaXdXpXhXdX3X3X3X2X<X<X>X>X>X>X=X=X*X=X=X=X>X>X*X>X>X=X*X*X=X*X*X*X*X*X-X-X*X-X-X-X-X-X-X-X-X%X%X-X%X-X-X$XwXtXrX          ",
"                    2X=X&X>X3XpXpXsXpXpXsXpXpXsXpXpXpXpXsXpXpXpXaXaXaXhXpXpXpXpXaXpXpXpXpXpXsXsXpXpXpXaXaXaXaXaXaXaXaXpXpXpXaX3XaXaX3X3X3XaX3X1X5XjXgX          ",
"                    dX2X>X%XOX].`.`.`.[.[.[.[.[.{.[.{.{.#X#X#X&X#X,X&X=X=X=X=X>X=X>X<X<X<X<X>X<X<X<X2X<X2X3X2X<X3X3X3X3X3XaX3X3X3XaX3X<X=X*X>X2XjXjX            ",
"                    pXpX2X#XF.5.4 3 3 3 3 4 4 4 5 5 5 5 5.6 5.5.6 5.6 8.5.6 8.9.8.9.7 9.7 9.0.9.0.B.0.B.A.7 A.A.A.A.A.A.A.G.S.S.D.F.I.[.-X2XaXpXaXjX            ",
"                    pXpX3X}.G.;.- : % % % % % O % O O O + O O + * * % * * * = * * * * * * * * * * * * * * * = = % - - - - - = - - < 7 '.<X3XpXsXsXfX            ",
"                    pXpX3X#XF.2 * . . X X X X X O O O X X X X X X X X X X + = = O X X o % X X X X X X X $ O X O O O X X X X X X . - 7 '.2XpXsXsXsXfX            ",
"                    pXpX1X}.F.3 - . . X X X X X O X X O X X X + X X X X X O = + O X X + = X X X X X X X O X X X X X X X X X . . . - B.'.3XpXpXsXiX              ",
"                    pXpXdX,XF.4 * . . X X X X X X X X X X X X X X X X X O O % = % X X = + O X X X X X X X X X X X X X X X X . . : < A.[.3XpXsXsXiX              ",
"                    sXpXdX,XJ.5 - . . X X X X X X X X X X X X X X X X X X O + = O X X + % O X X X O X X X X X X X X X X X . . . : 1 A.[.3XsXsXsXuX              ",
"                    sXpXdX,XJ.6 > . . . X X X X X X X X X X X X X X X o X O O = O X X = = X X X X X X X X X X X X X X X X X . . : 2 D.#XaXsXpXiXiX              ",
"                    sXpXaX XJ.6 > . . X X X X X X X X O X X X X X X X X X O + = % X X + + X X X X X X o X X X X X X X X O . . . : 3 F.}.3XpXsXsXfX              ",
"                    sXpXaX:XL.7 > . . X X + X X X X X X X X X X X X X X + = = = + o X = = = O X X X X X X X X O X X X X O . . . > 4 J.&XaXsXsXhXgX              ",
"                    sXpXdX;XP.9.> . . O . X X X X X X X X X X X X X O @ @ @ O O X X X O = 8 + + X X X X O X O X + + @ @ @ + X X > 6 L. XaXsXsXsXgX              ",
"                      pXaX;XP.7 < X . X X O X X X X X X X X X X O O % * @ O O . X X X O O @ > > @ @ 0 + @ @ @ 8 @ 8 @ 8 8 @ O O , 7 P. XaXaXsXiXgX              ",
"                      pXaX;XP.0.< . . . X X X X X X X X X X X X X O @ @ O O @ @ + 0 O + @ 8 d g d 8 8 8 @ s 8 8 8 8 8 8 @ @ O @ 1 7 |. XpXsXsXiXgX              ",
"                      pXdX:X|.B.< . . . X X X X X X X + @ X @ + + f g @ @ @ s @ 8 8 8 8 8 8 s g g s 8 8 8 8 8 8 8 8 8 8 @ @ . @ 2 v.|.<XpXsXsXiX                ",
"                      pXaX:X'.B.< X . . X X O O @ @ @ @ @ @ 8 8 s g s 8 s @ s s 8 8 8 8 8 8 @ s g g s 8 8 8 8 8 s @ d @ @ @ @ @ 1 A.{.4XpXsXsXiX                ",
"                      pXaX<X`.A.< X . . . X X + @ 8 8 8 8 8 8 s g g s 8 @ @ s @ s > s 8 8 s 8 s d g s 8 8 8 8 8 @ d @ @ @ @ O @ 3 D.{.1XpXsXsXuX                ",
"                      pXaX:X`.A.< O . . X X O @ @ 8 8 8 8 8 8 s g s 8 @ @ @ 3 B.7 6 A.4 f @ 8 8 s g g s @ 8 8 8 s 8 @ @ @ @ @ @ ;.K.&XdXsXsXsXfX                ",
"                      aXaX;X'.S.1 O X . X X X @ 8 8 8 8 8 8 s d g s 8 8 , 7 I.qXK.A.@XI.0.f 8 8 s g s s s 8 8 @ 8 @ @ @ @ @ O @ 4 K.=XaXsXpXiXfX                ",
"                      pXdX:X].A.1 % . . . X X @ 8 8 8 8 8 s s d d s r f 8.I.7X7XI.A.7X7XI.7 { 8 s s d s 8 s 8 8 8 8 8 8 @ @ @ @ ,.L.*XaXaXsXiXfX                ",
"                      pXaX:X[.S.1 : . . X X X 8 8 8 8 8 8 s d d 8 s f } I.qX7X7XI.D.7X7XqX@X6.] 8 s s d 8 @ 8 8 8 8 8 s @ @ @ @ 5.I.*XaXsXsXiX                  ",
"                      pXaX;X`.D.2 % . . X X X 8 8 8 9 q q q g l q q =.V.@X6X7X7XI.D.7X6X7X7XS.} s 8 d d s 8 8 8 8 8 8 @ @ @ @ g 5.P.>XaXsXsXiX                  ",
"                      pXaX:X[.D.2 % . . X X + @ 8 8 q w w w b m p v e.P.7X6X6X6XY.H.7X6X6X7XI.V.l w j j s 8 8 s 8 8 8 8 @ @ @ , 8.'.>XaXaXsXuX                  ",
"                      pXaX:X].F.3 % X . . O + 8 8 9 w w w b b b m | w.0X6X8X8X8XY.H.9X8X8X8X$XH.X.v m m l w q q q s 8 8 @ O @ , 9.|.>XaXsXsXfX                  ",
"                      pXdX:X[.D.3 % X . X O + @ 8 9 w w v b M b n X.H.8X0X9X9X8XY.H.9X9X8X8X0XY.7.B V B b b v w w q w q @ @ @ , 0.`.<XaXsXsXfX                  ",
"                      pXaX:X[.F.3 * O . X O + 8 8 9 w p b M M M  .w.Y.8X9X9X9XzX/.H.zX9X9X9X9X$Xj...V V M b b w w w w w s @ @ -.0.].<XpXsXsXfX                  ",
"                      pXdX:X[.D.4 * . . . O 8 8 9 q w b M V V K  .C.wXzXzXzXzXzX/.!.zXvXvXvXvXwXT.y.J V K M b p S w w w s @ @ ;.A.[.2XsXsXiXfX                  ",
"                      aXaX4X[.F.4 - X . X O 0 8 9 q p M C J J O.o._.jXvXvXvXvXzX^.!.vXvXVXVXVXDX/.t.o.o.J V V b b p p w q 0 9 ;.G.{.1XaXsXiX                    ",
"                      aXaX X{.F.4 - X . X O 8 8 q w M M J J J O.+.~.jXxXvXvXxXxX^.!.vXVXVXVXVXbXoXf.O.J o.J C M M b p w q 0 8 ;.S.{.3XaXsXiX                    ",
"                      aX3X X{.F.,.> X . X O 8 9 9 w M C J J O.O.%./.zXxXxXxXvXxXoX/.VXVXVXVXVXbXeXh.%.@.@.o.J J M M b p q 9 9 ,.K.}.aXpXsXuX                    ",
"                      aXaX4X].J.5 > X X X O 9 s w w C J J J @.@.t.^.xXxXxXxXVXVXrX/.NXVXVXVXVXVXyXZ.s.a.a.%.@.O.J C M p i q 9 ,.J.,XaXpXsXuX                    ",
"                      sXaX X}.J.5 > @ = @ = h l l v V J O.O.@.@.f.^.vXvXVXVXVXMXrXoXVXVXCXVXVXMXkXE.Z.g.g.a.%.@.+.J A B v k 9 8.J.:XpXsXsXfX                    ",
"                        aX:X{.J.8.*.<.4.P f z l Z Z +.K #.#.#.@.f.eXVXVXVXVXVXVXtXrXVXVXVXVXVXVXtX!.Z.d.g.s.a.t.t.y.+.J n k d 8.P.4XpXpXiXfX                    ",
"                        aX4X}.J.8.e.v.v.<.f g l Z m  .+.@.@.@.%.s.!.oXrXtXtXkXbXrXwXbXcXNXbXNXbXtXE.Z.d.g.a.a.%.#.+.+.A M l z 9.P.4XsXsXsXfX                    ",
"                        aX X}.J.8.-.-.-.x s q q k v V J O.O.O.%.a.C.!.)./.oXrXwXwXoXrXtXtXrXrXoX(.Z.C.g.g.a.a.%.#.o.J V b m } 0.`.4XsXsXiX                      ",
"                        aX:X}.J.8.{ : @ @ @ g l l m K J #.#.#.%.d.!.rXrXtXDXDXDXrXrXtXbXDXDXrXrX(.Z.a.g.g.g.t.t.#.+.o.M a l } A.`.2XsXsXsX                      ",
"                        dX:X}.J.8.< @ @ : @ d j l B N +.#.y.#.%.C.eXAXSXCXCXSXCXbXDXCXCXCXCXCXBXtXZ.a.t.t.t.%.%.+.o.| a i z *.G.[.2XaXsXiX                      ",
"                        dX:X{.J.9.*.-.4.4.<.4.1.<.L ..K #.#.t.t.Z.eXAXAXCXCXAXMXDXrXMXCXCXCXAXBXtXE.a.#.#.@.O.o.o. .M a v z ;.F.{.3XpXsXiX                      ",
"                        dX:X}.P.q.e.4.N.N.v.v.v.4.4.X.V K t.t.a.g.oXAXCXCXCXAXCXtXrXMXCXAXAXCXNXyXZ.a.%.#.J J J o.N a a i z ,.F.{.3XsXsXiX                      ",
"                        aX4X{.U.v.3 P -.P P x P c c k N J t.a.a.g.oXnXCXCXCXAXMXtXeXBXAXAXAXAXmXyXZ.g.#.#.o.J C M a a i i c 5.J.&X3XpXiXiX                      ",
"                           X}.U.7 , O O : : @ @ d j b M +.t.a.a.a.).DXCXCXAXAXBXyXoXBXAXAXAXAXbX(.Z.g.t.+.J C M M a u w u [ 8.L.{.aXsXsX                        ",
"                        aX4X XP.7 3 O O X @ s 8 9 q v B +.y.a.t.&.Z.rXSXAXAXAXBXyXoXZXAXAXAXAXtX).k.a.t.+.J M M a p t 9 q x 0.P.&XaXsXsX                        ",
"                          dX{.|.7 2 O O . @ @ s s q w b 2.f.p.$.&.Z.oXZXAXAXAXNXeXoXZXAXAXAXAXeXZ.d.a.t.+.C M a p w 9 9 9 [ 0.P.;XaXsXiX                        ",
"                          dX XU.V.2 O X O O 8 8 8 9 w b ..y.y.$.$.p.E.MXBXBXBXNXeX(.BXBXAXCXbX(.C.p.p.p.p.| m p p u 9 9 9 [ v.OX;XaXpXiX                        ",
"                          4X XU.B.2 % X : @ 8 @ 8 8 k m ..r.r.r.+.r.h.tXNXBXBXNXeX(.BXBXBXCXyXT.&.$.$.p.X.| a i w q e 9 9 [ A.I.>XaXsXiX                        ",
"                          dX X|.B.2 % : O @ @ s 8 9 k n ..r.r.r.+. .f.).kXBXBXbXXX(.BXBXAXNX).h.$.$.r.7.X.| p i w 9 0 9 9 { D.'.:XpXsXiX                        ",
"                        sXdX X|.A.2 % : O O s @ 8 s m n B 2.2.r. . .r.j.XXNXMXmXXX(.NXBXBXkXT.p.X.$.X.X.X.| v u w 9 0 9 t 2 S.OX<XpXsXiX                        ",
"                          dX X|.v.4 : : O @ 8 8 s d m n | | 2.2. . . .2._..XMXlX.X^.NXNXgX~.f.X. .X.X.X.X.X.a u w 9 0 9 f *.D.{.4XpXsXiX                        ",
"                          dX:X|.G.3 : : O + 8 8 9 i m N N B 2.2.X.| |  .r.T.uXlX.X/.lXlX~.f.1.|  .X.X.X.|  .| i w 9 0 0 h ;.K.#X1XpXiX                          ",
"                          dX:X|.G.4 * @ @ @ 8 8 j v v n N B ..2.2.| n | n 7.T.~._._..XN.7.| | n X.X.2. .| | | z i 9 0 9 d ,.K.-X1XsXiX                          ",
"                          dXdX].S.4 * O O @ @ t k k m N N N ..2.2. .N a V B Z 3.7.7.7.2.B | n A | X.X.X.| | a a p 9 0 9 z ,.P.&X3XsXiX                          ",
"                          dX:X].S.,.* + + @ 8 j k v b M B M M 2.y.1.A M N B M B N N N N | n n | ....| | a | | a i t 0 9 h e.P.=XaXpXiX                          ",
"                          dX:X{.F.5 * + @ @ 9 u k k v b M n M A 2.2.A V N b N N N N N N N N A A ..| | N N | n | p t 0 9 [ 8.P.=XaXsXfX                          ",
"                          dX:X{.F.5.- @ @ 8 t j k k v b b M M B ..y.L V N N M n N N N N N N | A 2.B N N | N n n a u y 9 } 0.'.<XaXsXfX                          ",
"                          uX:X{.J.5.> @ 8 r t j j k v b M M b M B L y.L A N b M M N b n N B ....A b n N n N | a a u 0 9 *.0.].<XpXsXfX                          ",
"                          dXdX{.J.5.> = 8 t t j u k v v b b b b b Z 2.2.A Z M N b b b b Z ....| m m v m | v v | k t r 8 *.S.[.<XpXsXfX                          ",
"                          dX:X}.J.8.> r 9 9 r t j u j i k k k k l l Z 1.1.L Z l k k l Z Z Z c k v k k v k k k k i r r 8 ;.S.[.4XpXsXfX                          ",
"                          dX:X}.L.8.> t h 9 r 9 j q u j q j j j w j l l L L L l k l L Z Z k k k k k k v k v u | u y r 8 ,.K.}.<XsXiXuX                          ",
"                            :X}.L.8.< r 0 y e t d t u q q q j j j j j j Z L L l j l L l k k k i k k k k k k k k u t t f ,.K.&X3XsXhXfX                          ",
"                            :X,XL.9.' ; e # # # e e e 9 9 0 t 9 9 q u i l Z Z k k l Z c i i u k k k k k k k k k u y u ] 5.L.#XdXsXiXfX                          ",
"                            2X,XP.0.< ; e # # # e e e e e e e e e e e 0 z c } j j j Z l u w u j j u u i i j k j u y ] k 8.P.=XaXhXiXgX                          ",
"                            3X>XP.V.' ; # o $ # o e e o e e e e e e e e y y t y e y h u t t t t u u u u i u u j y y ] ] q.P.>XhXiXuXgX                          ",
"                            aX>X`.V.< = o # $ # e o o e # # e e e o e e r h y y e y y y e e e e e y e t y t t u y y u [ q.P.>XhXsXfXgX                          ",
"                            aX2X#XB.< ; # $ $ $ o e e o # o e e e e o e y r r e e e y y e e e e e e e e e e e e # # e [ V.P.<XhXhXfX                            ",
"                            hXaX#XA.1 ; # $ $ # o o o e o e e o # e e o r r r e # e r e e ; e e e e e e e e e e # # ; [ V.#X2XpXiXfX                            ",
"                            hXhX#XA.1 ; # o X $ o o o o o o o o & o & # r r e & e ; e r e & e e e e e e e e e e # # ; [ V.#XaXpXiXgXtX                          ",
"                            sXpX#XV.2 ; % # $ X o o e o o e o o o & # = ; r e + # e e r e & & e e # e e e e e e ; # e 6.V.#XhXhXiXgXtX                          ",
"                            iXsX#XF.,.[ ' ' ' ' y ] ] ' ' ' ' ' ' ' ' ' ' ' ' [ ] ] ] ] ] [ ] ] y ] ] ] ] ] ] ] ] ] } 6.F.$XzXhXfXgXDX                          ",
"                            lXiXjXjXbXZXZXZXZXZXZXZXZXZXZXZXZXZXZXZXZXZXSXZXZXZXZXZXSXZXZXnXnXnXnXnXnXnXnXmXnXmXmXnXnXbXgXjXjXjXlXbXmXnX                        ",
"                            Q.Q.n.m.m.m.m.m.m.n.m.n.n.n.n.n.n.n.n.R.n.n.R.R.R.R.Q.R.R.R.R.R.R.R.Q.R.W.R.W.W.Q.W.W.W.W.W.W.W.W.W.).eXtXmX                        ",
"                      b.b.b.b.c.c.c.z.z.z.z.z.l.l.l.l.l.l.l.l.( l.l.l.l.( ( / / / / ^ ^ ^ ^ E E T ~ T Y T Y Y T Y Y Y Y Y I I F U K u.R.(.                      ",
"                b.i.i.b.` c.c.c.c.c.z.c.c.c.( c.z.z.x.x.x.z.x.x.x.x.x.x.x.x.x.x.l.l.l.l.( ( ( / / / ^ E T T T R R T R R R R R U U G S S H u.M.                  ",
"        m.m.b.b.i.i.u.` ` i.` ` ` ` ` _ _ _ _ _ _ ) _ ) ) ) _ _ ) ) ` ) / ) ^ ) ) ^ ~ ~ T ~ ~ Y Y Y Y Y Y Y U Y I F F U F F F G G G G S S S D K u.              ",
"    j.M.i.i.i.u.u.y.u.u.u.) ) u.Q ) Q u.Q ) Q Q Q Q Q Q Q Q ! ! ! ! ! ! ! ! W W W W W W W H H H H H H H D D D D D D D S D D S S S S S S S S S S S K y.w.        ",
"  <.3.>.>.>.*.=.} :.*.=.=.=.*.} :.=.=.} =.*.>.=.:.:.=.=.=.=.=.=.=.=.:.:.:.;.>.=.=.=.=.*.:.:.>.>.>.>.>.>.>.:.>.>.:.:.>.>.>.>.>.>.>.>.X.>.} >.:.>.>.3.>.3.w.w.    "
};
