/* XPM */
static char *_c85ba73ed634328fd2978eedf82a05cHmgt41w1I3xYHO6Q[] = {
/* columns rows colors chars-per-pixel */
"80 80 36 1 ",
"  c None",
". c black",
"X c #270202",
"o c #290202",
"O c #2B0202",
"+ c #330303",
"@ c #400303",
"# c #490404",
"$ c #550404",
"% c #710606",
"& c #553A3A",
"* c #000655",
"= c #0E1355",
"- c #555555",
"; c #800707",
": c #8E0707",
"> c #AA0909",
", c #AA3131",
"< c #FF0D0D",
"1 c #8E0D5C",
"2 c #AA0E5E",
"3 c #FF5E5E",
"4 c #0011FF",
"5 c #2B39FF",
"6 c #5560FF",
"7 c #717BFF",
"8 c #FF8686",
"9 c #FF9393",
"0 c #FFAEAE",
"q c #FFBCBC",
"w c #8088FF",
"e c #959CFF",
"r c #FFC9C9",
"t c #FFD7D7",
"y c #FFE4E4",
"u c white",
/* pixels */
"                                                                                ",
"                                                                                ",
"                                                                                ",
"                                                                                ",
"                                                                                ",
"                                                                                ",
"                                                                                ",
"                                                                                ",
"                                                                                ",
"                                ................                                ",
"                                ................                                ",
"                                ................                                ",
"                                oooOOOoOOOoOOOoo                                ",
"                        ........<<<<<<<<<<<<<<<>........                        ",
"                        ........<<<<<<<<<<<<<<<>........                        ",
"                        ........<<<<<<<<<<<<<<<>........                        ",
"                        @$$$$$$$<<<<<<<<<<<<<<<<$$$$$$$@                        ",
"                     ...;<<<<<<<<<<<<<<<<<<<<<<<<<<<<<<;...                     ",
"                     ...;<<<<<<<<<<<<<<<<<<<<<<<<<<<<<<;...                     ",
"                     ...;<<<<<<<<<<<<<<<<<<<<<<<<<<<<<<;...                     ",
"                    +$$$><<<<<<<<<<<<<<<<<<<<<<<<<<<<<<>$$$+                    ",
"                 ...$<<<<<<<<<<<<<<<<<<<<<<<<<<<<<<<<<<<<<<$...                 ",
"                 ...$<<<<<<<<<<<<<<<<<<<<<<<<<<<<<<<<<<<<<<$...                 ",
"                 ...$<<<<<<<<<<<<<<<<<<<<<<<<<<<<<<<<<<<<<<$...                 ",
"             ...@;;;,8888888<<<<<<<<<<<<<<<<88888883<<<<<<<>;;;@...             ",
"             ...$<<<3uuuuuuu3<<<<<<<<<<<<<<<uuuuuuu0<<<<<<<<<<<$...             ",
"             ...$<<<3uuuuuuu3<<<<<<<<<<<<<<<uuuuuuu0<<<<<<<<<<<$...             ",
"             ...$<<<3uuuuuuu3<<<<<<<<<<<<<<<uuuuuuu0<<<<<<<<<<<$...             ",
"             ...&000ruuuuuuur000<<<<<<<<000quuuuuuuy0003<<<<<<<$...             ",
"             ...-uuuuuuuuuuuuuuu<<<<<<<<uuuuuuuuuuuuuuu8<<<<<<<$...             ",
"             ...-uuuuuuuuuuuuuuu<<<<<<<<uuuuuuuuuuuuuuu8<<<<<<<$...             ",
"             ...-uuuuuuuuuuuuuuu<<<<<<<<uuuuuuuuuuuuuuu8<<<<<<<$...             ",
"             ...=5555555euuuuuuu<<<<<<<<55555557uuuuuuu8<<<<<<<$...             ",
"             ...*4444444wuuuuuuu<<<<<<<<44444446uuuuuuu8<<<<<<<$...             ",
"             ...*4444444wuuuuuuu<<<<<<<<44444446uuuuuuu8<<<<<<<$...             ",
"             ...*4444444wuuuuuuu<<<<<<<<44444446uuuuuuu8<<<<<<<$...             ",
"         ...o<<<14444444wuuuuuuu<<<<<<<<44444446uuuuuuu8<<<<<<<<<<<o...         ",
"         ...o<<<24444444wuuuuuuu<<<<<<<<44444446uuuuuuu8<<<<<<<<<<<o...         ",
"         ...O<<<24444444wuuuuuuu<<<<<<<<44444446uuuuuuu8<<<<<<<<<<<O...         ",
"         ...o<<<24444444wuuuuuuu<<<<<<<<44444446uuuuuuu8<<<<<<<<<<<O...         ",
"         ...O<<<<<<<3uuuuuuu3<<<<<<<<<<<<<<<uuuuuuu0<<<<<<<<<<<<<<<O...         ",
"         ...o<<<<<<<3uuuuuuu3<<<<<<<<<<<<<<<uuuuuuu0<<<<<<<<<<<<<<<o...         ",
"         ...O<<<<<<<3uuuuuuu3<<<<<<<<<<<<<<<uuuuuuu0<<<<<<<<<<<<<<<O...         ",
"         ...O<<<<<<<<ttttttt<<<<<<<<<<<<<<<<ttttttt9<<<<<<<<<<<<<<<O...         ",
"         ...o<<<<<<<<<<<<<<<<<<<<<<<<<<<<<<<<<<<<<<<<<<<<<<<<<<<<<<O...         ",
"         ...O<<<<<<<<<<<<<<<<<<<<<<<<<<<<<<<<<<<<<<<<<<<<<<<<<<<<<<o...         ",
"         ...O<<<<<<<<<<<<<<<<<<<<<<<<<<<<<<<<<<<<<<<<<<<<<<<<<<<<<<O...         ",
"         ...o<<<<<<<<<<<<<<<<<<<<<<<<<<<<<<<<<<<<<<<<<<<<<<<<<<<<<<O...         ",
"         ...o<<<<<<<<<<<<<<<<<<<<<<<<<<<<<<<<<<<<<<<<<<<<<<<<<<<<<<O...         ",
"         ...O<<<<<<<<<<<<<<<<<<<<<<<<<<<<<<<<<<<<<<<<<<<<<<<<<<<<<<o...         ",
"         ...o<<<<<<<<<<<<<<<<<<<<<<<<<<<<<<<<<<<<<<<<<<<<<<<<<<<<<<O...         ",
"         ...O<<<<<<<<<<<<<<<<<<<<<<<<<<<<<<<<<<<<<<<<<<<<<<<<<<<<<<O...         ",
"         ...O<<<<<<<<<<<<<<<<<<<<<<<<<<<<<<<<<<<<<<<<<<<<<<<<<<<<<<O...         ",
"         ...O<<<<<<<<<<<<<<<<<<<<<<<<<<<<<<<<<<<<<<<<<<<<<<<<<<<<<<o...         ",
"         ...o<<<<<<<<<<<<<<<<<<<<<<<<<<<<<<<<<<<<<<<<<<<<<<<<<<<<<<O...         ",
"         ...O<<<<<<<<<<<<<<<<<<<<<<<<<<<<<<<<<<<<<<<<<<<<<<<<<<<<<<O...         ",
"         ...O<<<<<<<<<<<<<<<<<<<<<<<<<<<<<<<<<<<<<<<<<<<<<<<<<<<<<<O...         ",
"         ...O<<<<<<<<<<<<<<<<<<<<<<<<<<<<<<<<<<<<<<<<<<<<<<<<<<<<<<o...         ",
"         ...o<<<<<<<<<<<<<<<<<<<<<<<<<<<<<<<<<<<<<<<<<<<<<<<<<<<<<<O...         ",
"         ...O<<<<<<<<$$$><<<<<<<<<<<%$$$$$$%<<<<<<<<<<<>$$$<<<<<<<<O...         ",
"         ...O<<<<<<<>...;<<<<<<<<<<<o......O<<<<<<<<<<<;...><<<<<<<O...         ",
"         ...O<<<<<<<>...;<<<<<<<<<<<O......O<<<<<<<<<<<;...><<<<<<<o...         ",
"         ...o<<<<<<<>...;<<<<<<<<<<<O......o<<<<<<<<<<<;...><<<<<<<O...         ",
"         ...O<<<<$$$#   @$$$<<<<%$$$        $$$:<<<<$$$@   #$$$<<<<O...         ",
"         ...O<<<>....   ....><<<O...        ...$<<<>....   ....><<<o...         ",
"         ...o<<<>....   ....><<<O...        ...$<<<>....   ....><<<O...         ",
"         ...O<<<>....   ....><<<o...        ...$<<<>....   ....><<<O...         ",
"             OoOX           XOOo                oOoo           XoOo             ",
"             ....           ....                ....           ....             ",
"             ....           ....                ....           ....             ",
"             ....           ....                ....           ....             ",
"                                                                                ",
"                                                                                ",
"                                                                                ",
"                                                                                ",
"                                                                                ",
"                                                                                ",
"                                                                                ",
"                                                                                ",
"                                                                                "
};
