/* XPM */
static char *bef6269c4e584301eb1bc8a2dfc153ea1zjkKXyRqnlHXjJ3[] = {
/* columns rows colors chars-per-pixel */
"80 80 251 2 ",
"   c None",
".  c #2A2D0B",
"X  c #293902",
"o  c #37390F",
"O  c #5C0A1F",
"+  c #620E1E",
"@  c #690F1E",
"#  c #65111E",
"$  c #6C141E",
"%  c #71131E",
"&  c #563110",
"*  c #722F16",
"=  c #5E0C20",
"-  c #5A1629",
";  c #581E31",
":  c #620D21",
">  c #6A0E21",
",  c #6C1421",
"<  c #671624",
"1  c #741421",
"2  c #7B1522",
"3  c #751921",
"4  c #7B1A23",
"5  c #7A182C",
"6  c #741A2F",
"7  c #5A2737",
"8  c #782427",
"9  c #692634",
"0  c #773439",
"q  c #702A33",
"w  c #2D4400",
"e  c #394903",
"r  c #3B5402",
"t  c #364614",
"y  c #475604",
"u  c #565918",
"i  c #4C5012",
"p  c #4E6604",
"a  c #546904",
"s  c #567405",
"d  c #5B611B",
"f  c #68730D",
"g  c #505231",
"h  c #6F792A",
"j  c #675E22",
"k  c #783846",
"l  c #673A42",
"z  c #593A47",
"x  c #5D554C",
"c  c #724C51",
"v  c #696951",
"b  c #7A6768",
"n  c #70756F",
"m  c #6D5F57",
"M  c #871617",
"N  c #8C1513",
"B  c #90311A",
"V  c #B12D15",
"C  c #821C25",
"Z  c #861828",
"A  c #8C1C30",
"S  c #822226",
"D  c #882426",
"F  c #882632",
"G  c #992C34",
"H  c #983437",
"J  c #8C2F2F",
"K  c #AF2F2E",
"L  c #C83613",
"P  c #DC2E11",
"I  c #86780E",
"U  c #924531",
"Y  c #A84B33",
"T  c #A86825",
"R  c #CF5422",
"E  c #863C48",
"W  c #953D41",
"Q  c #B62D42",
"!  c #984546",
"~  c #864A59",
"^  c #85545D",
"/  c #964F53",
"(  c #A54646",
")  c #AA5656",
"_  c #B35756",
"`  c #B34B49",
"'  c #8A5662",
"]  c #925865",
"[  c #89756D",
"{  c #B1716C",
"}  c #B15E60",
"|  c #C97A75",
" . c #D2655D",
".. c #C3344D",
"X. c #598508",
"o. c #768A03",
"O. c #718F0B",
"+. c #6A9D2E",
"@. c #698A4C",
"#. c #728C76",
"$. c #5CA66A",
"%. c #88950B",
"&. c #8EB20F",
"*. c #8D982D",
"=. c #9DAC2A",
"-. c #CBA024",
";. c #D0CF30",
":. c #D5F62B",
">. c #D2D620",
",. c #928B78",
"<. c #AC8979",
"1. c #88AA7B",
"2. c #CE867D",
"3. c #CF887F",
"4. c #EA9574",
"5. c #F3AB7F",
"6. c #AAD065",
"7. c #DBEF4E",
"8. c #CEE268",
"9. c #9FC834",
"0. c #B37E87",
"q. c #769683",
"w. c #78B190",
"e. c #6EB5A7",
"r. c #53BC8E",
"t. c #73CA9A",
"y. c #7DD2A6",
"u. c #79D0B0",
"i. c #72F0B8",
"p. c #61E89F",
"a. c #4EDCCC",
"s. c #7BDEC2",
"d. c #74E6D8",
"f. c #6BEEE4",
"g. c #78EFE4",
"h. c #7DF1E6",
"j. c #5AE3D4",
"k. c #928C87",
"l. c #AA988C",
"z. c #90B090",
"x. c #B7A797",
"c. c #AFAF99",
"v. c #99BAA6",
"b. c #88AFA8",
"n. c #B8A8A8",
"m. c #A7B6AA",
"M. c #B5B4AA",
"N. c #AFAFA7",
"B. c #CD8B82",
"V. c #CA8E8F",
"C. c #F2A98B",
"Z. c #F6B589",
"A. c #F8B68A",
"S. c #F3B093",
"D. c #C5A3AA",
"F. c #C9ABB3",
"G. c #CBB1B7",
"H. c #D5B6BC",
"J. c #D4ADB1",
"K. c #DEA8A5",
"L. c #90C499",
"P. c #89CAA7",
"I. c #96C7AC",
"U. c #81D3A6",
"Y. c #89D3AA",
"T. c #8AD4B1",
"R. c #89DAB8",
"E. c #93DEBA",
"W. c #9BDAB9",
"Q. c #97CCB3",
"!. c #ACCDB3",
"~. c #9BE4BC",
"^. c #9AE5B9",
"/. c #91E3AE",
"(. c #A3ECBD",
"). c #A9EEBD",
"_. c #A8E6B5",
"`. c #ACF3BE",
"'. c #B2F7BE",
"]. c #B5E9B5",
"[. c #ACDB94",
"{. c #C7D1B8",
"}. c #F5CAB7",
"|. c #F9C9B1",
" X c #CEE8BA",
".X c #D1DF8C",
"XX c #D8BCC3",
"oX c #8DDEC6",
"OX c #ADD4C7",
"+X c #98E8C7",
"@X c #99F5CB",
"#X c #9AE9DB",
"$X c #9CFCD5",
"%X c #88E9CE",
"&X c #A6E8C7",
"*X c #B2EEC7",
"=X c #B5E6CD",
"-X c #ACF2C5",
";X c #B6F7C3",
":X c #B9E8D6",
">X c #A5FDDA",
",X c #B6F9D9",
"<X c #A9EAD7",
"1X c #8BEEE4",
"2X c #83EDE3",
"3X c #94EFE4",
"4X c #98EFE6",
"5X c #94EFE8",
"6X c #88F1E6",
"7X c #9DF1E6",
"8X c #98F2E7",
"9X c #A3F2E6",
"0X c #AAF2E6",
"qX c #A5FCE7",
"wX c #B3F4E6",
"eX c #BBF5E6",
"rX c #BBF6EA",
"tX c #B6F7E9",
"yX c #B1F2E7",
"uX c #DAC3C9",
"iX c #D7C7C8",
"pX c #CAD6C6",
"aX c #D2D3C7",
"sX c #CDCEC6",
"dX c #E8D9D3",
"fX c #C8E6C5",
"gX c #C6E8D9",
"hX c #D2EED5",
"jX c #EAE6DB",
"kX c #C2F6E6",
"lX c #C9F8E7",
"zX c #C3F6EB",
"xX c #CBF5EB",
"cX c #CCF9EB",
"vX c #C6F8E7",
"bX c #DBF6EC",
"nX c #D5F9EA",
"mX c #DCFAED",
"MX c #D5F8E7",
"NX c #CBF9F2",
"BX c #D3F9F2",
"VX c #DAFDF7",
"CX c #CCEEE3",
"ZX c #E4FAED",
"AX c #ECFEEE",
"SX c #E4F8E6",
"DX c #EBFCF4",
"FX c #E6FCF9",
"GX c #FDFEFD",
"HX c #F5FDF9",
"JX c #EEEEE5",
/* pixels */
"                ;X-X-X-X-X-X-X;X-X-X-X;X-X*X*X*X).*X*X*X-X*X*X*X*X*X*X*X*X*X*X*X*X*X*X*X*X*X*X*X*X*X*X*X*X*X*X*X*X*X*X*X*X*X*X*X-X;X&X&X&X~.&X~.+X(.            ",
"              ;X'.;X'.;X'.'.'.'.;X'.'.'.'.'.'.-X'.`.`.`.`.`.-X`.`.`.`.).`.-X`.`.`.).).`.`.-X`.`.`.`.(.-X-X).).).-X).`.`.(.).).(.(.(.~.~.~.^.E.^.W.W.W.=X        ",
"              hX;X;X`.`.`.`.`.`.`.`.`.-X'.`.`.).`.`.`.`.'.`.`.'.`.`.`.`.`.`.`.`.`.].[.m.c.z.v.[._.(.`.`.'.`.-X).`.`.`.`.`.`.`.`.`.`.(.^.E.E.E.^.E.W.!.pX        ",
"                hX&X~.E.E.E.E.^.E.^.^.W.^.^.^.~.~.~.~.~.(.~.~.~.(.(.(.(.(.(.).).).c.<._ ! q ^ ,.z.[.!._._._.).-X'.`.`.`.'.'.`.'.`.`.(.E.E.E.E.W.W.OXsXiX        ",
"                  *X(.+X~.+X~.~.^.^.^.^.W.E.E.E.^.E.E.R.R.E.R.R.R.R.T.R.T.R.R.T.T.z.{ ) W - = - < 9 l b n z.P.T.R.R././.R./.R.R./.R.R./.T.T.W.!.sXiXuX          ",
"                    =X-X*X;X;X;X;X;X`.`.`.`.`.).`.`.`.`.).).`.-X).).-X`.`.).(.-X).c.<.) F = = = = : - - 9 z l b ,.z.I._.(.(.(.(.(.(.^.^.~.&X_.=XpXiXuX          ",
"                    lXhXhX:X,X:X,X*X-X;X;X-X-X-X-X-X).(.(.~.(.(.(.(.).(.).&X).`._.c.l.) W : = = = = = = = = - 9 q c m [ ,.z.L.!._.'.).~.&X(.'.].=XaXuX          ",
"                      AXcXkXyX<X#X3X#X#X#X#X#X+X%XoXoXoXoXoXs.s.s.s.s.s.R.i.%Xu.R.v.[ ( W > = = = = = = = = = = O O O # 9 0 ^ [ k.L.I.^.^.(.'.'.fXpX            ",
"                      AXZXnX9X6Xf.f.f.f.f.f.g.g.2X2X2X2Xd.d.d.j.j.a.a.a.a.a.a.a.a.e.q./ F > = = O O O + O O : = O O O O O O = - ; z #.R.~.;X'.fXfXaX            ",
"                      AXZXnX0X1Xf.f.f.f.f.g.g.h.2X2X#X1X3X1X1X1X1X2X2X2Xd.d.j.j.a.e.q./ W : = = O O O O O + - = = O O O O O O O - ; n u.`.;X'.fXfXaX            ",
"                      AXZXmXyX6Xf.f.f.f.g.g.h.2X2X1X3X1X3X3X3X1X3X3X3X1X1X2X2X2Xd.b.k.} H - = O O O O O O O : = = = O O O O O O O ; n u.^.'.'.'.fXpX            ",
"                      DXAXmXyX5Xg.f.g.g.g.h.6X6X1X3X3X3X3X3X4X4X3X3X3X3X3X3X#X3X4XoXl.} H : = O O O O O O O = + = O O O O O O O - ; n u./.`.'. XfXaX            ",
"                      AXAXmXtX5Xg.f.g.g.h.2X1X1X3X3X4X3X5X5X4X4X3X3X3X3X3X3X3X3X#XOXl.) A 6 : = O O O O O O = # + O O O O O O O - ; n t.U./.'.fXpXaX            ",
"                        AXmXrX8Xh.g.h.h.2X1X1X5X3X4X4X4X7X5X4X4X4X4X4X4X4X4X4X3X#XQ.l.) W 6 : = O O O O O = = - = O O O + O O O - 7 n t.y./.(.].aXaX            ",
"                      AXDXZXrX9X6Xg.h.6X6X5X4X4X4X4X4X4X5X7X5X7X4X4X4X7X7X7X7X7X#Xm.l._ G 1 > : + + O O O = : = : = O O O O O O ; 7 #.t.y.Y./._.sX              ",
"                      DXAXZXzX9X6Xh.6X6X6X5X4X4X4X9X4X9X7X7X9X7X9X4X9X7X9X4X7X7X4XOXl.] G 5 > : + + + O = = : = : = O O O O O O ; 7 n y.y.U.Y.W.sX              ",
"                      AXAXAXzX9X5X2X5X5X5X5X9X7X9X7X7X7X7X9X7X7X7X9X7X9X9X7X9X4X3XOXl.) G 3 $ # # $ @ + = - # # = : = = O O O O ; z n u.u.y.U.Q.sX              ",
"                      AXAXAXxXyX5X5X5X5X5X7X7X9X9X9X9X9X7X7X9X7X9X7X9X7X9X9X9X9X#XOXl.` G 3 < # # $ # # # < O O = O : O O O O O ; z q.t.y.y.Y.Q.{.              ",
"                        AXAXBXzXrXrXrXrXtX0X9X9X9X9X9X9X9X7X9X9X9X9X9X9X9X9X9X9X#XOXl.) G 4 , # $ # $ $ , $ + O O = : = O O O O ; z #.t.y.U.Y.!.                ",
"                      AXAXAXnXxXNXNXNXNXNXNXzXtXyXrXzXzXzXrXyX9X9X9X9X9X9X9X9X9X9XOXc._ G 3 , # # $ $ $ % $ # @ O : = = O O O O ; z q.u.y.U.Q.!.                ",
"                      AXAXAXbXxXBXBXBXBXBXBXNXNXNXNXNXBXNXNXtX0X9X9X9X0X9X0X9X9X<XOXl.) G % % # $ $ $ $ $ % # # # # = = O O O O 7 x q.u.U.Y.!.!.                ",
"                      AXAXDXbXxXBXBXBXBXBXBXBXNXxXBXBXBXBXBXrX0X0X0X0X0X0X9X0X0X9XOXn._ K 8 $ # $ $ $ $ % $ < : $ # < = O O O O 7 x q.u.U.Y.Q.!.                ",
"                      AXAXAXbXBXBXBXBXBXBXBXBXBXBXBXBXBXBXBXrXyXyX0X0X0X0X0X0X0X9XOXn.( G % , # # $ $ $ 3 < * 9 9 % , # O O O O 7 x q.U.U.Y.Q.!.                ",
"                      AXAXAXbXxXCXBXBXNXxXBXxXBXBXxXBXxXBXxXNXkXzXzXzXrXrXyXyXyX0XOXn.) G 8 , # # $ $ % $ 0 n n n 0 , # # O O O z v q.U.U.P.v.M.                ",
"                      AXAXAXnXxXrXrXrXrXeXeXrXrXrXrXrXrXeXrXrXtXtXrXtXtXwXwXwX0X0XOXN._ G % , # # $ $ 3 9 k e.e.e.c < < , @ + = z m w.y.y.P.v.                  ",
"                      AXAXAXbXxXrXyXyXyXwXwXyXyXyXwXwX0X0XwXwXwXyXyXwXtXyXwX0XwX0XOXn._ G C $ # # $ % < 9 m e.d.oX[ 6 < , @ # + 7 v w.y.y.P.v.                  ",
"                      AXAXAXbXCXeXyXyXyXwXyXyXyXwXwXwXwXwXwXwXwXyXyXyXwXwXwXwXwXwX=XM._ K % % # # % 1 6 l n s.s.oXk.k 6 $ $ # + l #.w.y.y.P.c.                  ",
"                      AXAXDXZXxXeXeXwXyXwXwXwXyXwXwXwXwXwXwXwXwXwXwXwXwXwXwXwXwXwX:XM._ G 4 $ $ # $ , 9 c n s.oX%Xk.c k % $ # # 7 #.w.y.y.P.m.                  ",
"                      AXAXAXbXxXkXyXwXeXyXeXwXeXwXwXwXeXwXeXwXeXwXeXtXrXrXrXtXtXwX:XM._ K 4 $ # # $ $ q c q.s.d.oXb.] k 3 $ # # 0 #.w.y.y.P.N.                  ",
"                      AXAXAXbXbXkXeXeXwXeXwXeXeXrXeXtXeXwXeXwXeXeXwXeXrXNXrXrXrXeX:XM._ H 8 $ # # $ $ q m w.oXoXoXe.0.E 5 $ # # c #.w.y.y.P.c.                  ",
"                      AXAXAXZXxXCXeXeXeXeXeXeXeXeXeXeXrXeXeXeXeXeXeXrXrXrXkXrXtXeX:X!._ G 4 $ $ # $ $ q n w.oX+XoXv.k.~ 5 3 # # l #.w.U.y.P.                    ",
"                      AXAXAXZXbXzXeXeXeXeXeXeXeXrXeXeXkXeXeXeXeXeXeXeXkXrXrXrXrXgX:X{._ H 4 $ # # $ $ q n e.oXoX%Xv.k./ F 3 , : c q.w.y.U.P.                    ",
"                      AXAXAXSXbXlXeXeXeXeXrXrXzXNXrXkXeXrXeXeXeXrXkXeXeXkXrXrXkXeXgX!.} G Z % # $ $ $ q #.P.oX+X+Xm.l.] A 6 6 : 0 #.t.U.U.I.                    ",
"                      AXAXZXZXbXlXkXkXkXeXvXNXzXNXkXkXrXkXkXkXkXeXkXkXeXkXkXvXlXBXcX{.} G C , # # $ # 0 #.P.oX&X:X!.n./ A A 5 : c w.t.P.U.v.                    ",
"                      AXAXAXZXbXlXvXeXkXvXvXvXvXvXeXkXkXkXkXkXvXvXlXvXcXvXlXlXBXmXmXaX} H 4 1 # # $ $ 0 q.T.+XOXgX!.n./ A F 5 > c q.L.U.P.v.                    ",
"                      AXAXAXZXbXcXvXvXkXkXvXvXvXvXvXvXlXlXlXvXlXlXlXlXlXlXlXcXnXnXmXsX} H M , # # # # 0 q.E.OXpXgXsXn.) F A Z 5 c w.t.U.L.v.                    ",
"                        AXAXDXbXnXlXvXvXvXvXvXvXvXlXlXnXnXnXcXlXlXlXvXvXlXlXlXlXlXlX{.} H 8 * $ $ $ , 0 z.W.gXCXBXuXG...G A A Z ^ w.L.U.I.v.                    ",
"                        AXAXZXZXnXcXNXcXcXcXvXvXlXlXmXDXDXFXnXvXlXlXlXvXlXlXcXlXlXlXsX} Y Y U J * 8 3 0 c.pXCXjXbXdXXX0.Q W F A m b.t.U.b.m.                    ",
"                        AXAXZXbXVXNXBXVXBXmXBXnXnXmXDXHXHXHXDXnXmXnXBXmXnXnXnXnXcXlX{.{ ` Y U J 8 % $ 0 l.XXdXdXdXdXXX .Q Q G A ^ w.y.y.I.m.                    ",
"                        AXDXJXZXVXVXVXVXVXVXVXVXFXHXHXGXGXHXDXbXmXnXnXnXnXnXnXnXMXMX{.{ ! U D 8 % % % J } V.D.XXuXuXH. ...Q G A ^ P.P.y.v.c.                    ",
"                        AXAXZXZXVXVXVXVXVXVXVXVXFXHXGXGXGXGXDXbXnXcXcXMXcXcXMXlXMXcX{.{ W S 2 , $ 3 % q { V.K.J.uXuXJ. ...Q A A ' P.y.P.v.N.                    ",
"                        AXAXAXZXFXFXVXFXFXVXFXFXHXHXHXDXHXGXHXDXmXMXMXcXMXMXcXMXlXMX{.{ U S 8 3 3 3 3 k D.aXdXSXJXdXXX ...A A A ' T.T.P.v.c.                    ",
"                        HXAXAXZXFXFXFXFXFXVXFXFXDXkX:XkXCXbXHXGXZXMXMXMXMXMXMXMXMXMXaX{ ( Y Y T Y U J U x.sXjXjXbXdXXX_ A A A A ' R.T.I.v.l.                    ",
"                        AXAXAXSXFXFXFXFXFXFXFXcX,X<X&X+X<X=XCXbXmXmXMXMXMXmXMXZXZXAXaX{ ) U U U U 0 8 k l.pXaXhXdXXXn./ A A A 5 c T.T.T.m.n.                    ",
"                        AXAXZXDXFXHXHXFXVXVXNXtX$X@X+X+XoXOX&X:XlXMXMXMXMXSXmXDXHXDXaX{ ( J 8 8 $ < & 0 l.!.{.fXfX{.x.( A Z Z Z b T.I.Q.m.D.                    ",
"                        AXDXZXZXDXFXHXVXNXrX,X>X$X@X@X+X+X+X+X+X:XhXMXMXMXSXDXHXGXHXdX| ! S , # # # , 0 <.{.pXfXfXG.l.W A A Z Z ' P.T.v.N.D.                    ",
"                        AXAXJXDXDXFXFXNXqXqX$X$X$X@X@X@X+X+XE.+X+X&XCXMXSXDXHXGXGXGXdX| ( S 1 # # $ 3 J <.!. XfXfXM.0.W Z Z Z 5 b T.Q.Q.N.D.                    ",
"                        AXAXZXDXDXbXrXtXqXqX>X7X$X$X@X@X+X+X+X+X+X&X:XlXZXHXGXGXGXGXdX| ( S 3 # $ , 1 0 { x. XfXfXx.0.W A Z A 6 b T.Q.v.N.D.                    ",
"                        HXAXAXAXVXNXtXqXqXqX$X$X$X$X$X@X@X~.+X~.+X&X-X:XgXgXgXCXZXHXdX2.( S , # # $ % J { c. X X Xx.{ H 5 Z Z 6 b R.Q.m.N.D.                    ",
"                        AXAXAXZXNXrXqXqX8XqX>XqXqX$X$X@X@X+X(.+X+X+X&X&X&X&XoX<XgXCXaX<.( S 3 # # $ % 0 } <.]. XfXl.} H C Z 5 6 ' T.Q.v.n.D.                    ",
"                        AXAXAXZXNXrXqXqXqXqXtX,X>X>X>X-X@X@X@X+X@X+X<X+XoXoX~.+X+X<X!.{ ! S 3 # # $ % J / <.{. X Xl./ G Z Z Z q b R.Q.m.n.D.                    ",
"                          AXAXbXNXtXqXqXqXqXrXvXkX,X>X>X>X-X-X@X<X+X<X+X+X+X+X@X@Xs.y.n U S % # # $ 8 S H <.{.fX X{ H J Z Z 5 k b Q.Q.m.n.D.                    ",
"                          AXAXZXlXeXqX7X$X>X>XlXSXZXFXAXZXZXjX.X[.].(.@X$X@X@XY.L.p.t.*.U 8 3 # # $ 3 S J ] .XfX X{ Z Z Z 2 5 6 [ T.v.m.n.D.                    ",
"                          AXAXZXlXwX$X%X%XU.L.P.!.fXhXhXfXgX.X8.8.[./.@Xi.d.i.1.#.t.t.[ ! S 3 - # % 4 S D ! x.M.c./ Z Z M 1 6 k b T.m.M.F.F.                    ",
"                          AXAXbXvX0X%Xi.t.$.@.@.1.z.L.#.1.1.6.6.[.[./.i.i.i.p.w.1.I.!.{ ! D 3 # $ $ 8 S S H { [ { H 2 Z Z 2 6 k n T.m.n.n.F.                    ",
"                            AXbXCX>Xs.r.$.d g h @.@.@.h @.@.z./.y.y.t.p.p.p.p.p.[. X{.<.Y D % # # $ % D S S J J J S Z Z 2 2 > k [ T.Q.n.F.G.                    ",
"                            AXbXgX@Xs.$.g u i g u u u d j f $.r.r.$.$.+.+.+.6.6. XjX.X| Y A 3 # # $ 3 4 C C 2 2 4 4 C 2 2 1 5 k n R.m.n.F.G.                    ",
"                            AXSXhX.X6.*.X.d u i u u u u d u *.*.+.+.&.;.9.9.8.6.8.7.7.T Y D % # # , 3 4 C C C M 2 C C C 2 1 6 k [ T.m.F.F.XX                    ",
"                            AXSX X.X;.=.=.I j u i u i & i * V L R R -.-.7.8.8.7.7.:.7.T Y D 4 # # % 1 3 S C C % 2 C C C 2 > 6 l [ R.m.D.F.G.                    ",
"                            AXSXhX.X;.-.;.*.h u i t i . & & N P P P R ;.7.7.7.:.:.:.>.-.V B 4 # # $ 1 3 S S 4 2 2 4 C 4 2 > 9 k n Q.m.D.F.XX                    ",
"                            AXSXdX8.;.>.-.%.I i i i i i & & * B T R ;.;.;.:.:.:.:.:.>.T Y B % # # $ % % S D % % 2 4 Z 2 1 > 6 k [ T.N.D.XXXX                    ",
"                            AXSXhX.X>.-.-.%.I I I I I f f %.o.%.%.*.*.+.+.O.&.&.&.&.&.I B D % # $ $ % % S D S S S 2 2 2 1 > 6 c #.P.m.n.XXXX                    ",
"                            AXSXdX6.%.f f f y i y y a f o.o.O.%.%.O.X.s X.X.O.X.O.O.O.I B B 8 # # $ % 2 4 S S S C 4 2 1 1 > 9 c k.b.m.D.XXXX                    ",
"                            AXSXhX1.i e e e y y y a a %.o.&.%.o.O.O.s s p X.X.X.X.X.f j B D % # # % % % 2 4 S 5 4 4 2 2 > > 9 c n b.N.n.XXXX                    ",
"                            SXMXfX#.t X X w r y s o.%.&.%.%.o.o.f s s a a s s s X.X.s j B S 8 # # # $ % % 4 S S 4 2 3 1 1 > 9 c 0.v.n.XXXXXX                    ",
"                            SXhX=X1.t X X w r a f o.%.%.o.o.f s s a s s a a s s s X.f * B D % # # $ % % % S S 8 2 2 1 % % : k c 0.m.n.XXXXXX                    ",
"                            MXhX:Xk.t w w e r p f o.o.o.s p p p p p p y p p p a s s f j B B % # # $ $ % % 4 % S 2 1 1 1 % : 9 c #.n.n.n.XXuX                    ",
"                            SXMX:Xz.t X t r r s s s s s a y y r r e r r r r r r r r y * * D 3 # # $ $ % % 4 4 4 2 1 % > > : 9 m 0.b.XXXXXXuX                    ",
"                            SXSXCXz.i o o t t y y r e y y X w X X X w w w w w w w w e & S D % $ # $ $ 1 % % 8 % 5 > > > : = 9 b k.n.F.XXXXuX                    ",
"                            SXSXSXz.g o o o o o X . X X X X X X X X X X X X X X X w o & * M % # # # $ % % 8 8 4 > > : : = = 9 m 0.n.F.XXXXuX                    ",
"                          AXAXSXbXc.g o o o . . . . . . X X X X X X X X X X X X X . o * 8 D % # # # % % , , , > : : = : : = 9 b k.n.F.XXuXuX                    ",
"                          AXAXAXJXv.g . . . . . . . . . . . . . . . . . . . . . . . . & B C % # # $ # # > > : : : : : : : : l b 0.D.XXXXuXuX                    ",
"                        HXAXAXAXJX!.,.v v x h x x x v g g g g g g g g g g g g g g g u 0 D D 2 + + # + + + + + : : : : : < 9 c k.k.D.XXXXXXuXuX                  ",
"                      GXHXHXJXJXjX Xc.M.x.x.x.x.x.x.<.c.c.l.<.c.,.l.l.l.,.,.,.,.,.,.[ / H A 1 O O O O + O # + : > 1 5 E ~ ] [ l.N.F.XXXXuXuXuX                  ",
"                    GXGXHXJXdXdX|.|.}.|.}.|.|.|.|.}.}.|.}.}.}.}.}.}.}.}.}.}.}.dX|.|.S.| Y G 2 O O = + + $ % % % M G ( _ | { { { 0.V.D.XXXXuXuXuX                ",
"                  GXJXjX|.|.A.A.A.A.A.A.A.A.A.A.5.A.A.A.A.A.A.A.Z.Z.Z.Z.A.A.A.A.5.C.4. .K G 2 : O + % M V V P L L V V V N N Z N Z A W { F.XXuXuX                ",
"                }.}.|.|.S.S.S.S.A.Z.Z.Z.A.C.A.C.A.C.A.A.A.Z.Z.Z.Z.Z.Z.Z.Z.Z.Z.Z.Z.5.4. .` V K B V V V L V V V V N N N N M M M 2 M M M A G W { V.dX              ",
"            |.|.|.S.S.C.C.S.C.S.Z.S.C.C.C.C.C.C.C.C.C.C.Z.C.C.C.C.C.C.C.C.4.4.4. . .R R L K L V V L V V V N N N N N M M M M M M M 2 2 M M A G ( } 2.            ",
"        V.V.B.B.B.B.B.B.B.2.B.2.B.B.B.B.B.B.B.| 2.2.| B.2.2.3.3.2.2.2.| | |  ._ R Q R R K L L K K G B Z C 4 C Z Z C C C C C C F M Z Z 5 5 5 Z A W ( 0.          ",
"    ~ ~ ~ c ~ ~ ^ ^ ~ ' ~ ] ~ ' ~ ' ~ ~ ~ ~ ] ' ] ] ' ' ] ^ ^ b ' ' ] ^ ! ! W W E E W E E W E W ! W W E E E k k E E k E E E k E k E k E E E E E E ~ E ] 0.      "
};
