/* XPM */
static char *_38cbcda7e7e429fa2ed8f53811014238t0xU50hfiDbcwmm[] = {
/* columns rows colors chars-per-pixel */
"80 80 98 2 ",
"   c None",
".  c #56423B",
"X  c #534B4A",
"o  c #6E5D57",
"O  c #56626D",
"+  c #4A667B",
"@  c #49687F",
"#  c #666060",
"$  c #786F6E",
"%  c #6A6E74",
"&  c #A84B1D",
"*  c #AD521E",
"=  c #B65D20",
"-  c #BF6D26",
";  c #AD782D",
":  c #D17507",
">  c #D27708",
",  c #D57B0C",
"<  c #D87E11",
"1  c #C47226",
"2  c #C97725",
"3  c #CF7E26",
"4  c #827276",
"5  c #D7810F",
"6  c #D8820F",
"7  c #DA8312",
"8  c #DC8B15",
"9  c #DF871A",
"0  c #DF8C1A",
"q  c #DF9018",
"w  c #E0891D",
"e  c #E1941B",
"r  c #E49A1E",
"t  c #D38327",
"y  c #D38D2F",
"u  c #DA8D29",
"i  c #DD922D",
"p  c #E38D21",
"a  c #E69325",
"s  c #E89727",
"d  c #E59B20",
"f  c #E2942F",
"g  c #E9952A",
"h  c #ED9A2F",
"j  c #EE9D30",
"k  c #EAA526",
"l  c #ECA827",
"z  c #EBA42D",
"x  c #EDAA29",
"c  c #F2AC2F",
"v  c #F1B22E",
"b  c #EFA131",
"n  c #EEA238",
"m  c #F1A432",
"M  c #F3AB34",
"N  c #F2A43B",
"B  c #F4A83F",
"V  c #F5B336",
"C  c #F6BB34",
"Z  c #F8BE36",
"A  c #F7B638",
"S  c #F7B838",
"D  c #F9BC3A",
"F  c #F9C137",
"G  c #FBC43B",
"H  c #FFCD3F",
"J  c #97887E",
"K  c #EEA241",
"L  c #ECA349",
"P  c #F7AF48",
"I  c #FAB44E",
"U  c #EFAB54",
"Y  c #EBAB5C",
"T  c #F0AE58",
"R  c #FAB550",
"E  c #FDBA55",
"W  c #FEBE5A",
"Q  c #EAAC67",
"!  c #E9B26C",
"~  c #E8B97D",
"^  c #F3B970",
"/  c #807E80",
"(  c #958A82",
")  c #928494",
"_  c #A29793",
"`  c #BCB4B1",
"'  c #EEC186",
"]  c #B0A5C0",
"[  c #BFB6D7",
"{  c #C5BCDC",
"}  c #D1C9C3",
"|  c #CBC3D9",
" . c #E1C8CB",
".. c #F5DFC9",
"X. c #E1CBD4",
"o. c #EEDCD6",
"O. c #E1D7DC",
"+. c white",
/* pixels */
"                                                                                                                                                                ",
"                                                                                                                                                                ",
"                                                                                          : :                                                                   ",
"                                                                                        : : : :                                                                 ",
"                                                                                        : : : :                                                                 ",
"                                                                            > >         : : : : :                                                               ",
"                                                                          : : : :       : : : : : :                                                             ",
"                                                                          : : : : :     : : : : : :                                                             ",
"                                          h h h                         : : : : : :   : : : : : : : :                                                           ",
"                                        h h h h h                       : : : : : : : : : : : : : : :                                                           ",
"                                          h h h h h h                   : : : : : : : : : : : : : : :                                                           ",
"                                          h h h h h h h                   : : : : : : : : : : : : : : :                                                         ",
"                                          h h h h h h h h       > :       : : : : : : : : : : : : : : :                                                         ",
"                                            h h h h h h h h   > : : :     : : : : : : : : : : : : : : :                                                         ",
"                                    h       h h h h h h h h g > : : : :   : : : : : : : : : : : : : : : :                                                       ",
"                                h h h h h h   h h h h h h h h p : : : : : : : : : : : : : : : : : : : : :                                                       ",
"                                h h h h h h h h h h h h h h h h 9 : : : : : : : : : : : : : : : : : : : :                                                       ",
"                                h h h h h h h h h h h h h h h h h < : : : : : : : : : : : : : : : : : : :                                                       ",
"                                  h h h h h h h h h h h h h h h h g > > : : : : : : : : : : : : : , , : : :                                                     ",
"                                  h h h h h h h h h h m M j h h h h a > : : : : : : : : : : : > r F , : : :                                                     ",
"                                    h j h h h h h h h G S G D j h h h 9 : : : : : : : : : : > l H C : : : :     H                                               ",
"                                      h h h h h h h j G h h M G M j h h < : : : : : : : : : e H H C : : : :   H H                                               ",
"                                        h h h h h h h D M h h j V M h h a > : : : : : : : : C G H G , : : : x H H                                               ",
"                                          h h h h M M M D h h h j M M h h 9 : : : : : : : > F V G H l > : : M G H H                                             ",
"                                h h h h h h h j D V V D G M h h j h j m j h , : : : : : : : V D M H G k > > h M G H                                             ",
"                              h h h h h h h h j A h j j M M j h h h h j h h p : : : : : : : p M n M G H F q 0 b j G H                                           ",
"                              h h h h h h h h j D j h h h j h h j h h h h h h < : : : : : : , g h h j M G G G G V m M G                                         ",
"                                h h h h h h h h V M h h h h h h h h h h h j j p : : : : : : : > 0 s s h h b b M V A D D G H                                     ",
"                                  h h h h h h h j V M j j j h h h h h h h h h h < : : : : : : : : : : > 7 k G H H H H H H H H H H                               ",
"                                    h h h h h j m M G M j h h h h h h h h h h h a : : : : : : : : : > 7 Z H H H H H H H H H H H H H                             ",
"                                      h h h h S V M V M M m h h h h h h h h h h h 7 : : : : : : : > q G H H H H H H H H H H H H H H H                           ",
"                                        h h h D j h j h j N j h h h h h h h h h h s > : : : : : : 6 H H H H H H H H H H H H H H H H H H                         ",
"              H H H H               h h h h j V M h h h h h h h h h h h h h h h h h a k x V v Z F G H H H H H H H H D m h h m D H H H H H                       ",
"            H H H H H H H         h h h h h h h S S h h h h h h h h h h h h h h h h j G H H H H H H H H H H H H H G U } { | ..U Z H H H H M N                   ",
"            H H H H H H H H       h h h h h h h h M D m h h h h h h h h h h h h h h h m H H H H H H H H H H H H H j X.) . ` +.o.n H H H G n E R N               ",
"          H H H H H H H H H H       h h h h h h m D D M V j h h h h h h h h h h h h h h V H H H H H H H H H H H G Y [ . . o _ 4 Y D H H D h j R W K             ",
"          H H H H H H H H H H H H     h j h h h D j j j h h h h h h h h h h h h h h h h j D H H H H H H H H H H D Q ] X . . X # Q D H H m i ; f N R B           ",
"          H H F H H H H H H H H H H       h h h m D m h h h h h h h h h h h h h h h h h j m G H H H H H H H H H G K O.O + % @ ( K G H Z h j y u h h P B         ",
"        H H H G r q x F H H H H H H H   h h h h j j V D M m h h h h h h h h h h h h h h j h M H H H H H H H H H H M ^ } $ / J ! N H D j h h h h h h h B j       ",
"        H H H H H F r 8 q l H H H H H M h h h h h j M A m h h h h h h h h h h h h h h h h h h V H H H H H H H H H H M T ' ~ U M H G m h h h h h h h h h j       ",
"      H H H H H H H H F k 8 6 r C H G j j h h h h h D h h h h h h h h h h h h h h h h h h h h h S H H H H H H H H H H D A V D H D j h h h h h h h h h h h h     ",
"      H H H H H H H H H H H v q , e v h h h h h h m D h h h h h h h h h h h h h h h h h h h h h j D H H H H H H H H H H H H D N j h h h h h h h h h h h h h     ",
"        H H H H H H H G F G H H G v e s h h h h h h M D m j h h h h h h h h h h h h h h h h h h j j G H H H H H H H H H H b h h h h h j h h h h h h h           ",
"        H H v k 8 6 5 5 5 , 5 > 6 8 e d s h h h h h h m V D D D M h h h h h h h h h h h h h h h h h b G H H H H H H H H H c g h h h h j h h g h                 ",
"      H H H H H H G G G G F F F F C x r e Z D M m h h h h h h A j h h h h h h h h h h h h h h h h h m G H H H H H H H H H G q , 7 7 7 < , ,                     ",
"      H H H H H H H H H H H F l 8 7 r G H H H H H H D h h h h A h h h h h h h h h h h h h h h h h N H H H H H H H H H H H H H x 7 , , , ,                       ",
"      H H H H H H H H G x q 5 8 l G H H H H H H H H M h h h h V h h h h h h h h h h h h h h h j V H H H H H H H H H H H H H H H H F Z G                         ",
"      H H H H H H C r 6 8 k Z H H H H H H H     H H j h h h h j N j h h h h h h h h h h h h M G H H H H H H H H H H H H H H H H H H H                           ",
"        H H H F r q v F H H H H H H H H H         H j h h h h h h j j h h h h h h h h h b S H H H H H H H H H H H H H H H H H H H                               ",
"        H H H H H H H H H H H H H H H               m h h h h h h h h h h j h h h h j A H H H H H H H H H H H H H H H H H H H                                   ",
"        H H H H H H H H H H H H H H                   h h h h h h h h h h h h h b S H H H H H H H H H H H H H H H H                                             ",
"        H H H H H H H H H H H H                         j h h h h h h h j m A G H H H H H H H H H H H H H H H H H                                               ",
"        H H H H H H H H H H                               G D A V A D G H H H H H H H H H H H H H H H H H H H H                                                 ",
"          H H H H H H H                                     H H H H H H H H H H G Z H H H H H H H H H H H H                                                     ",
"            H H H H                                             H H H H H G Z v c c H H H H H H H H H H                                                         ",
"                                                                    H H Z c c V D H H H H H H H H H                                                             ",
"                                                                    M c c V G H H H H H H G H                                                                   ",
"                                                                c M c c           y 1 - -                                                                       ",
"                                                                c c c             & &                                                                           ",
"                                                                    c c c       & & * z M c           & & & &                                                   ",
"                                                                      c c c c   & * i z u z c       & &     &                                                   ",
"                                                                          c c c   c c 3 1 3 2 &   & & & & & &                                                   ",
"                                                                              c c c c c c c t & & & & & &   *                                                   ",
"                                                                              c c c c c   c z - &     & & & &                                                   ",
"                                                                            c c       c c c c *           & &                                                   ",
"                                                                            M v c       c M   & & &       & &                                                   ",
"                                                                                        c v               &                                                     ",
"                                                                                        c                                                                       ",
"                                                                                                                                                                ",
"                                                                                                                                                                ",
"                                                                                                                                                                ",
"                                                                                                                                                                ",
"                                                                                                                                                                ",
"                                                                                                                                                                ",
"                                                                                                                                                                ",
"                                                                                                                                                                ",
"                                                                                                                                                                ",
"                                                                                                                                                                ",
"                                                                                                                                                                ",
"                                                                                                                                                                "
};
