/* XPM */
static char *_729039d388c4012c5b6ca9df22320e93gSnwL9K3oHOnyu5[] = {
/* columns rows colors chars-per-pixel */
"80 80 98 2 ",
"   c None",
".  c #56423B",
"X  c #534B4A",
"o  c #6E5D57",
"O  c #56626D",
"+  c #4A667B",
"@  c #49687F",
"#  c #666060",
"$  c #786F6E",
"%  c #6A6E74",
"&  c #A84B1D",
"*  c #AD521E",
"=  c #B65D20",
"-  c #BF6D26",
";  c #AD782D",
":  c #D17507",
">  c #D27708",
",  c #D57B0C",
"<  c #D87E11",
"1  c #C47226",
"2  c #C97725",
"3  c #CF7E26",
"4  c #827276",
"5  c #D7810F",
"6  c #D8820F",
"7  c #DA8312",
"8  c #DC8B15",
"9  c #DF871A",
"0  c #DF8C1A",
"q  c #DF9018",
"w  c #E0891D",
"e  c #E1941B",
"r  c #E49A1E",
"t  c #D38327",
"y  c #D38D2F",
"u  c #DA8D29",
"i  c #DD922D",
"p  c #E38D21",
"a  c #E69325",
"s  c #E89727",
"d  c #E59B20",
"f  c #E2942F",
"g  c #E9952A",
"h  c #ED9A2F",
"j  c #EE9D30",
"k  c #EAA526",
"l  c #ECA827",
"z  c #EBA42D",
"x  c #EDAA29",
"c  c #F2AC2F",
"v  c #F1B22E",
"b  c #EFA131",
"n  c #EEA238",
"m  c #F1A432",
"M  c #F3AB34",
"N  c #F2A43B",
"B  c #F4A83F",
"V  c #F5B336",
"C  c #F6BB34",
"Z  c #F8BE36",
"A  c #F7B638",
"S  c #F7B838",
"D  c #F9BC3A",
"F  c #F9C137",
"G  c #FBC43B",
"H  c #FFCD3F",
"J  c #97887E",
"K  c #EEA241",
"L  c #ECA349",
"P  c #F7AF48",
"I  c #FAB44E",
"U  c #EFAB54",
"Y  c #EBAB5C",
"T  c #F0AE58",
"R  c #FAB550",
"E  c #FDBA55",
"W  c #FEBE5A",
"Q  c #EAAC67",
"!  c #E9B26C",
"~  c #E8B97D",
"^  c #F3B970",
"/  c #807E80",
"(  c #958A82",
")  c #928494",
"_  c #A29793",
"`  c #BCB4B1",
"'  c #EEC186",
"]  c #B0A5C0",
"[  c #BFB6D7",
"{  c #C5BCDC",
"}  c #D1C9C3",
"|  c #CBC3D9",
" . c #E1C8CB",
".. c #F5DFC9",
"X. c #E1CBD4",
"o. c #EEDCD6",
"O. c #E1D7DC",
"+. c white",
/* pixels */
"                                                                                                                                                                ",
"                                                                                                                                                                ",
"                                                                    > :                                                                                         ",
"                                                                  > > : >                                                                                       ",
"                                                                  : : : >                                                                                       ",
"                                                                > : : : :         : >                                                                           ",
"                                                              > : : : : >       : : : >                                                                         ",
"                                                              > : : : : >     > : : : >                                                                         ",
"                                                            : : : : : : : :   : : : : : >                         h h h                                         ",
"                                                            : : : : : : : : > : : : : : >                       h h h h h                                       ",
"                                                            : : : : : : : : : : : : : : >                   h h h h h h                                         ",
"                                                          > : : : : : : : : : : : : : :                   h h h h h h h                                         ",
"                                                          > > : : : : : : : : : : : : :       > >       h h h h h h h h                                         ",
"                                                          : : : : : : : : : : : : : : :     : : > :   h h h h j h h h                                           ",
"                                                        : : : : : : : : : : : : : : : :   : : : > > g h h h h h h h h       h                                   ",
"                                                        : : : > : : : : : : : : : : : : > > : : > w h h h h h h h h   h h h h h h                               ",
"                                                        > > > > : : : : : : : : : : : : : : : : 9 h h h h h h h h h h h h h h h h                               ",
"                                                        : : > > : : : : : : : : : : : : : : : < h h h h h h h h h h h h h h h h h                               ",
"                                                      > : : > > : : : : : : : : : : : : : : > g h h h h h h h h h h h h h h h h                                 ",
"                                                      > : : , F r : : : : : : : : : : : : > a h h h h h M m h h h h h h h h h h                                 ",
"                                                H     > : : : C H k > : : : : : : : : : : w h h h b D G S G j h h h h h h h h                                   ",
"                                                H H   > : : : C H H e : : : : : : : : : < g h h M G m h j G j h h h h h h h                                     ",
"                                                H H x : : : > H H G C > : : : : : : : > g h h V V j h h M G h j h h h h h                                       ",
"                                              H H G M : : > l H G V F > : : : : : : : w h h M M j h h j S M m M j h h h                                         ",
"                                              H G M h : > l H H M D V > > : : : : : , h h m m h h h h M G D A M D h h h h h h h h                               ",
"                                            H D m j 9 e C H G b m M p : > : : : : : w h h h h h h h j N M j h h A m h h h h h h h h                             ",
"                                          G M b V G G H G M h h j g , : : : : : : < h h h h h h h h h j j h h h D j h h h h h h j h                             ",
"                                      H G G D D V M b j h h s a w > > : : : : : : g h h h h h h h h h h h h h A M h h h h h h h z                               ",
"                                H H H H H H H H H H H k , , : : : : : : : : : : < h h h h h h h h h h h j h M A h h h h h h h h                                 ",
"                              H H H H H H H H H H H H H C 7 : : : : : : : : : : g h h h h h h h h h h h h A D M m h h h h h h                                   ",
"                            H H H H H H H H H H H H H H H G q : : : : : : : : < h h h h h h h h h h h m M M A M A A h h h h                                     ",
"                          H H H H H H H H H H H H H H H H H G 8 : : : : : : > g h h h h h h h h h h j m j h j h h G h h h                                       ",
"                        H H H H H D m h h m D H H H H H H H H H C C C v x k a h h h h h h h h h h h h h h h h h M V h h h h h               H H H H             ",
"                    N B H H H H D U ..| {  .L S H H H H H H H H H H H H H G h h h h h h h h h h h h h h h j h A A j h h h h h j         H H H H H H H           ",
"                N I W j G H H H n o.+.` . ) X.h H H H H H H H H H H H H H M h h h h h h h h h h h h h h j m D M h j h h h h h h       H H H H H H H H           ",
"              B W R j j S H H G Y 4 _ o . . [ Q G H H H H H H H H H H H V h h h h h h h h h h h h h h j V M S D j j h h h h j       H H H H H H H H H H         ",
"            P I N f ; u m G H D Y # X . . X ] Q G H H H H H H H H H H G h h h h h h h h h h h h h h h h h h j m D h h h h h     H H H H H H H H H H H H         ",
"          K P h h i y j h S H G K ( @ % @ O O.K G H H H H H H H H H G b h h h h h h h h h h h h h h h j h h m D m h h h       H H H H H H H H H H G H H         ",
"        j K h h h h h h h j G H M ! J 4 $ } ^ M H H H H H H H H H H M h h h h h h h h h h h h h h h h m m S A j j h h h h   H H H H H H H F x q r H H H H       ",
"        j j h h h h h h h j j G H M U ' ' T M H H H H H H H H H H V h h h h h h h h h h h h h h h h h h m A M j h h h h h M H H H H H x q 6 q F H H H H H       ",
"      h h h h h h h h h h h h m Z H D V A D H H H H H H H H H H S h h h h h h j h h h h h h h h h h h h h h D j h h h h h j G H F r 6 8 k F H H H H H H H H     ",
"      h h h h h h h h h h h h h j m D H H H H H H H H H H H H D j j h h h h h h h h h h h h h h h h h h h h S b h h h h h h M e 6 q v H H H H H H H H H H H     ",
"            h h h h h h h h h h j j j m H H H H H H H H H H G j h h h h h h h h h h h h h h h h h h j j M S M j h h h h h a e v F G G G G F G H H H H H H       ",
"                  h g h h h h h h g f z H H H H H H H H H G j j h h h h h h h h h h h h h h h h M S D S V m h h h h h h s r q 8 5 5 5 5 5 5 6 8 q r C H H       ",
"                      , < 7 7 7 7 , 0 H H H H H H H H H H H m j h h h h h h h h h h h h h h h h m A h h h h h h b M Z F r r x C F F F F G G G G H H H H H H     ",
"                        , , , , 7 k H H H H H H H H H H H H H M h h h h h h h h h h h h h h h h h A h h h h D H H H H H H F r 6 8 k F H H H H H H H H H H H     ",
"                          G C F H H H H H H H H H H H H H H H H V j j h h h h h h h h h h h h h j V h h h j V H H H H H H H H G k q 5 q x G H H H H H H H H     ",
"                            H H H H H H H H H H H H H H H H H H H G m j h h h h h h h h h h h j m j h h h j j H H     H H H H H H H F k q 6 r C H H H H H H     ",
"                                H H H H H H H H H H H H H H H H H H H S j h h h h h h h h h j j j h h h h h h H         H H H H H H H H H F x r r F H H H       ",
"                                    H H H H H H H H H H H H H H H H H H H S h h h h h h h h h h h h h h h h m               H H H H H H H H H H H G H H H       ",
"                                              H H H H H H H H H H H H H H H H S m h j h h h h h h h h h j j                   H H H H H H H H H H H H H H       ",
"                                                H H H H H H H H H H H H H H H H H G V m j h h h h h h h j                         H H H H H H H H H H H H       ",
"                                                  H H H H H H H H H H H H H H H H H H H H G D S V A S G                               H H H H H H H H H H       ",
"                                                      H H H H H H H H H H H H S G H H H H H H H H H H                                     H H H H H H H         ",
"                                                          H H H H H H H H H H v c c S H H H H H H                                             H H H H           ",
"                                                              H H H H H H H H H F V c c C H H                                                                   ",
"                                                                    H H H H H H H H G V c c M                                                                   ",
"                                                                        - - 1 y           c c c c                                                               ",
"                                                                            & &             c c c                                                               ",
"                                                    & & & &           c M z & & &       c c c                                                                   ",
"                                                    &     & &       c z i k i * &   c c c c                                                                     ",
"                                                    & & & & & &   & 2 3 1 3 c c   c c c                                                                         ",
"                                                    &   & & & & & & t c c c c c c c                                                                             ",
"                                                    & & & &     & = c c   c c c c c                                                                             ",
"                                                    & &           * c c c c       c c                                                                           ",
"                                                    & &       & & &   c c       c c c                                                                           ",
"                                                      &               c c                                                                                       ",
"                                                                        c                                                                                       ",
"                                                                                                                                                                ",
"                                                                                                                                                                ",
"                                                                                                                                                                ",
"                                                                                                                                                                ",
"                                                                                                                                                                ",
"                                                                                                                                                                ",
"                                                                                                                                                                ",
"                                                                                                                                                                ",
"                                                                                                                                                                ",
"                                                                                                                                                                ",
"                                                                                                                                                                ",
"                                                                                                                                                                "
};
