/* XPM */
static char *_bbbb62c5736463cd315de9cd4200697rEBQdEkdJAzfXVhn[] = {
/* columns rows colors chars-per-pixel */
"80 80 106 2 ",
"   c None",
".  c #56423B",
"X  c #534A49",
"o  c #515257",
"O  c #75645E",
"+  c #525E69",
"@  c #49697F",
"#  c #6F6767",
"$  c #7A716F",
"%  c #6E6E73",
"&  c #787170",
"*  c #A94C1D",
"=  c #AE511A",
"-  c #B45717",
";  c #B65915",
":  c #BA5D13",
">  c #B0551F",
",  c #BE6212",
"<  c #B45A20",
"1  c #BD6523",
"2  c #B47C2D",
"3  c #C3670F",
"4  c #CA6E0B",
"5  c #CE7209",
"6  c #D17507",
"7  c #D27608",
"8  c #D57A0C",
"9  c #C16410",
"0  c #D77E10",
"q  c #D87E11",
"w  c #C06A23",
"e  c #CC7A26",
"r  c #D7810F",
"t  c #D8820F",
"y  c #DA8413",
"u  c #DC8B15",
"i  c #DF871A",
"p  c #DF881C",
"a  c #DF9018",
"s  c #E1891D",
"d  c #E1941B",
"f  c #E4981F",
"g  c #C6862E",
"h  c #D08B2E",
"j  c #DE882B",
"k  c #DD902A",
"l  c #E48E22",
"z  c #E69125",
"x  c #E89327",
"c  c #E79E21",
"v  c #E99D24",
"b  c #EA962B",
"n  c #E69C2C",
"m  c #ED9A2F",
"M  c #EE9D31",
"N  c #ED9F3B",
"B  c #E9A324",
"V  c #E5A22B",
"C  c #EBA52A",
"Z  c #EDAB29",
"A  c #F2AC2F",
"S  c #F1B32E",
"D  c #EDA232",
"F  c #EAAE37",
"G  c #EEA13E",
"H  c #F0A332",
"J  c #F3AA34",
"K  c #F1A239",
"L  c #F5B434",
"P  c #F6BC35",
"I  c #F8BF36",
"U  c #F7B738",
"Y  c #F7B838",
"T  c #F9BC3A",
"R  c #F8C037",
"E  c #FCC53C",
"W  c #FFCD3F",
"Q  c #EFA545",
"!  c #F2A740",
"~  c #F5AA42",
"^  c #F9B34D",
"/  c #EDAC5C",
"(  c #FDBA55",
")  c #FEBD58",
"_  c #EAAC66",
"`  c #F3BC76",
"'  c #F3BE79",
"]  c #F3BF7C",
"[  c #476F8A",
"{  c #8F818B",
"}  c #908290",
"|  c #A3958C",
" . c #AF9C8C",
".. c #ACA29F",
"X. c #AEA3BD",
"o. c #EBCFBC",
"O. c #F3D4B4",
"+. c #C1B9DA",
"@. c #D0C9C5",
"#. c #D4CECD",
"$. c #DFCEDE",
"%. c #E2C6C1",
"&. c #D5CDE6",
"*. c #D0C7E9",
"=. c #E4DDE2",
"-. c white",
/* pixels */
"                                                                                                                                                                ",
"                                                                                                                                                                ",
"                                                                                                                                                                ",
"                                                                                                                                                                ",
"                                                                                                                                                                ",
"                                                                                                                                                                ",
"                                                                                                                                                                ",
"                                                                                                                                                                ",
"                                                                                                                                                                ",
"                                                                                                                                                                ",
"                                                                                                                                                                ",
"                                                                                                                                                                ",
"                                                                                                                                                                ",
"                                                                                                                                                                ",
"                                                                                                                                                                ",
"                                                                                                                                                                ",
"                                                                                                                                                                ",
"                                                                                                                                                                ",
"                                                                                                                                                                ",
"                                                              W                                                                                                 ",
"                                                W             W W                                                                                               ",
"                                                W W           W W W                                                                                             ",
"                                                W W           W E W W                                                                                           ",
"                                              W W E L       W W E E W                                                                                           ",
"                                              W W L M       W W J E E                                                                                           ",
"                                            W E H M     W W W J K U H                                                                                           ",
"                                          W Y M H E W W E Y M M M M                                                                                             ",
"                                        E T L T L J J H m m M M D                                                                                               ",
"                                  W W W W W W W W W E                                                                                                           ",
"                              W W W W W W W W W W W W W W                                                                                                       ",
"                            W W W W W W W W W W W W W W W W                                                                                                     ",
"                          W W W W W W W W W W W W W W W W W W                                                                                                   ",
"                        W W W W W E H M M D E W W W W W W W W W W W W W                                                                   W W W W               ",
"                      M W W W W E G O.&.*.%.G R W W W W W W W W W W W W W W W W W W                                                   W W W W W W W             ",
"                  ~ ) K E W W W H o.-.#.. } $.M W W W W W W W W W W W W W W W W W W W W W                                           W W W W W W W W             ",
"              K ( ) Q M J W W E G { ..O . . +./ E W W W W W W W W W W W W W W W W W W W W W W                                     W W W W W W W W W W           ",
"            K ( ~ M 2 h m E W E Q $ X . . o X._ E W W W W W W W W W W W W W W W W W W W W W W W W                             W W W W W W W W W W W W           ",
"          M ^ M m n g m m J W W m  .[ % @ + =.G E W W W W W W W W W W W W W W W W W W W W W W W W W                         W W W W W W W W W R R W W           ",
"          ! M m m m m m m m T W L / | $ # @.' J W W W W W W W W W W W W W W W W W W W W W W W W W W W W                   W W W W W W W R B u B W W W W         ",
"        m m m m m m m m m m m T W J G ' ] Q J W W W W W W W W W W W W W W W W W W W W W W W W W W W W W W               W W W W W W Z t 7 B W W W W W W         ",
"        m m m m m m m m m m m m Y W E Y Y R W W W W W W W W W W W W W W W W W W W W W W W W W W W W W W W W           W W W W R d 7 u Z W W W W W W W W W       ",
"        m m m m m m m m m m m m M C U E W W W W W W W W W W W W W W W E P L S B B Z Z Z S L P E W W W W W W W       W W W S y r c R W W W W W W W W W W W       ",
"            m m M m m m m M m m m m m m W W W W W W W W W W W L f y 8 7 6 6 7 8 7 7 7 7 7 6 6 7 7 y d S E W W W W W W P a f R E E R R R P R R E W W W W         ",
"                    z b m m m m m m b m W W W W W W W W W P z z x b b n m m m m M M m m m m b z p 8 6 6 6 a E W W W Z a d u r 8 7 r 7 7 r t t a B P W W         ",
"                      7 7 7 8 0 0 7 u W W W W W W W W W W E m m m m m m m m m m m m m m m m m m m m z 7 6 6 r W W W W S a d S E W W W W W W W W W W W W W       ",
"                          u 8 r u S W W W W W W W W W W W W Y m m m m m m m m m m m m m m m m m m m m p 6 6 6 E W W W W W R d 7 y S W W W W W W W W W W W       ",
"                            W W W W W W W W W W W W W W W W W D m m m m m m m m m m m m m m m m m m n 8 6 6 u W W W W W W W W W Z y 6 u S W W W W W W W W       ",
"                              W W W W W W W W W W W W W W W W R m m m m m m m m m m m m m m m m m m z s y 7 7 7 7   W W W W W W W W R Z t r B W W W W W W       ",
"                                W W W W W W W W W W W W W W W W J m m m m m m m m m m m m m m m m m m m m m s 6 6 6 8   W W W W W W W W W E P f P W W W         ",
"                                      I E E W W W W W W W W W W E m m m m m m m m m m m m m m m m m m m m m M s 6 6 6     W W W W W W W W W W W W W W W         ",
"                                      6 6 6 8 P W W W W W W W W W T m m m m m m m m m m m m m m m m m m m m m q 6 6 6         W W W W W W W W W W W W W         ",
"                                    6 6 6 6 7 7 Z W W W W W W W W W H m m m m m m m m m m m m m m m m b l q 7 7 6 8               W W W W W W W W W W W         ",
"                                  6 6 6 6 6 6 6 7 a E W W W W W W W E M m m m m m m m m m m m m m M m m m m l y 8 7 7 7               W W W W W W W W W         ",
"                                6 6 6 6 6 6 6 6 6 6 7 Z W W W W W W W L m m m m m m m m m m m m m m m m m m m m m z 8 6 7 7               W W W W W W           ",
"                              6 6 6 6 6 6 6 6 6 6 6 6 6 t S W W W W W W H m m m m m m m m m m m m m m m m m m m m m m 0 6 6 6 8               W W               ",
"                            6 6 6 6 6 6 6 6 6 6 6 6 6 6 7 6 8 B T W W W E m m m m m m m m m m m m m m m m m m m m m z 8 6 6 7 7                                 ",
"                          6 6 6 6 6 6 6 6 6 6 6 6 6 6 6 6 6 6 6 7 8 a V F D m m m m m m m m m m m m m m m m b i 8 8 6 6 6 6 6                                   ",
"                          6 6 6 6 6 6 6 6 6 6 6 6 6 6 6 6 6 6 6 7 7 6 6 3 * j m m m m m m m m m m m m m m m m m b s 8 6 6 8                                     ",
"                        6 6 6 6 6 6 6 6 6 6 6 6 6 6 3 = * 3 6 6 6 6 6 r y   = M m m m M m m m m m m m m m m m m m m m y 6 6 7 8                                 ",
"                      6 6 6 6 6 6 6 6 6 6 6 6 6 6 6 * = : * , 7 6   v A A n > 1 m m m m m m m m m m m m m m m m m m m m 0 6 6 6 7                               ",
"                    6 6 6 6 6 6 6 6 6 6 6 6 6 6 6 6 3 - : , * 5 5   A e > k C   m m m m m m m m m m m m m m m m m m m b 8 6 6 6 6                               ",
"                    6 6 6 6 6 6 6 6 6 6 6 6 6 6 6 3 * = * * * * * * w n A A A J A m m m m m m m m m m m m m b i q q 8 6 6 6 6 6 6                               ",
"                  6 6 6 6 6 6 6 6 6 6 6 6 6 6 6 6 - * 3 * * * * *   A A   A A A A A m m m m m m m m m m m m m m b s 7 6 6 6 7 7                                 ",
"                  6 6 6 6 6 6 6 6 6 6 6 6 6 6 6 6 4 - * *       * 1 A   A A       J   m m m m m m m m m m m m m m M M l 0 6 6 8                                 ",
"                  6 6 6 6 6 6 6 6 6 6 6 6 6   6 6 6 = *       * * *   A A       A A     m m m m m M m m m m m m M m m m m l 7 7 7 8                             ",
"                  6 6 6 6 6   6 6 6 6 6 6 6         * *         *     J           A       m m m m m m m m m m m m m m m m m b q 6 6 7                           ",
"                  6 6 6 6       6 6 6 6 6                             J A                   m m m m m m m m m m m m m m m m m m 8 7 6 7                         ",
"                    6 6           6 6 6                                                       m m m m m m m m m m m m m m m m m z 7 6 6 7                       ",
"                                                                                                  m m m m m m m m m m m m m m m z 6 6 6 7                       ",
"                                                                                                      m m m m m m m m m m m m b 8 6 6 6 7                       ",
"                                                                                                              m m m m M b z i 7 7 7 6 7                         ",
"                                                                                                                      8 7 6 7 7 6 8                             ",
"                                                                                                                                                                ",
"                                                                                                                                                                ",
"                                                                                                                                                                ",
"                                                                                                                                                                ",
"                                                                                                                                                                ",
"                                                                                                                                                                ",
"                                                                                                                                                                ",
"                                                                                                                                                                "
};
