/* XPM */
static char *_0ef16c885b74310a812338d9c0e615eJKSZRJ47ndOuBKbw[] = {
/* columns rows colors chars-per-pixel */
"80 80 106 2 ",
"   c None",
".  c #56423B",
"X  c #534A49",
"o  c #515257",
"O  c #75645E",
"+  c #525E69",
"@  c #49697F",
"#  c #6F6767",
"$  c #7A716F",
"%  c #6E6E73",
"&  c #787170",
"*  c #A94C1D",
"=  c #AE511A",
"-  c #B45717",
";  c #B65915",
":  c #BA5D13",
">  c #B0551F",
",  c #BE6212",
"<  c #B45A20",
"1  c #BD6523",
"2  c #B47C2D",
"3  c #C3670F",
"4  c #CA6E0B",
"5  c #CE7209",
"6  c #D17507",
"7  c #D27608",
"8  c #D57A0C",
"9  c #C16410",
"0  c #D77E10",
"q  c #D87E11",
"w  c #C06A23",
"e  c #CC7A26",
"r  c #D7810F",
"t  c #D8820F",
"y  c #DA8413",
"u  c #DC8B15",
"i  c #DF871A",
"p  c #DF881C",
"a  c #DF9018",
"s  c #E1891D",
"d  c #E1941B",
"f  c #E4981F",
"g  c #C6862E",
"h  c #D08B2E",
"j  c #DE882B",
"k  c #DD902A",
"l  c #E48E22",
"z  c #E69125",
"x  c #E89327",
"c  c #E79E21",
"v  c #E99D24",
"b  c #EA962B",
"n  c #E69C2C",
"m  c #ED9A2F",
"M  c #EE9D31",
"N  c #ED9F3B",
"B  c #E9A324",
"V  c #E5A22B",
"C  c #EBA52A",
"Z  c #EDAB29",
"A  c #F2AC2F",
"S  c #F1B32E",
"D  c #EDA232",
"F  c #EAAE37",
"G  c #EEA13E",
"H  c #F0A332",
"J  c #F3AA34",
"K  c #F1A239",
"L  c #F5B434",
"P  c #F6BC35",
"I  c #F8BF36",
"U  c #F7B738",
"Y  c #F7B838",
"T  c #F9BC3A",
"R  c #F8C037",
"E  c #FCC53C",
"W  c #FFCD3F",
"Q  c #EFA545",
"!  c #F2A740",
"~  c #F5AA42",
"^  c #F9B34D",
"/  c #EDAC5C",
"(  c #FDBA55",
")  c #FEBD58",
"_  c #EAAC66",
"`  c #F3BC76",
"'  c #F3BE79",
"]  c #F3BF7C",
"[  c #476F8A",
"{  c #8F818B",
"}  c #908290",
"|  c #A3958C",
" . c #AF9C8C",
".. c #ACA29F",
"X. c #AEA3BD",
"o. c #EBCFBC",
"O. c #F3D4B4",
"+. c #C1B9DA",
"@. c #D0C9C5",
"#. c #D4CECD",
"$. c #DFCEDE",
"%. c #E2C6C1",
"&. c #D5CDE6",
"*. c #D0C7E9",
"=. c #E4DDE2",
"-. c white",
/* pixels */
"                                                                                                                                                                ",
"                                                                                                                                                                ",
"                                                                                                                                                                ",
"                                                                                                                                                                ",
"                                                                                                                                                                ",
"                                                                                                                                                                ",
"                                                                                                                                                                ",
"                                                                                                                                                                ",
"                                                                                                                                                                ",
"                                                                                                                                                                ",
"                                                                                                                                                                ",
"                                                                                                                                                                ",
"                                                                                                                                                                ",
"                                                                                                                                                                ",
"                                                                                                                                                                ",
"                                                                                                                                                                ",
"                                                                                                                                                                ",
"                                                                                                                                                                ",
"                                                                                                                                                                ",
"                                                                                                  W                                                             ",
"                                                                                                W W             W                                               ",
"                                                                                              W W W           W W                                               ",
"                                                                                            W W W W           W W                                               ",
"                                                                                            W E E W W       L E W W                                             ",
"                                                                                            T E J W W       M U W W                                             ",
"                                                                                            H L J H W W W     M H E W                                           ",
"                                                                                              M m m M U W W W T H M U W                                         ",
"                                                                                                H D m m m H J J U Y U U E                                       ",
"                                                                                                            W W W W W W W W W W                                 ",
"                                                                                                        W W W W W W W W W W W W W W                             ",
"                                                                                                      W W W W W W W W W W W W W W W W                           ",
"                                                                                                    W W W W W W W W W W W W W W W W W W                         ",
"                W W W W                                                                   W W W W W W W W W W W W W E H M M H E W W W W W                       ",
"              W W W W W W W                                                   W W W W W W W W W W W W W W W W W W E G %.*.&.O.N E W W W W M                     ",
"              W W W W W W W W                                           W W W W W W W W W W W W W W W W W W W W W C $.} . #.-.o.D W W W E N ) ~                 ",
"            W W W W W W W W W W                                     W W W W W W W W W W W W W W W W W W W W W W E _ +.. . O ..{ N W W W J m ! ( ( K             ",
"            W W W W W W W W W W W W                             W W W W W W W W W W W W W W W W W W W W W W W W T _ X.o . . X $ Q E W W M h 2 M ! ( K           ",
"            W W R W W W W W W W W W W                         W W W W W W W W W W W W W W W W W W W W W W W W W W G =.+ @ % [  .M W W H M b g b M M ^ M         ",
"          W W W W B u c R W W W W W W W                   W W W W W W W W W W W W W W W W W W W W W W W W W W W W J ' @.# & | / U W U m b M m m M m M !         ",
"          W W W W W E B r t B W W W W W W               W W W W W W W W W W W W W W W W W W W W W W W W W W W W W W J ! ] ' K J W Y M m m m m M b M b M M       ",
"        W W W W W W W W W S t 6 d R W W W W           W W W W W W W W W W W W W W W W W W W W W W W W W W W W W W W W E U U E W L M m m m m m m m m m m m       ",
"        W W W W W W W W W W W R B 8 u S W W W       W W W W W W W W I L L Z C C C Z S S P E W W W W W W W W W W W W W W W E U M m m m m m m m m m m m m m       ",
"          W W W W E R R P R R R E E R f d S W W W W W W E S d y 7 6 6 6 7 7 7 7 8 7 6 6 6 6 7 y f L W W W W W W W W W W W m M M m m m m m m m m m m m           ",
"          W W I c a u r r 6 6 r 8 8 8 u d a C W W W E u 6 6 6 8 p z b m m m M m m m m m m m b v z z z P W W W W W W W W W C x m m m m m m b x                   ",
"        W W W W W W W W W W W W W W S d a S W W W W t 6 6 7 l m m m m m m m m m m m m m m m m m m m m W W W W W W W W W W E p 7 0 0 8 8 7 6                     ",
"        W W W W W W W W W W W Z u 8 d R W W W W W E 7 7 6 i m m m M m m m m m m m m m m m m m m m m L W W W W W W W W W W W W L u 8 8 u                         ",
"        W W W W W W W W S a 6 t Z E W W W W W W W W i 7 6 0 m m m m m m m m m m m m m m m m m m m M W W W W W W W W W W W W W W W W W                           ",
"        W W W W W W B r t B E W W W W W W W W   7 7 7 7 q i l m m m m m m m m m m m m m m m m m m E W W W W W W W W W W W W W W W W                             ",
"          W W W P f S W W W W W W W W W W   8 6 6 7 l b m m m m m m m m m m m m m m m m m M M b J W W W W W W W W W W W W W W W W                               ",
"          W W W W W W W W W W W W W W W     6 6 6 s m m m m m m m m m m m m m m m m m m m b M M E W W W W W W W W W W E E R                                     ",
"          W W W W W W W W W W W W W         7 6 6 q m m m m m m m m m m m m m m m m m m m m M U W W W W W W W W W R 8 6 6 6                                     ",
"          W W W W W W W W W W W               8 6 7 7 q l b m m m m m m m m m m m m m m m m H W W W W W W W W W Z 6 6 6 6 6 6                                   ",
"          W W W W W W W W W               6 6 6 7 y l b M m m m m m m m m m m m m m m m b M E W W W W W W W E a 6 6 6 6 6 6 6 6                                 ",
"            W W W W W W               7 6 6 0 z M M m m m m m m m m m m m m m m m m m m M L W W W W W W W Z 7 6 6 6 6 6 6 6 6 6 6                               ",
"                W W               0 6 6 6 q M m m m m m m m m m m m m m m m m m m m m m H W W W W W W S r 6 6 6 6 6 6 6 6 6 6 6 6 6                             ",
"                                  7 6 6 7 7 z M m m m m m m m m m m m m m m m m m m m m E W W W E B 8 6 6 6 6 6 6 6 6 6 6 6 6 6 6 6 6                           ",
"                                    7 6 6 6 6 7 0 s b m m M m m m m m m m m m m b M m D F V d 8 6 6 6 6 6 6 6 6 6 6 6 6 6 6 6 6 6 6 6 6                         ",
"                                      8 6 6 7 s b m m m m m m m m m m m m m m m M M j * 3 7 6 6 6 6 6 6 6 6 6 6 6 6 6 6 6 6 6 6 6 6 6 6                         ",
"                                  0 7 6 6 y m m m m m m m m m m m m m m m m m m m b >   8 r 6 6 6 6 6 , = * 3 6 6 6 6 6 6 6 6 6 6 6 6 6 6                       ",
"                                7 6 6 6 q m m m m m m m m m m m m m m m m m m m m 1 > C J A v   6 6 , * : = = 6 6 6 6 6 6 6 6 6 6 6 6 6 6 6                     ",
"                                6 6 6 6 8 b m m m m m m m m m m m m m m m m m m m   C k > e A   6 5 * , : - , 6 6 6 6 6 6 6 6 6 6 6 6 6 6 6 6                   ",
"                                6 6 6 6 6 6 8 q q s b m m m m m m m m m m m m M A J J A A n w * * = * * * = * 3 6 6 6 6 6 6 6 6 6 6 6 6 6 6 6                   ",
"                                  7 6 6 6 6 7 s b m m m m m m m m m m m m m m H A A A A   A A   * * * * * , = - 6 6 6 6 6 6 6 6 6 6 6 6 6 6 6 6                 ",
"                                  8 6 6 0 l m m m m m m m m m m m m m m m m   A       A A   F 1 *       * * - 5 6 6 6 6 6 6 6 6 6 6 6 6 6 6 6 6                 ",
"                              8 7 6 7 l m m m m m m m m m m m m m m m m m     A A       A A   * * *       * = 7 7 6   6 6 6 6 6 6 6 6 6 6 6 6 6                 ",
"                            7 6 6 y m m m m m m m m m m m m m m m m m m       A           A     *         * *         6 6 6 6 6 6 6   6 6 6 6 6                 ",
"                          6 6 6 8 m m m m m m m m m m m m m m m m m M                   A J                             6 6 6 6 6       6 6 6 6                 ",
"                        8 6 6 6 z m m m m m m m m m m m m m m m m m                                                       6 6 6           6 6                   ",
"                        6 6 6 6 z M m m m m M m m m m m m m m m                                                                                                 ",
"                        7 6 6 6 8 b m M m m b M m m m M m m                                                                                                     ",
"                          7 6 6 7 7 y z b M m M m m                                                                                                             ",
"                              8 6 7 7 7 7 8                                                                                                                     ",
"                                                                                                                                                                ",
"                                                                                                                                                                ",
"                                                                                                                                                                ",
"                                                                                                                                                                ",
"                                                                                                                                                                ",
"                                                                                                                                                                ",
"                                                                                                                                                                ",
"                                                                                                                                                                "
};
