/* XPM */
static char *_34db867044a4277e3b669cdf155b471UW9I4BdvpPZvNFyk[] = {
/* columns rows colors chars-per-pixel */
"80 80 108 2 ",
"   c #A55E2B",
".  c #A95F2D",
"X  c #AC622E",
"o  c #B0662F",
"O  c #B2692F",
"+  c #AF6230",
"@  c #B56633",
"#  c #B86734",
"$  c #B66934",
"%  c #BA6B35",
"&  c #BA6C39",
"*  c #BE7034",
"=  c #BE713A",
"-  c #C16F36",
";  c #C37336",
":  c #C77837",
">  c #C87837",
",  c #C3743A",
"<  c #C97639",
"1  c #C67A3E",
"2  c #CC7A3A",
"3  c #D27E3C",
"4  c #C67C41",
"5  c #CA7E41",
"6  c #D5813D",
"7  c #DB853E",
"8  c #CD8243",
"9  c #CF8847",
"0  c #CE8848",
"q  c #D38543",
"w  c #DD8640",
"e  c #D48946",
"r  c #DD8A43",
"t  c #DD8C45",
"y  c #DE8D46",
"u  c #D18948",
"i  c #D38B49",
"p  c #D58B48",
"a  c #D78C48",
"s  c #D68D49",
"d  c #D48D4B",
"f  c #DA8E49",
"g  c #DB8F49",
"h  c #DC8E48",
"j  c #D6914E",
"k  c #D7924E",
"l  c #DF9048",
"z  c #DE914A",
"x  c #DD924B",
"c  c #DE934B",
"v  c #DA944F",
"b  c #DF944D",
"n  c #DE974F",
"m  c #DB9751",
"M  c #DB9852",
"N  c #DD9952",
"B  c #DE9B53",
"V  c #E08840",
"C  c #E08940",
"Z  c #E18940",
"A  c #E08841",
"S  c #E18941",
"D  c #E08A41",
"F  c #E28A41",
"G  c #E18A42",
"H  c #E18B43",
"J  c #E38C42",
"K  c #E38C43",
"L  c #E38D43",
"P  c #E18D45",
"I  c #E28D44",
"U  c #E48E44",
"Y  c #E48F44",
"T  c #E19046",
"R  c #E49046",
"E  c #E59147",
"W  c #E0924A",
"Q  c #E3934A",
"!  c #E59348",
"~  c #E3944A",
"^  c #E2944B",
"/  c #E5954B",
"(  c #E7964A",
")  c #E3964C",
"_  c #E2974D",
"`  c #E8974B",
"'  c #E7984B",
"]  c #E2994F",
"[  c #E7994D",
"{  c #E5994E",
"}  c #E99C4F",
"|  c #E29950",
" . c #E39C52",
".. c #E49D52",
"X. c #E19C54",
"o. c #E29E55",
"O. c #E49F54",
"+. c #E89E51",
"@. c #E99E51",
"#. c #EA9F52",
"$. c #E4A257",
"%. c #EAA355",
"&. c #ECA354",
"*. c #ECA657",
"=. c #E5A55A",
"-. c #E9A558",
";. c #E9A85B",
":. c #ECA859",
/* pixels */
"& # # @ @ @ @ @ @ @ @ @ @ @ @ # @ @ # @ @ # # @ @ # @ @ @ # @ # @ @ @ @ @ @ @ @ @ @ @ @ @ @ @ @ @ @ @ @ @ # @ # @ @ @ @ # @ @ @ @ @ @ # @ @ # # # @ @ @ # @ @ @ ",
"& # @ # # # @ # # @ @ # # @ @ @ @ # @ @ @ @ @ @ @ @ # @ @ @ @ @ @ @ # @ # @ @ # # @ @ # @ # # @ @ # @ @ @ @ @ @ @ @ # # @ # # $ # # # # # # # # # # # @ @ @ @ # ",
"& $ $ & - # # # @ # @ @ # @ @ @ @ @ # # @ @ @ @ @ @ @ @ # @ @ @ # @ # @ @ @ @ @ @ @ # # @ # @ @ # # # @ # @ @ # # @ @ $ # # % % # - % - % % % % # # # # @ @ @ @ ",
"& & = , - - - % @ @ @ @ @ @ @ # @ # # # # @ @ # @ # @ @ @ @ @ @ @ @ @ @ # @ @ # # @ @ # # $ & & $ $ # # @ @ @ # @ @ # # , 1 < , < < < > < , < - ; - - % # - # @ ",
"& 4 5 q q 3 < - # @ @ @ @ # # # # # # # # # # # @ @ # @ @ @ # @ @ @ @ @ @ # @ @ # # # $ & & , 4 4 = & # # # # # @ # # = 0 q w w 6 6 7 3 6 6 6 6 3 3 3 2 < - # @ ",
"& 4 a y K 5 3 < % # @ # @ # - - < 5 - - # # # # # @ @ @ @ @ @ @ @ # @ @ @ @ @ @ # & & = 5 8 8 u 0 5 5 1 , % # # # # # 4 k g F r F Z Z Z 7 Z F F 7 Z V 3 3 < # @ ",
"& 5 ^ P K V 3 3 - # # # # , 5 5 5 3 3 < < - - # @ # @ @ @ @ @ @ # @ @ # @ @ # @ $ = 8 j X.$.O...| ) f q 5 < ; # # @ # 4 X.) F F F F F F F F F 7 V V V V 3 < # @ ",
"& 5 ) P K K V 3 , # # # & 5 a z K K 3 3 3 < - - # # @ @ @ # @ @ @ @ @ @ # @ @ # = 8 j $.-.-.&.#.| [ [ f a 6 < % # @ % 5 X./ F F F F F F F F F F V Y V Y 3 ; # o ",
"& 8 ! y 7 r 7 6 ; # @ & 1 a ) T F F F F 3 3 3 3 - # @ # @ # @ @ @ @ @ # @ @ # # 4 M O.:.@.! ! E Y Y K K K V 3 3 % # % 4 ^ ) ! H F F F F F F F F K V R 7 6 X X + ",
"& 2 e 7 7 6 2 ; # # & 4 e z ' P F F F F F Y F 3 < - - # # @ @ @ # @ @ @ @ # & 4 5 O.*.:.[ K F F K F K F F Y 3 3 < % % , d f ! K F F F F F F F F V V Z 6 ; X . @ ",
"& = ; > ; % $ @ $ & 4 u ] ! R K F F F F K F F 3 3 3 - - # # @ @ @ @ @ @ @ # - u ^ [ / E Y K F F F F F F F F 3 F q 3 ; , 4 a ! Y F F F F F F F F K V 7 ; o X . @ ",
"& % % ; O X X X $ 1 u n } ! K V F F F F F F F F V 3 3 < - # # @ @ # @ @ # & 4 m ../ H S F F F F F F F F F F F F V 3 2 < , q ^ P R F F F F F F Z Z 7 2 o X X @ @ ",
"& $ $ @ @ @ + @ , u n [ T Y V K F F F F F F F F F F 3 3 2 - # @ @ @ # @ # 4 u x / K K S F F F F F F F F F F F F F F S 3 - 4 q ^ ~ Z 7 F K V V 7 7 > O X   @ @ @ ",
"& $ @ @ @ @ $ & 8 x [ ! V K Y V F F F F F F F F F F Y F 3 ; - @ @ @ # # - 5 x E Y K F F F F F F F F F F F F F F F V V 3 < 4 5 t ~ K K F V K V 6 2 O X X @ @ @ @ ",
"& $ @ @ # # % 1 a  .R Y F F Z Z F F F F F F F F F F F F 7 3 ; # # @ @ - 4 f x E K K F F F F F F F F F F F F F F F F S 3 5 < , 5 a y Z Z K 7 7 : X X X X @ @ @ @ ",
"& $ @ @ $ # , 8 n [ Y F F F F F F F F F F F F F F F F F V 7 > % # # # - u z / Y S V F F F F F F F F F F F F F F F F K H S 5 - 5 6 u 7 7 7 7 2 *     X O # @ @ # ",
"& $ @ @ & & 5 M ! Y H F F F F F F F F F F F F F F F F F Z 7 2 % # # # 5 W E K K F F F F F F F F F F F F F F F F F F F F S 3 3 < , 1 , 2 ; ; X X X X @ @ @ @ # @ ",
"& $ @ @ & 4 a ] Y Y V F F F F F F F F F F F F F F F F F Z 7 2 $ # # - 4 E E K F F F F F F F F F F F F F F F F F F F F F F 3 5 < ; % % % $ X X X o @ @ @ @ @ @ @ ",
"& @ @ & 4 a n T Y Z F F F F F F F F F F F F F F F F F F Z 7 : $ # & 5 a E H F F F F F F F F F F F F F F F F F F F F F F F F 3 3 < $ @ @ O X @ X @ @ @ @ @ # # @ ",
"& & @ & 5 / / P Y F F F F F F F F F F F F F F F F F F F Z 7 > @ # & 5 P P F F F F F F F F F F F F F F F F F F F F F F F F F F F 3 % @ @ @ @ @ @ @ @ @ @ @ @ @ @ ",
"& & # 4 5 ! R P Y Z Z F F F F F F F F F F F F F F F F F 7 6 ; @ # , q P F F F F F F F F F F F F F F F F F F F F F F F F F F F F 3 - # @ @ @ @ @ @ @ # @ @ @ @ @ ",
"& # # 8 x T P H F F F F F F F F F F F F F F F F F F F F 7 2 * $ % 4 y T F F F F F F F F F F F F F F F F F F F F F F F F F F F F 7 > - # @ # @ @ @ % # # # @ # @ ",
"& & & a / K K V F F F F F F F F F F F F F F F F F F K K 7 ; % $ , q y V F F F F F F F F F F F F F F F F F F F F F F F F F F F F 7 3 ; @ @ @ @ # # @ % $ # @ @ @ ",
"& & - g [ Y F F F F F F F F F F F F F F F F F F F Y 7 7 6 * $ & 8 e Y V F F F F F F F F F F F F F F F F F F F F F F F F F F F F V 7 , @ # @ # % = , 2 , # $ # @ ",
"# & & d ' K Z Z K K Z Z F F F F F F F F F F F F F F V 7 > $ % , u P P F F F F F F F F F F F F F F F F F F F F F F F F F F F F F V Z 2 O O @ @ = 8 e f 6 < @ @ @ ",
"& & & e z K V K Z Z Z K F F F F F F F F F F F F F F 7 3 ; X = 5 g ! Y F F F F F F F F F F F F F F F F F F F F F F F F F F F F F Z K 6 % $ @ @ , e g ! V < @ @ @ ",
"& & & 5 7 r K V Z Z Z K F F F F F F F F F F F F V V 7 2 % @ , u t Y F F F F F F F F F F F F F F F F F F F F F F F F F F F F F F K V 6 % $ @ @ , u g Y 3 ; X @ @ ",
"& # # & 2 7 V V K K Z Z F F F F F F F F F F F F Y 6 2 ; $ # 1 x P F V F F F F F F F F F F F F F F F F F F F F F F F F F F F F F 7 Z 2 * % @ @ ; q q 3 2 % X   @ ",
"& # @ & & 2 7 7 Z Z K Z Z K F F F F F F F F F F V 3 ; o @ % 2 ! Y F F F F F F F F F F F F F F F F F F F F F F F F F F F F F F F F F 6 ; # @ $ # , * % $ X @ @ @ ",
"& # @ @ # , 2 7 Z K Z Z Z Z F F F F F F F F Y V 7 2 @ X $ , u R P F F F F F F F F F F F F F F F F F F F F F F F F F F F F F F F V Y 2 % $ @ # $ @ $ X X   @ @ @ ",
"& # @ @ @ @ % 2 7 Z Z K K Y Z F F F F F F F F w 6 ; X O % 4 q R Y V F F F F F F F F F F F F F F F F F F F F F F F F F F F F F F V V > O $ @ @ @ @ @ @ @ @ @ @ @ ",
"& @ @ @ @ + $ * 3 7 Z Z Z Z Z F F F F F F F F 6 > % X O = 8 a Y Y F F F F F F F F F F F F F F F F F F F F F F F F F F F F F F F V 7 2 X @ $ @ @ @ @ @ @ @ # @ # ",
"# # @ @ @ @ @ # ; 3 7 V V Y V K K Z Z K V r 7 2 # @ + @ , u g P V F F F F F F F F F F F F F F F F F F F F F F F F F F F F F F F 7 7 ;   X $ @ @ % @ @ @ @ # @ @ ",
"& # @ @ @ @ @ X $ ; 6 6 7 7 K V Z Z K V V 7 6 ; X + # # , g ! H F F F F F F F F F F F F F F F F F F F F F F F F F F F F F F V S 6 2 O   o @ @ @ @ @ @ @ @ @ @ @ ",
"& # @ # @ @ @ @ O $ % ; 3 7 7 T Z K r Z 7 6 * $ + @ # # 4 m ! V F F F F F F F F F F F F F F F F F F F F F F F F F F F F F F S 6 ; $ X + @ @ @ @ # @ @ # # @ @ # ",
"& & @ @ @ @ @ @ o O o O ; > 6 6 7 7 7 6 2 * O X @ # # & 2 x ! F F F F F F F F F F F F F F F F F F F F F F F F F F F F F F 7 6 > $   X @ @ @ @ @ @ @ @ @ @ @ @ @ ",
"& & @ @ @ @ @ # % @ @ o @ @ o ; 2 6 > ; $ X # X @ @ @ & 2 x P F F F F F F F F F F F F F F F F F F F F F F F F F F V Y 7 7 2 - o X X + # # # @ # # @ @ @ # @ @ @ ",
"& @ @ @ @ @ @ @ @ @ @ @ + X X $ * ; * O X   @ @ @ @ $ = 5 x W F F F F F F F F F F F F F F F F F F F F F F F F F F Y 6 6 6 ; X X   $ # & % & = - , - - % # @ @ # ",
"& @ @ @ # @ @ @ @ @ @ @ @ X X @ o @ O X + + @ @ @ @ $ = 5 ^ ! F F F F F F F F F F F F F F F F F F F F F F F F Y F V 7 6 * $ X X @ # = 1 8 8 u u q q 5 ; # @ # @ ",
"& @ @ @ @ @ @ @ # @ # @ @ @ @ @ @ o X o @ @ @ # @ # $ % 2 x P F F F F F F F F F F F F F F F F F F F F F F F F 7 7 6 > * X X X $ = 1 8 u e f y g K a e , # # @ @ ",
"& # @ @ @ @ @ @ # @ @ # @ @ @ @ @ @ @ @ @ @ @ @ @ @ # & 2 g P F F F F F F F F F F F F F F F F F K Z Z Z V T 7 7 6 ; $ o o @ % 4 u x x W Y y Y P Y Z r > # # @ @ ",
"& # @ @ @ # @ # @ # @ @ @ @ @ $ @ @ @ @ @ @ @ @ @ # @ # 1 f Y F F F F F F F F F F F F F F F F F Z Z K K K 7 7 2 * O X . o % 4 e x ..[ ! Y H F F V V V 2 - # @ @ ",
"& @ @ @ @ @ @ @ # # # # # # # # @ @ @ @ @ @ @ @ @ @ @ $ , a t V F F F F F F F F F F F F F F F F Z Y r Z r 7 : X X X X O $ 2 a ) ! ! Y F P F F F Z V Z 3 ; O @ @ ",
"& & @ @ # @ # @ # % & # # # # # @ @ @ @ @ @ @ % @ @ # @ = q w V F F F F F F F F F F F F F F F F Z Z Z 7 6 3 $   X X o $ & 8 ) [ ! F F F F F F F F F Z 3 > @ @ # ",
"& # @ @ @ + # @ & , 4 4 < - - - # # # # @ # @ @ # @ @ # & 2 6 F Y F F F F F F F F F F F F F F F F Z 7 2 % X X X + @ # & 4 u [ T Y F F F F F F F F F V 7 3 o o # ",
"& # # @ # & & & 4 8 q q 5 3 < < < - - # # # # # @ @ @ @ # , 3 6 F F F F F F F F F F F F F F F V 7 7 2 * @   X # @ # # = 8 f ! P F F F F F F F F F F F F 3 O o o ",
"& @ # # # & 5 j g H Y F V V V 6 3 3 3 < - # # @ # @ @ @ % % - 3 w F F F F F F F F F F F F F F w 6 ; O O + + + @ # @ # , a y R Y F F F F F F F F F F F F 3 $ O @ ",
"& @ # # & 4 a X...! F F V F F F F V V 3 2 > - % $ @ # # # # - ; 2 6 w F F F F F F F F F F w 6 2 ; O X X + @ # @ # @ $ , f P F V F F F F F F F F F F F F 6 $ @ @ ",
"& & + + 4 j | / / K F F F F F F F F Z Z 7 3 3 2 # # # @ @ @ # @ % ; 6 7 F F Z Y Y V V V 7 3 ; @ X X X o o # @ @ @ # # , g t F F F F F F F F F F F F F F 6 % O @ ",
"& & # & 5 ..X./ E F F F F F F F F F F F F V V 3 < - # # @ # @ @ O % 2 3 6 6 7 r 7 7 6 6 2 ; o .   X @ @ # @ # @ @ @ # , a Y F F F F F F F F F F F F F F 6 * $ $ ",
"& & # & 4 #.@.Y F F F F F F F F F F F F F V F 7 3 2 - # # # @ # $ O % * ; > ; > 2 ; ; $ O o . . . @ @ # @ @ @ @ @ @ @ , y t F F F F F F F F F F F F F F 6 ; $ @ ",
"& # # 4 a @.( K F F F F F F F F F F F F F F F V V 3 2 - # # @ @ @ @ o @ % % * * * % O o X o @ @ # @ @ @ # @ @ # @ # @ , e t F F F F F F F F F F F F F F 6 ; % # ",
"& & & 4 M X.E K F F F F F F F F F F F F F F F F V V 3 3 ; # @ @ @ @ @ @ @ $ $ $ O % O $ # @ @ # # @ @ @ @ @ @ @ # # # - q r V V F F F F F Z Z Z F F F F 7 ; $ @ ",
"& + & j X.W Y S F F F F F F F F F F F F F F F F V F S 3 < - @ @ @ @ @ @ $ & = = * % - - - - # # # # # @ # @ @ # @ # # - 5 w V V F Z F F F Z Y K F F F F 6 ; % @ ",
"& @ & j X.! V H F F F F F F F F F F F F F F F F F F V w 2 # # # @ # @ % % 4 9 q 3 3 2 3 3 < < - - - # # @ # @ @ @ @ # % < 3 V F V Y F F F F Y Z F F F F 6 ; o O ",
"& & & j $.! V V F F F F F F F F F F F F F F F F F F K S 3 - # # @ @ @ % , u m t r 7 6 6 3 3 3 3 > < ; - # # @ @ @ @ # % - 3 3 w 7 Z F F F F 7 K F F F F 6 ; O O ",
"& # & m #.H F F F F F F F F F F F F F F F F F F K V V 7 3 - # @ @ @ @ = 0 m %.y V V V V 7 V 7 7 V 7 3 2 - # # # @ # @ # # % - < 3 7 V V K V r V V V V V 3 + + @ ",
"& # - | :.K F F F F F F F F F F F F F F F F F F V K V V 3 % # # @ # # 4 m $.&.! F F F F F F F F V V V 6 2 % # O @ @ @ @ # # # % : 2 6 6 7 7 7 7 7 7 7 6 - . + @ ",
"& & - M *.K F F F F F F F F F F F F F F F F F F Y Z V 7 3 % $ @ @ @ @ 8 $.$.@.Y F F F F F F F F V Y V V 3 - % # @ @ @ # @ @ # % $ % % , ; : 2 : 2 > ; O o . + @ ",
"& # & | :.H F F F F F F F F F F F F F F F F F F F V V 7 3 % # @ @ # @ 2 =.@.` Y F F F F F F F F V V V V 3 < % @ @ # @ @ @ @ @ $ @ X $ @ O ; % * * % O . . . + @ ",
"& # & M *.H K F F F F F F F F F F F F F F F F F F F F 7 2 % $ @ @ # # 4 =.@.[ Y F F F F F F F F V F F F 6 ; % @ # @ @ % @ @ @ @ % @ @ + @ o @ o O o X X + @ @ @ ",
"& @ & B *.E F F F F F F F F F F F F F F F F F F F F Z 7 2 # @ # @ @ @ 8 =.%.! K F F F F F F F F F F F V 6 * O # @ @ @ & & , = , , - # @ @ + + + O X X X + @ @ @ ",
"& # & B #.E F F F F F F F F F F F F F F F F F F Z Y Z 6 > $ @ @ @ @ # 5 ;.@.! K F F F F F F F F F F F V 2 % @ @ @ @ $ & , q a u 0 5 < & # @ o @ @ o o o @ @ @ @ ",
"& & & M O.E F F F F F F F F F F F F F F F F F F V V Z 6 , @ @ @ @ # # 5 ;.@.R Y F F F F F F F F F F V 7 2 o @ @ # @ $ , u j m ) f f q < , % # # # # # # @ @ # @ ",
"& & & 0 M P P V F F F F F F F F F F F F F F F F F F Z 3 ; @ O # @ # @ 5 ;.@.! Y V F F F F F F F F F V 6 ; X X % $ $ & 5 | ) ! P K y w a q 2 & # @ @ @ @ @ @ @ # ",
"& # & 0 j m Y F Z Z F F F F F F F F F F F F F F F F Z 2 - @ @ @ @ @ @ 5 =.@.R Y F F F F F F F F F F V 2 % X X # $ # , 0 ..! Y V V V K Y r 3 , % @ @ @ @ @ @ @ @ ",
"& @ @ & 8 | [ V F Z V Z F F F F F F F F F F F F F Z 7 > % @ @ @ @ @ @ 4 $...! Y F F F F F F F F F V 7 > @ @ o @ # # 1 u [ ! V Y F F F Y V 6 2 - @ @ @ @ # @ @ @ ",
"& @ @ & = a x w Y Y V Z F F F F F F F F F F F F F Z 7 ; $ @ @ @ @ @ # 4 B X.[ R F F F F F F F F F S 6 - X X o # $ % 4 a ! R K V F F F F V 7 3 , @ @ @ @ @ @ @ # ",
"& @ # @ & = 8 9 r r K Y K V K V F F F F F F Z F 7 7 : * @ $ $ # # @ @ , 0 z @.R F F F F F F F F V 6 2 # X @ @ @ # % 8 a ! Y F F F F F F F w 3 ; + @ @ @ @ @ # @ ",
"& # @ @ $ $ = 1 6 6 7 7 V K V K F F F F F F Y F P 6 * % % , , ; - % # & , a ) P F F F F F F V S V 3 % o o @ @ @ $ % 8 a ! Y F F F F F F F V 2 & + @ @ @ # @ @ @ ",
"& @ $ % $ $ O $ * > 6 7 Y Z Y V F F F F F V F 7 7 > $ & 1 f y q 5 < # $ & 5 f y Y F F F F F F t 6 ; . @ @ @ @ @ # & 8 z ! Y F F F F Z F Z 7 2 % + + @ @ @ @ # @ ",
"& & $ & $ $ O X O % > 6 7 7 7 V F F F F F Z 7 7 > * + = 0 [ ! T r 2 , $ $ , 8 w Y V F F F F V 3 2 O . X @ @ @ @ $ $ 8 f ! Y F V F F Y V Z 7 ; % + @ @ @ # @ @ @ ",
"& $ & = , # # @ @ @ $ * 2 6 6 7 K V 7 Z 7 7 6 ; % O @ 1 a T K K V 6 2 % @ % 2 q V F V V Z V 6 2 O o X @ @ @ @ @ @ # < q ! P V Y F F F F V 7 ; O @ @ @ @ @ @ @ @ ",
"& & = 5 2 - % # @ X X O % ; 2 6 6 6 7 6 6 2 ; % o o @ 8 f K r K V 7 < % # % & 3 7 V Y V 7 6 > % o o X @ # @ @ @ # # & 5 a a 7 F V F F F 7 3 % o o @ @ @ # @ # @ ",
"# 4 5 e w 2 - # @ @ @ @ @ O % % * ; * * % O @ @ o + $ 8 r Y Z Z V 7 ; % # # % < 6 V Z 7 6 > @ o @ o @ @ @ @ @ @ @ # & - 1 2 6 7 7 Z Z Z 3 > o o @ @ @ @ @ @ @ @ ",
"& 4 5 r 7 < - # @ @ @ @ @ @ X X X O $ O o X X @ @ $ % 8 a Y Z 7 6 2 - # @ @ # - > 6 6 3 ; % . . X @ @ @ @ @ @ # # @ # & % ; : 2 6 6 3 3 : @ . . @ @ % @ @ # @ # ",
"# = 4 5 5 - o # @ @ @ @ @ @ @ @ $ @ @ O @ @ X @ # # % > 6 V 7 7 > @ o o @ @ # % % ; % O @ X o @ @ @ @ # @ @ @ @ @ @ @ # # # # % % ; O o X X   @ @ @ # @ @ @ @ @ ",
"& & - 4 < # + @ @ @ # @ @ @ # @ $ O @ @ @ @ @ @ @ @ # ; 2 3 2 2 % . X o @ @ @ @ $ O X X . . @ @ @ @ @ @ # @ @ @ @ @ @ @ @ # + @ X X .       @ @ @ @ @ @ @ # @ @ ",
"& @ + + o + o @ @ @ @ $ @ @ # @ @ @ @ @ # @ @ # # @ @ $ $ % O o o o @ @ # @ @ @ @ @ o o X @ @ @ @ @ @ @ @ @ # @ @ # @ @ @ @ @ @ O O o X X o @ @ @ @ @ @ @ # @ # ",
"& & + . . @ @ # @ @ @ @ @ @ @ @ % @ @ @ @ @ @ @ @ @ @ $ X X     . X @ @ @ @ @ @ @ @ @ O @ @ @ @ @ # @ # @ @ @ @ @ @ @ @ # @ # @ O % @ @ O # @ @ # @ # @ @ @ @ @ "
};
