/* XPM */
static char *_22ac6506d7044bde461093ca691d6f6EpXqH1k3XSD8uEzb[] = {
/* columns rows colors chars-per-pixel */
"80 80 215 2 ",
"   c None",
".  c #3C1414",
"X  c #48181A",
"o  c #591B1C",
"O  c #6A1C1D",
"+  c #522316",
"@  c #6C2C17",
"#  c #7B231F",
"$  c #7A371C",
"%  c #4B1321",
"&  c #551924",
"*  c #5B1B23",
"=  c #5C1A29",
"-  c #591423",
";  c #651B25",
":  c #6B1D23",
">  c #651C2A",
",  c #6C1C2B",
"<  c #6B172B",
"1  c #761E26",
"2  c #731D2B",
"3  c #781E2A",
"4  c #7A1E20",
"5  c #741D33",
"6  c #7D1C35",
"7  c #631C31",
"8  c #632124",
"9  c #6D2326",
"0  c #6C212C",
"q  c #742423",
"w  c #7D2523",
"e  c #7A2927",
"r  c #73222B",
"t  c #7B232A",
"y  c #7E2A2A",
"u  c #7C3225",
"i  c #742233",
"p  c #7C2534",
"a  c #7F2A33",
"s  c #77223A",
"d  c #7B243A",
"f  c #6F420E",
"g  c #7E471D",
"h  c #861B26",
"j  c #971A25",
"k  c #812625",
"l  c #852A25",
"z  c #8A2D26",
"x  c #84262B",
"c  c #842E29",
"v  c #8C2C2C",
"b  c #902F26",
"n  c #922022",
"m  c #863027",
"M  c #8B3127",
"N  c #873029",
"B  c #8B322A",
"V  c #933125",
"C  c #9A3524",
"Z  c #94332D",
"A  c #9C362E",
"S  c #9D3B2E",
"D  c #94382A",
"F  c #822634",
"G  c #832A35",
"H  c #8A2D34",
"J  c #802739",
"K  c #842A39",
"L  c #8A2C38",
"P  c #922E3B",
"I  c #902F33",
"U  c #8F303D",
"Y  c #933233",
"T  c #9D3634",
"R  c #953933",
"E  c #9D3C34",
"W  c #94323A",
"Q  c #993538",
"!  c #B32B2C",
"~  c #A33A2E",
"^  c #A93E2E",
"/  c #AC3F2B",
"(  c #A2352E",
")  c #A63D31",
"_  c #A33B33",
"`  c #AA3E34",
"'  c #A6393C",
"]  c #AC3C3C",
"[  c #A3363D",
"{  c #B93832",
"}  c #B53A35",
"|  c #B4342E",
" . c #C93B36",
".. c #D73B37",
"X. c #CD382A",
"o. c #E4373B",
"O. c #824F0F",
"+. c #965819",
"@. c #834D1B",
"#. c #B45313",
"$. c #AF7114",
"%. c #8C4327",
"&. c #AD412E",
"*. c #AF492F",
"=. c #B6462E",
"-. c #B2442E",
";. c #BF4C2F",
":. c #BC4A2E",
">. c #B15E2E",
",. c #A34234",
"<. c #AB4031",
"1. c #AE4231",
"2. c #AA4533",
"3. c #AF4A36",
"4. c #B14331",
"5. c #B24431",
"6. c #B54631",
"7. c #B34334",
"8. c #BA4633",
"9. c #B74931",
"0. c #B94930",
"q. c #BD4B30",
"w. c #BE4932",
"e. c #B4413A",
"r. c #BB4639",
"t. c #B44C3B",
"y. c #BC4C39",
"u. c #B95538",
"i. c #A65E2A",
"p. c #B66632",
"a. c #DC5910",
"s. c #D76816",
"d. c #FE6A06",
"f. c #FF7A09",
"g. c #FA7409",
"h. c #EF751E",
"j. c #E16217",
"k. c #C34F2F",
"l. c #C14D2F",
"z. c #C44F2F",
"x. c #C5502E",
"c. c #C6502E",
"v. c #CE5D22",
"b. c #C24A35",
"n. c #C14739",
"m. c #C84837",
"M. c #D54335",
"N. c #CC5134",
"B. c #C85A3A",
"V. c #D25036",
"C. c #DE5733",
"Z. c #D05824",
"A. c #E84639",
"S. c #F6483A",
"D. c #ED5239",
"F. c #E55538",
"G. c #FA533B",
"H. c #F8573D",
"J. c #C36828",
"K. c #C5742B",
"L. c #D3772B",
"P. c #DC6527",
"I. c #E86933",
"U. c #9C3142",
"Y. c #932D41",
"T. c #A43640",
"R. c #EC3E40",
"E. c #BB5340",
"W. c #C55A47",
"Q. c #EC4740",
"!. c #FB4D42",
"~. c #F44A42",
"^. c #FE5442",
"/. c #DA695C",
"(. c #ED674F",
"). c #E46C61",
"_. c #CA8716",
"`. c #D88C16",
"'. c #D2901C",
"]. c #DA9518",
"[. c #FC810C",
"{. c #FF930E",
"}. c #FF9D13",
"|. c #FF9710",
" X c #E09C1A",
".X c #FDA316",
"XX c #FEAC19",
"oX c #F7A41B",
"OX c #FFB41C",
"+X c #FEBB1F",
"@X c #F7B01E",
"#X c #D78A29",
"$X c #D48E22",
"%X c #EF932A",
"&X c #FEB827",
"*X c #FDB639",
"=X c #EBAE2D",
"-X c #EFBD5A",
";X c #FFBF77",
":X c #FDD249",
">X c #F7E550",
",X c #F1C365",
"<X c #FDD690",
"1X c #FFE594",
"2X c #FFD7A0",
"3X c #F8DBBF",
"4X c #FFEAA8",
"5X c #F7E0BE",
"6X c #FCDBC3",
"7X c #FFF5C5",
"8X c #FFF4DE",
"9X c #FFF6D7",
"0X c #FDE7D2",
"qX c #FFFCF5",
"wX c #FFFFFE",
/* pixels */
"                                                                                                                                                                ",
"                                                                                                                                                                ",
"                                                                                                                                                                ",
"                                                                                                                                                                ",
"                                                                                                                                                                ",
"                                                                                                                                                                ",
"                                                                                                                                                                ",
"                                                                                                                                                                ",
"                                                                                                                                                                ",
"                                                                                                                                                                ",
"                                                                                                                                                                ",
"                                                                                                                                                                ",
"                                                                                                                                                                ",
"                                                                                                                                                                ",
"                                                                                                                                                                ",
"                                                                                                                                                                ",
"                                                                                                                                                                ",
"                                                                                                                                                                ",
"                                                                        x.c.c.c.c.c.x.x.                                                                        ",
"                                                                x.x.x.x.x.c.x.x.c.c.x.x.x.x.x.k.                                                                ",
"                                                            k.l.k.x.x.x.x.x.x.x.c.x.x.x.x.x.x.k.k.k.                                                            ",
"                                                        l.l.l.l.k.k.k.k.b.x.x.x.x.x.k.x.l.x.l.x.k.l.l.l.                                                        ",
"                                                      :.:.:.l.l.l.l.q.k.=.^ ( v Z A ) =.;.;.x.x.l.l.l.b.;.                                                      ",
"                                                    =.=.=.=.=.=.=.~ v r 2 h k z z k t t 1 z ^ :.l.l.;.:.q.q.                                                    ",
"                                                  0.q.q.:.q.q./ x 3 z V ( C C C C C C C V n # # ( =.=.=.=.=.=.                                                  ",
"                                                6.0.6.0.:.8.v 3 z C C C C C C C C C C C C C C z t x / ` -.&./ &.                                                ",
"                                              6.6.=.6.6.` 3 k V C C V C C C C C C C C C C C C C C l 3 ^ 4.=.6.-.&.                                              ",
"                                            5.6.6.6.6.5.3 z C C C V C b V V V C V C V V V V z V b b z 2 ) 6.6.8.6.5.                                            ",
"                                            6.6.6.6.` 3 z V b C V V V V V C V V V V V V V V V V C V V l 3 _ 4.6.6.5.                                            ",
"                                          4.1.5.-.1.x l V V b C V V V V V V V V V V V V V C V V b b V V l t ^ / &.4.5.                                          ",
"                                          1.5.7.5.Y t V V V V b V V V V b V V V V V V V b b V b b V V V V t v 5.5.^ <.1.                                        ",
"                                        1.1.1.1.<.2 z b b z z z l n l l l l l l k k k l l l l V b b b b V z 2 ) 1.1.~ <.                                        ",
"                                        ` 1.` ^ v 3 l : 4 l l k l l l l l l l l k # # # # # # e l m b b V V x F 1.<.S ~                                         ",
"                                      ) ~ _ ~ _ 3 z k % O l l l l l k l l l k k l l l # # # # # # l k m z b z 2 ) ) S ~ <.                                      ",
"                                      _ ) ` ` T 3 z x 1 l l l l l k k l k l k k k l k # # # # # k k z b z b l q Y _ A _ `                                       ",
"                          _ y.        _ _ _ _ G 3 z l z v l l l k k # k k k k k w w # # # # # w k l m z z l l k t A A _ )         b.6.                          ",
"                          _ ]         _ _ T Q 3 x k x k x l l x k y w w k # # # w w w w w w k l l z z l l k l k 2 Z E T T         n.6.                          ",
"                        r T e.e.      _ _ _ _ 2 l z z z l c l l z l l w # # 4 k k y y w k c l l l l l l m M z l , 2.&.2.3.      r.y.7.e                         ",
"                        9 W ] ] e.    t.t.t.3.2 z z x l m z z N m z M C ,.,.C D B V M D M M M M M M V M M M M M 2 ,.*.2.2.,.  T e.e._ q                         ",
"                        0 G ' ] ] a B 1.2.2.2.2 B M M V V B B V M M M M M V M M V M M M M M V M M M M M M M M M 1 ,.,.2.*.R , I ] ] v 9                         ",
"                        0 , U [ W r N 2.2.2.2.0 M M M M M D M M M M M V M M M M M M M M M M M z M m M M M M M B 2 ,.2.2.2.B 0 G ] Y 9 9                         ",
"              y.n.n.t.  7 > > p p 8 e ,.2.,.,.i N m M M m z z M m M m N M m M m M m N M M m m M m M N M M M m N 2 ,.2.,.,.G = 0 i 8 > 9     N.N.N.              ",
"          r.n.m.m.n.7.    7 > 0 = % * ,.,.,.,.p k N m m l m m m m M m M m M m m m z z m m m N N M M m m m m N z 2 ,.) ,.,.8 % % = > 0     0.V.V.N.l.b.          ",
"        Q.!.^.!.A.~.^. .    7 7 0 = * ,.,.,.,.x c N N N N N N m N m m m m m N N m N N N N c N c m l z m m m N c t ,.,.,.,.a 0 0 > = % *  .^.H.A.G.H.D.C.        ",
"    r Q.!.~.A.)./.n.A.S.| w   8.} ` y ,.E E ,.H r c c l m m m m m N N l N N l N c m m c m c c m N N m c m m c r G ,.,.,.,.9 T 2.e.# k X.S.S.X.Z.P.I.D.G.D.      ",
"  . n.~.R.h.6XqXwX0X/.~.M.| _ Z A -.m B ,.,.,.E 2 N N N m c c c c z c c c c c c c c c m c c c N l N c c c c c 2 R ,.,.,.R 9 e._ _ { X.S.G.).6X8X5X>X=XM.D.V.    ",
"  [ { o.R.S.6XwXwXwXqX9.! { S Z ) 8.,.m R ,.,.R c r y m y m c c B c c c m c c c l c c c c c c N c c c y c B N G E.E.E.E.R y e.' ( { .. .W.qXwXwXwX4XI.A.M.=.q.  ",
"  0 - : h ! ~.;X9XwXqX6Xp.o o e M M + X ,.E ,.,.R 1 y m y y c k c e e t r e e t y y x x G c x t e e r r r r , G Y U W R + + u B y 1 O >.6XwXwXqX2XH.! # O * q   ",
"      o 1 h j ..%X:X1X4X1X-X_._.`.]._.O.$ E R E R F r y r r 2 2 2 r r r r r r r r r r r r r r r 2 r r r 2 - X L L I U u f _.].].'.$X,X7X8X7X<X*XC.n 4 1         ",
"            ; ; t.L.@X+XOXOXOX+XOX+X+X X+.Y I H K K 2 2 r r r r 9 r r r r r r 2 r r r 9 1 9 r r , , , r , ; < F G G c O.$.OXOXOXXX&X&X*X*XoXL.u.: *             ",
"                * u.J.&XOX.XXXOXOX+X&X&X$.%.H K K L J , 2 r r 2 2 9 r r r 0 r 9 , , , , , , , , , , 9 , , 5 K G K G m $.`..XXX.X}.}.}.}..XJ.B.9 *               ",
"                & 9 B.J..X{.{.{.{.{.|.}.].@.a K K K K F , , , , , , , , , , , , 2 , r , 9 , , , 9 , 2 , p L K K L a $ #.[.f.f.f.f.f.g.f.J.B.c o                 ",
"                  & W y.K..X|.|.}..XoX X$Xg * K K K K K p , ; 2 2 0 , , , , , , , , ; , > ; > ; ; ; < 5 p p p G K = @ #.s.g.g.d.d.d.d.s.y._ *                   ",
"                    p T._ i.$X%X#X>.' _ Q Y 9 p K K K K K K 5 , , , , 0 , , > > ; > ; ; > < ; < < 5 i d p p p K i 8 i W Q T *.v.j.a.#.Q ] L &                   ",
"                    > T.T.I Y R N H H H H H 9 8 t L K K J J J d 5 , , , , , > , , > , , , , , , 5 d J J J J J i = & i p d a p G Y W L ' T.p                     ",
"                    & T.T.W K K G G G               J J a d d J s 5 , < < 7 , , 7 > < , , < 5 J W P K J J J J             d a p p K W T.] 0                     ",
"                    = U.U.K K G                       J J d d d d d d d s 5 2 , 5 5 5 s d d d d d d d d d                         K p W T.i                     ",
"                    i U.J                               6 6 5 5 5 5 5 5 5 s 6 s s s s s d s s s d d J d                               G W K                     ",
"                    Y.U.                                    d s s 6 s s s s s 5 s s s s s d s d d d                                     P P                     ",
"                                                                d d s d s s s s s s s d d s d d                                                                 ",
"                                                                      s s s s s s s d s d                                                                       ",
"                                                                                                                                                                ",
"                                                                                                                                                                ",
"                                                                                                                                                                ",
"                                                                                                                                                                ",
"                                                                                                                                                                ",
"                                                                                                                                                                ",
"                                                                                                                                                                ",
"                                                                                                                                                                ",
"                                                                                                                                                                ",
"                                                                                                                                                                ",
"                                                                                                                                                                ",
"                                                                                                                                                                ",
"                                                                                                                                                                ",
"                                                                                                                                                                ",
"                                                                                                                                                                ",
"                                                                                                                                                                ",
"                                                                                                                                                                ",
"                                                                                                                                                                ",
"                                                                                                                                                                "
};
